<svg xmlns="http://www.w3.org/2000/svg" width="256" height="256" viewBox="0 0 256 256" version="1.1">
	<path d="M 113.500 23.504 C 107.450 24.198, 102.202 24.592, 101.838 24.379 C 101.474 24.165, 96.074 24.632, 89.838 25.417 C 83.602 26.201, 73.917 27.416, 68.317 28.117 C 62.398 28.857, 57.257 30.052, 56.040 30.970 C 53.715 32.723, 52.407 38.722, 53.872 40.910 C 55.030 42.641, 69.284 43.265, 76 41.880 C 88.791 39.242, 90.459 39.728, 88.856 45.627 C 87.565 50.380, 84.140 51.294, 67.692 51.275 C 47.431 51.252, 38 54.199, 38 60.552 C 38 65.089, 39.707 65.407, 63.411 65.278 C 75.634 65.211, 86.223 65.520, 86.941 65.964 C 88.203 66.744, 88.467 68.766, 89.432 85.021 C 89.944 93.649, 88.294 98.458, 84.497 99.411 C 81.108 100.262, 79.192 99.203, 78.623 96.166 C 77.399 89.622, 77.046 82.257, 77.824 79.500 C 78.674 76.487, 78.021 74.395, 75.095 70.750 C 72.937 68.061, 70.307 68.642, 65.862 72.787 C 62.526 75.900, 61.708 77.409, 61.274 81.260 C 60.914 84.456, 61.263 87.035, 62.373 89.374 C 65.860 96.722, 63.609 99.399, 53 100.523 C 43.908 101.487, 42.812 101.759, 41.091 103.480 C 39.731 104.840, 39.853 105, 42.251 105 C 43.906 105, 45.339 105.764, 46 107 C 46.589 108.100, 47.745 109, 48.570 109 C 49.395 109, 51.272 109.788, 52.740 110.750 C 56.517 113.225, 69.973 113.233, 72.708 110.762 C 73.766 109.806, 76.105 108.729, 77.905 108.369 C 80.630 107.824, 81.591 108.158, 83.630 110.357 L 86.081 113 82.666 113 C 80.025 113, 78.145 114.006, 74.375 117.435 C 71.694 119.874, 68.472 122.799, 67.215 123.935 C 65.958 125.071, 64.495 126, 63.965 126 C 63.434 126, 63 126.394, 63 126.875 C 63 127.356, 61.538 128.036, 59.750 128.385 C 56.204 129.079, 44.256 133.805, 42.250 135.308 C 41.563 135.823, 41 137.260, 41 138.501 C 41 144.919, 63.635 144.965, 68.952 138.558 C 69.663 137.701, 70.865 137, 71.622 137 C 72.380 137, 73 136.283, 73 135.406 C 73 134.530, 73.870 133.585, 74.933 133.307 C 75.996 133.029, 78.054 131.087, 79.506 128.991 C 80.959 126.895, 83.239 124.906, 84.574 124.571 C 87.242 123.901, 92 124.788, 92 125.956 C 92 126.362, 93.013 127.183, 94.250 127.780 L 96.500 128.865 94.250 128.932 C 91.966 129.001, 91.333 131.361, 91.883 137.752 C 91.989 138.990, 91.592 141.801, 91.001 143.997 C 89.592 149.230, 91.412 153.009, 96.705 155.842 C 101.550 158.435, 105 155.763, 105 149.418 C 105 148.049, 105.703 145.857, 106.562 144.545 C 108.277 141.928, 108.167 139.053, 106.293 137.500 C 105.629 136.950, 104.873 135.270, 104.612 133.766 C 103.909 129.707, 103.194 129, 99.792 129 C 96.715 129, 96.721 128.990, 101.101 126.683 C 109.093 122.473, 114.650 124.413, 121.826 133.919 C 123.105 135.613, 125.031 137, 126.105 137 C 127.178 137, 130.731 138.350, 134 140 C 137.269 141.650, 140.829 143, 141.912 143 C 142.996 143, 144.160 143.450, 144.500 144 C 144.840 144.550, 147.362 145, 150.104 145 C 153.962 145, 155.607 144.484, 157.371 142.719 C 159.853 140.237, 161.121 136.796, 160.127 135.238 C 158.745 133.070, 151.563 129, 149.110 128.994 C 147.675 128.990, 145.211 128.315, 143.636 127.494 C 142.060 126.672, 140.148 126, 139.386 126 C 138.624 126, 138 125.648, 138 125.218 C 138 124.788, 136.788 124.336, 135.306 124.213 C 133.824 124.091, 132.362 123.655, 132.056 123.245 C 131.750 122.835, 130.935 122.387, 130.244 122.248 C 129.554 122.110, 126.854 119.975, 124.244 117.504 C 119.597 113.103, 119.364 113.011, 112.809 113.006 C 109.129 113.003, 105.840 112.550, 105.500 112 C 105.160 111.450, 105.696 110.968, 106.691 110.930 C 108.306 110.867, 108.285 110.767, 106.500 110 C 105.029 109.368, 104.919 109.122, 106.083 109.070 C 106.954 109.032, 107.667 108.345, 107.667 107.544 C 107.667 106.743, 107.323 106.301, 106.902 106.560 C 106.482 106.820, 105.857 106.578, 105.513 106.021 C 104.366 104.166, 112.957 105.229, 115.262 107.228 C 116.894 108.643, 118.726 109.063, 122.475 108.881 C 125.239 108.748, 127.813 108.170, 128.195 107.599 C 128.668 106.892, 130.053 106.979, 132.515 107.869 C 136.843 109.434, 146.593 108.582, 152.250 106.144 C 155.703 104.656, 156.159 104.186, 155.915 102.362 C 155.868 102.011, 156.318 101.421, 156.916 101.052 C 157.627 100.613, 157.282 99.606, 155.920 98.145 C 153.937 96.016, 153.381 95.945, 144.169 96.663 C 132.626 97.561, 127.277 97.611, 126.493 96.826 C 126.175 96.508, 126.711 94.577, 127.684 92.536 L 129.454 88.824 135.477 89.060 C 145.963 89.471, 147.851 89.192, 147.569 87.271 C 147.430 86.320, 147.924 84.934, 148.667 84.190 C 149.410 83.447, 149.763 82.425, 149.450 81.919 C 149.138 81.414, 149.696 80.993, 150.691 80.985 C 151.866 80.975, 152.090 80.709, 151.330 80.225 C 150.687 79.816, 150.012 78.826, 149.830 78.026 C 149.264 75.533, 145.573 74.279, 137.229 73.747 C 128.912 73.216, 126.554 72.530, 127.543 70.931 C 127.859 70.419, 127.472 70, 126.681 70 C 125.891 70, 124.697 69.339, 124.027 68.532 C 122.161 66.284, 120.358 67.011, 115.453 71.990 C 112.691 74.793, 112.534 75.690, 114.111 79.685 C 114.722 81.233, 115.366 84.075, 115.543 86 C 115.720 87.925, 116.141 91.075, 116.480 93 C 117.306 97.694, 114.314 102.552, 110.018 103.496 C 107.373 104.077, 106.514 103.745, 104.456 101.350 C 102.258 98.793, 102.039 97.708, 102.200 90.200 C 102.298 85.626, 102.695 81.689, 103.080 81.450 C 103.466 81.212, 103.664 77.975, 103.520 74.258 C 103.212 66.298, 103.575 65, 106.107 65 C 107.148 65, 108 64.550, 108 64 C 108 62.774, 114.156 62.736, 119.299 63.930 C 121.389 64.415, 124.539 64.438, 126.299 63.982 C 128.060 63.525, 132.650 62.866, 136.500 62.517 C 145.971 61.657, 148.903 61.123, 151.367 59.804 C 155.139 57.785, 155.697 56.806, 155.125 53.216 C 155.056 52.784, 153.707 51.667, 152.126 50.733 C 148.487 48.584, 130.998 47.790, 115.826 49.084 C 109.955 49.586, 104.455 49.728, 103.603 49.401 C 102.751 49.074, 101.764 47.257, 101.408 45.363 C 100.558 40.831, 102.753 38.417, 108.849 37.178 C 114.062 36.119, 114.858 36.058, 124 36.015 C 131.304 35.980, 134.904 34.577, 136.644 31.087 C 138.995 26.371, 134.501 21.865, 127.703 22.121 C 125.941 22.187, 119.550 22.809, 113.500 23.504" stroke="none" fill="black" fill-rule="evenodd"/>
</svg>