<svg xmlns="http://www.w3.org/2000/svg" width="256" height="256" viewBox="0 0 256 256" version="1.1">
	<path d="M 89.011 25.750 C 86.420 28.108, 85.766 29.784, 84.424 37.500 C 81.389 54.945, 81.179 56.598, 81.534 60.259 C 81.827 63.282, 81.356 64.490, 78.946 66.900 C 76.578 69.268, 76 70.709, 76 74.243 C 76 77.706, 75.369 79.347, 73.028 81.969 C 71.393 83.800, 69.337 87.769, 68.459 90.789 C 67.581 93.809, 66.188 96.955, 65.362 97.780 C 62.638 100.505, 61.244 103.444, 60.592 107.842 C 60.134 110.923, 58.994 113.102, 56.667 115.342 C 54.862 117.079, 51.837 120.750, 49.943 123.500 C 48.049 126.250, 45.825 128.920, 45 129.433 C 44.175 129.946, 42.309 131.552, 40.854 133.002 C 37.638 136.206, 37.984 140.056, 41.756 143.023 C 44.723 145.357, 48.070 145.542, 51.800 143.579 C 54.320 142.252, 58.627 138, 57.451 138 C 57.159 138, 57.416 137.438, 58.020 136.750 C 58.624 136.063, 59.985 134.037, 61.045 132.250 C 62.104 130.463, 63.652 129, 64.485 129 C 65.402 129, 66 128.086, 66 126.687 C 66 125.415, 67.334 123.096, 68.964 121.534 C 70.595 119.972, 71.726 118.366, 71.479 117.966 C 71.231 117.565, 72.056 115.721, 73.313 113.869 C 75.872 110.095, 77.397 106.875, 77.159 105.750 C 77.071 105.338, 77.477 105, 78.059 105 C 78.641 105, 78.864 104.588, 78.553 104.085 C 78.242 103.582, 78.553 102.943, 79.244 102.664 C 80.081 102.327, 80.114 102.132, 79.344 102.079 C 77.638 101.962, 78.966 97.949, 81.678 95.024 C 82.955 93.647, 84 91.939, 84 91.229 C 84 90.518, 84.787 89.639, 85.750 89.275 C 86.713 88.910, 88.095 88.024, 88.821 87.306 C 89.916 86.224, 89.889 86, 88.665 86 C 86.219 86, 87.916 82.188, 91.061 80.620 C 94.961 78.674, 97.200 80.384, 97.200 85.310 C 97.200 88.468, 97.524 89, 99.445 89 C 102.453 89, 104.316 91.343, 106.907 98.385 C 108.098 101.621, 110.089 105.069, 111.331 106.046 C 113.600 107.830, 115.828 111.713, 118.048 117.750 C 118.705 119.537, 119.707 121, 120.273 121 C 122.089 121, 129.937 127.446, 129.969 128.963 C 130.007 130.768, 140.310 140.640, 144.780 143.155 C 149.529 145.826, 158.881 145.691, 161.868 142.908 C 163.454 141.431, 164.023 139.911, 163.807 137.733 C 163.547 135.121, 162.662 134.217, 158.020 131.825 C 155.006 130.271, 152.211 129, 151.810 129 C 151.409 129, 148.925 126.686, 146.290 123.857 C 143.656 121.028, 140.018 118.089, 138.206 117.325 C 136.395 116.562, 134.659 115.276, 134.350 114.468 C 134.040 113.661, 133.047 112.999, 132.143 112.999 C 130.932 112.997, 130.426 111.918, 130.218 108.889 C 130.021 106.018, 129.117 103.947, 127.218 102.010 C 125.723 100.486, 123.825 98.230, 123 96.997 C 122.175 95.764, 120.938 94.167, 120.250 93.449 C 119.563 92.731, 119 91.647, 119 91.040 C 119 90.433, 118.359 89.691, 117.575 89.390 C 116.791 89.089, 115.851 87.079, 115.487 84.922 C 115.071 82.459, 114.283 81, 113.368 81 C 112.567 81, 112.022 80.438, 112.157 79.750 C 113.206 74.377, 108.540 66.842, 103.272 65.403 C 101.678 64.967, 101.144 64.184, 101.396 62.647 C 101.590 61.466, 101.402 60.050, 100.978 59.500 C 100.244 58.547, 99.749 56.171, 98.163 46 C 97.350 40.784, 97.347 40.900, 98.491 35 C 99.567 29.455, 99.271 27.012, 97.252 24.750 C 95.037 22.268, 92.497 22.576, 89.011 25.750 M 212.459 132.066 C 212.133 132.594, 213.934 133, 216.608 133 C 222.054 133, 222.113 132.532, 216.768 131.707 C 214.716 131.391, 212.777 131.552, 212.459 132.066 M 227.510 136.016 C 227.856 136.575, 228.557 136.774, 229.069 136.457 C 230.456 135.600, 230.198 135, 228.441 135 C 227.584 135, 227.165 135.457, 227.510 136.016 M 85 165 C 85 165.550, 83.023 166, 80.607 166 C 77.625 166, 76.029 166.482, 75.638 167.500 C 75.172 168.716, 76.057 169, 80.313 169 C 85.192 169, 85.578 168.823, 85.771 166.500 C 85.884 165.125, 85.758 164, 85.489 164 C 85.220 164, 85 164.450, 85 165" stroke="none" fill="black" fill-rule="evenodd"/>
</svg>