<svg xmlns="http://www.w3.org/2000/svg" width="256" height="256" viewBox="0 0 256 256" version="1.1">
	<path d="M 136.336 36.464 C 134.082 38.718, 133 40.745, 133 42.712 C 133 46.873, 129.223 60.730, 127.281 63.694 C 126.377 65.073, 125.299 68.744, 124.884 71.851 C 123.650 81.101, 119.580 96.982, 118.441 96.992 C 115.782 97.013, 113.777 100.092, 112.050 106.804 C 111.022 110.804, 109.515 115.092, 108.702 116.332 C 103.738 123.908, 93.055 133, 89.117 133 C 85.935 133, 82.333 135.009, 80.980 137.538 C 79.897 139.561, 80.114 140.468, 82.685 144.678 C 84.305 147.330, 85.924 150.287, 86.284 151.250 C 87.340 154.078, 91.569 153.413, 93.971 150.041 C 95.129 148.414, 98.286 145.880, 100.987 144.411 C 106.319 141.508, 108.466 138.180, 109.877 130.629 C 110.338 128.161, 111.454 125.403, 112.358 124.499 C 113.261 123.596, 114 122.439, 114 121.929 C 114 121.418, 114.653 121, 115.450 121 C 116.248 121, 117.260 120.391, 117.700 119.646 C 119.774 116.134, 125.557 115.869, 127.665 119.188 C 128.124 119.911, 129.801 121.175, 131.391 121.996 C 135.619 124.179, 138.588 127.530, 144.236 136.489 C 147.006 140.883, 149.998 145.031, 150.886 145.707 C 154.839 148.717, 160.196 146.302, 163.775 139.896 C 165.653 136.533, 165.652 136.514, 163.172 131.734 C 160.110 125.832, 153.866 121, 149.303 121 C 147.089 121, 145.959 120.505, 145.875 119.500 C 145.719 117.631, 145.542 117.001, 144.470 114.500 C 142.790 110.582, 140.886 109.615, 133.250 108.800 C 132.052 108.672, 131.718 107.561, 131.733 103.750 C 131.736 102.787, 131.348 102, 130.870 102 C 129.244 102, 129.991 97.939, 131.750 97.218 C 132.847 96.768, 133.602 95.211, 133.775 93.044 C 133.926 91.143, 134.376 89.343, 134.775 89.044 C 135.174 88.745, 135.624 86.945, 135.775 85.044 C 135.926 83.143, 136.419 81.343, 136.871 81.044 C 137.528 80.609, 138.866 76.931, 139.434 74 C 139.487 73.725, 139.838 73.018, 140.213 72.430 C 140.589 71.841, 141.128 70.078, 141.412 68.511 C 141.696 66.944, 142.433 65.350, 143.050 64.969 C 143.666 64.588, 144.075 63.982, 143.959 63.621 C 143.779 63.065, 145.022 53.493, 145.469 52 C 146.117 49.832, 147.316 42.111, 147.255 40.500 C 147.131 37.228, 145.846 34.005, 144.633 33.923 C 144.010 33.881, 142.639 33.685, 141.586 33.488 C 140.418 33.269, 138.371 34.429, 136.336 36.464 M 89.678 41.457 C 86.210 43.300, 83.078 46.934, 83.033 49.168 C 82.968 52.444, 84.315 54.126, 88.875 56.464 C 91.419 57.768, 95.750 61.158, 98.500 63.996 C 101.250 66.835, 104.715 69.797, 106.200 70.578 C 109.221 72.168, 113 72.468, 113 71.117 C 113 70.631, 113.900 69.998, 115 69.710 C 117.540 69.046, 117.754 65.007, 115.250 64.985 C 114.262 64.976, 113.935 64.650, 114.500 64.235 C 117.481 62.044, 114.762 54.962, 109.992 52.496 C 108.357 51.650, 106.242 49.730, 105.292 48.229 C 103.028 44.650, 99.205 41.004, 97.698 40.986 C 97.039 40.979, 95.600 40.744, 94.500 40.465 C 93.400 40.186, 91.230 40.632, 89.678 41.457 M 48.500 45.161 C 42.473 48.475, 41.722 53.340, 45.500 64.595 C 46.875 68.691, 48 73.763, 48 75.867 C 48 77.971, 48.635 80.999, 49.412 82.596 C 50.188 84.193, 51.050 89.775, 51.327 95 C 51.604 100.225, 52.308 105.737, 52.891 107.250 C 53.474 108.763, 53.721 110, 53.440 110 C 53.159 110, 53.405 110.889, 53.986 111.975 C 55.012 113.891, 54.770 113.934, 45.772 113.415 C 37.804 112.956, 36.187 113.135, 34.272 114.690 C 31.051 117.306, 32.260 120.276, 37.641 122.963 C 42.517 125.399, 47.767 125.191, 50.022 122.474 C 50.695 121.663, 51.817 121, 52.515 121 C 53.214 121, 54.045 120.325, 54.362 119.500 C 54.678 118.675, 54.576 118, 54.135 118 C 53.694 118, 53.333 117.275, 53.333 116.390 C 53.333 115.027, 54.192 114.875, 58.917 115.402 C 61.987 115.745, 68.988 116.058, 74.473 116.097 C 83.639 116.163, 84.592 115.987, 86.258 113.929 C 88.010 111.767, 88.092 108.726, 86.505 104.788 C 85.631 102.619, 83.455 101.941, 75.894 101.480 C 70.438 101.148, 66.164 99.503, 67.441 98.226 C 67.710 97.957, 67.503 96.940, 66.982 95.966 C 66.461 94.993, 65.822 92.134, 65.562 89.614 C 65.302 87.093, 64.333 82.887, 63.408 80.266 C 62.273 77.049, 61.634 71.530, 61.441 63.284 C 61.285 56.565, 60.853 50.111, 60.482 48.943 C 59.845 46.936, 54.581 43.964, 51.782 44.030 C 51.077 44.047, 49.600 44.556, 48.500 45.161" stroke="none" fill="black" fill-rule="evenodd"/>
</svg>