<svg xmlns="http://www.w3.org/2000/svg" width="256" height="256" viewBox="0 0 256 256" version="1.1">
	<path d="M 79.386 35 C 47.605 35.532, 45.579 35.847, 44.427 40.436 C 43.573 43.837, 45.291 46.377, 49.833 48.424 C 53.056 49.878, 54.632 50.027, 58.360 49.232 C 60.876 48.695, 64.636 48.545, 66.717 48.898 C 70.049 49.463, 82.850 49.536, 121 49.209 C 140.004 49.047, 141.188 48.955, 142.603 47.540 C 144.372 45.771, 144.422 39.279, 142.679 37.536 C 140.651 35.508, 113.658 34.427, 79.386 35 M 69.500 81.664 C 63.050 83.169, 61.429 84.091, 61.241 86.361 C 61.096 88.116, 61.926 89.184, 64.523 90.582 C 66.435 91.612, 68 92.771, 68 93.157 C 68 94.416, 79.139 96.207, 88.924 96.521 C 101.218 96.915, 124.594 95.288, 127.277 93.852 C 132.733 90.932, 135.167 85.814, 132.351 83.183 C 131.608 82.489, 131 82.219, 131 82.583 C 131 82.947, 130.331 82.690, 129.514 82.012 C 128.372 81.064, 123.227 80.963, 107.264 81.577 C 95.844 82.016, 86.275 82.345, 86 82.308 C 81.656 81.725, 71.018 81.309, 69.500 81.664 M 45 129.754 C 42.837 130.476, 39 134.150, 39 135.500 C 39 136.133, 40.097 137.682, 41.438 138.942 C 44.149 141.489, 45.543 141.689, 66 142.466 C 73.425 142.749, 85.096 143.396, 91.936 143.904 C 99.564 144.472, 106.596 144.471, 110.127 143.902 C 113.292 143.392, 123.341 143.093, 132.459 143.238 L 149.035 143.500 152.268 139.980 C 154.045 138.044, 155.595 135.960, 155.710 135.349 C 155.976 133.943, 152.447 130.703, 150.202 130.291 C 147.226 129.746, 46.566 129.232, 45 129.754" stroke="none" fill="black" fill-rule="evenodd"/>
</svg>