<svg xmlns="http://www.w3.org/2000/svg" width="256" height="256" viewBox="0 0 256 256" version="1.1">
	<path d="M 90 78.278 C 84.225 78.706, 71.175 79.180, 61 79.331 C 40.654 79.634, 34.399 80.748, 33.084 84.302 C 31.959 87.343, 33.624 90.482, 37.457 92.547 C 40.374 94.118, 43.175 94.221, 67.089 93.643 C 81.615 93.292, 106.412 92.973, 122.193 92.935 C 153.320 92.860, 154.913 92.613, 157.218 87.509 C 159.193 83.135, 158.400 80.412, 154.693 78.848 C 151.041 77.306, 108.211 76.929, 90 78.278 M 190.750 240.706 C 191.988 240.944, 194.012 240.944, 195.250 240.706 C 196.488 240.467, 195.475 240.272, 193 240.272 C 190.525 240.272, 189.512 240.467, 190.750 240.706" stroke="none" fill="black" fill-rule="evenodd"/>
</svg>