<svg xmlns="http://www.w3.org/2000/svg" width="256" height="256" viewBox="0 0 256 256" version="1.1">
	<path d="M 62.285 30.018 C 60.962 30.551, 58.658 33.716, 56.560 37.880 C 54.630 41.714, 52.580 45.142, 52.006 45.496 C 50.304 46.548, 46.435 54.904, 43.440 64 C 41.293 70.520, 39.775 73.315, 36.923 76 C 34.171 78.591, 32.486 81.598, 30.431 87.580 C 28.904 92.024, 27.944 96.411, 28.296 97.330 C 29.306 99.962, 32.919 99.299, 38.493 95.461 C 41.610 93.314, 44.265 92.164, 45.241 92.539 C 47.176 93.281, 48.177 98.507, 48.041 107.148 C 47.859 118.708, 48.751 147.457, 49.371 149.999 C 50.429 154.336, 53.462 157.477, 56.922 157.819 C 61.278 158.250, 63.781 155.349, 63.434 150.274 C 63.292 148.198, 62.914 143.125, 62.594 139 C 62.275 134.875, 61.805 125.425, 61.551 118 C 61.298 110.575, 60.651 103.037, 60.115 101.250 C 59.578 99.462, 59.454 96.762, 59.839 95.250 C 60.224 93.737, 60.471 91.375, 60.389 90 C 60.307 88.625, 60.105 85.025, 59.939 82 C 59.774 78.975, 59.306 76.271, 58.899 75.991 C 58.493 75.710, 58.012 74.821, 57.830 74.014 C 57.649 73.208, 56.978 71.982, 56.339 71.291 C 55.700 70.600, 55.418 69.015, 55.711 67.768 C 56.528 64.293, 66.774 43.103, 69.015 40.253 C 71.199 37.478, 71.561 33.918, 69.965 30.934 C 68.870 28.889, 65.956 28.541, 62.285 30.018 M 117 31.767 C 114.557 32.521, 113 35.167, 113 38.565 C 113 40.316, 112.248 43.718, 111.329 46.124 C 110.230 49.002, 109.559 54.265, 109.368 61.500 C 109.208 67.550, 108.783 75.650, 108.424 79.500 C 107.962 84.446, 108.205 87.967, 109.253 91.500 C 110.266 94.914, 110.446 97.282, 109.821 98.964 C 109.002 101.170, 108.685 116.863, 109.275 125.973 C 109.467 128.942, 109.066 129.656, 106.514 130.891 C 104.871 131.686, 101.071 132.373, 98.068 132.418 L 92.609 132.500 92.329 106.446 C 92.112 86.218, 91.709 79.427, 90.525 76.071 C 89.686 73.694, 89 70.300, 89 68.529 C 89 64.569, 86.374 62, 82.326 62 C 76.539 62, 75.927 63.924, 76.472 80.400 C 76.741 88.500, 77.174 95.473, 77.436 95.896 C 77.697 96.319, 78.177 101.803, 78.503 108.082 C 78.829 114.362, 79.514 122.200, 80.027 125.500 C 80.539 128.800, 80.909 133.075, 80.849 135 C 80.679 140.452, 82.802 146.982, 84.789 147.115 C 88.228 147.347, 90.538 146.780, 92.198 145.299 C 93.486 144.150, 95.295 143.926, 99.698 144.369 C 102.889 144.691, 108.200 145.231, 111.500 145.569 C 115.606 145.990, 118.829 145.723, 121.709 144.723 C 125.939 143.255, 131 143.469, 131 145.117 C 131 145.602, 132.915 146, 135.257 146 C 140.940 146, 145.830 147.492, 148.562 150.058 C 151.454 152.775, 155.114 152.268, 156.709 148.930 C 158.047 146.129, 158.313 139.410, 158.109 113.500 C 158.035 104.150, 158.217 93.800, 158.512 90.500 C 158.807 87.200, 159.237 81.031, 159.468 76.791 C 159.698 72.551, 160.362 68.193, 160.943 67.107 C 163.623 62.099, 160.584 55, 155.762 55 C 153.045 55, 148.217 57.726, 147.041 59.923 C 146.481 60.969, 145.829 65.802, 145.592 70.663 C 145.355 75.523, 144.630 80.966, 143.981 82.757 C 143.328 84.556, 143.043 88.137, 143.344 90.757 C 143.643 93.366, 143.853 100.675, 143.812 107 C 143.770 113.325, 143.770 119.287, 143.811 120.250 C 143.852 121.213, 143.956 123.630, 144.043 125.622 C 144.289 131.286, 141.980 132.827, 132.761 133.151 C 128.505 133.300, 124.589 132.989, 124.058 132.458 C 123.271 131.671, 122.694 121.681, 121.981 96.500 C 121.950 95.400, 122.117 93.150, 122.353 91.500 C 124.702 75.075, 125.452 39.546, 123.549 34.885 C 122.740 32.904, 119.033 31.139, 117 31.767 M 225.250 174.662 C 222.700 175.691, 224.118 176.999, 227.750 176.968 C 231.264 176.938, 231.378 176.844, 229.559 175.468 C 227.506 173.915, 227.229 173.864, 225.250 174.662" stroke="none" fill="black" fill-rule="evenodd"/>
</svg>