<svg xmlns="http://www.w3.org/2000/svg" width="256" height="256" viewBox="0 0 256 256" version="1.1">
	<path d="M 88.500 20.900 C 86.850 21.864, 84.036 24.644, 82.246 27.077 C 77.773 33.158, 75.021 35.873, 71.500 37.676 C 69.850 38.520, 65.977 41.673, 62.894 44.682 C 58.107 49.353, 56.279 50.419, 50.394 51.973 C 39.897 54.744, 38 55.842, 38 59.151 C 38 61.371, 39.023 62.731, 42.750 65.465 C 48.154 69.430, 52.464 69.977, 56.115 67.160 C 59.837 64.289, 64.876 62.863, 67.099 64.053 C 68.477 64.790, 69 64.740, 69 63.869 C 69 63.207, 69.238 62.904, 69.528 63.195 C 69.818 63.485, 69.605 64.910, 69.053 66.361 C 68.408 68.057, 68.398 69, 69.025 69 C 69.561 69, 70 69.880, 70 70.955 C 70 72.369, 70.898 73.077, 73.250 73.515 C 78.078 74.415, 113.182 74.575, 115.500 73.708 C 116.600 73.297, 118.535 71.282, 119.799 69.230 C 123.004 64.031, 128.364 61.543, 133 63.105 C 134.925 63.753, 137.210 64.894, 138.079 65.642 C 140.059 67.345, 148.289 67.413, 151.264 65.750 C 159.288 61.265, 159.124 58.676, 150.548 54.480 C 147.543 53.009, 144.605 51.229, 144.020 50.524 C 143.434 49.818, 141.600 48.970, 139.943 48.639 C 138.286 48.307, 135.483 46.677, 133.715 45.015 C 131.947 43.354, 129.600 41.735, 128.500 41.418 C 123.303 39.919, 115.364 36.325, 113.771 34.750 C 112.797 33.788, 110.875 33, 109.500 33 C 107.944 33, 107 32.433, 107 31.500 C 107 30.675, 106.325 30, 105.500 30 C 104.675 30, 104 29.648, 104 29.218 C 104 27.685, 94.669 19.001, 93.099 19.073 C 92.219 19.113, 90.150 19.935, 88.500 20.900 M 104 32.059 C 104 32.641, 104.450 32.840, 105 32.500 C 105.550 32.160, 106 31.684, 106 31.441 C 106 31.198, 105.550 31, 105 31 C 104.450 31, 104 31.477, 104 32.059 M 93.791 35.809 C 91.607 36.692, 86.899 43.027, 87.592 44.149 C 87.881 44.617, 87.341 45, 86.392 45 C 85.443 45, 84.945 45.279, 85.286 45.619 C 86.054 46.387, 83.543 49, 82.036 49 C 78.830 49, 74.314 53.772, 73.495 58.026 C 73.152 59.806, 73.688 59.889, 82.315 59.383 C 92.790 58.768, 101.829 58.312, 107.179 58.127 C 111.414 57.981, 114 55.867, 114 52.550 C 114 50.782, 112.257 49.103, 106.545 45.371 C 100.990 41.741, 99.016 39.865, 98.795 38.009 C 98.488 35.413, 96.706 34.629, 93.791 35.809 M 73.250 61.689 C 74.213 61.941, 75.787 61.941, 76.750 61.689 C 77.713 61.438, 76.925 61.232, 75 61.232 C 73.075 61.232, 72.287 61.438, 73.250 61.689 M 71.603 63.833 C 71.320 64.292, 71.743 64.667, 72.544 64.667 C 73.345 64.667, 74 64.292, 74 63.833 C 74 63.375, 73.577 63, 73.059 63 C 72.541 63, 71.886 63.375, 71.603 63.833 M 70.921 79.109 C 70.172 80.149, 68.983 81, 68.279 81 C 67.576 81, 67 81.426, 67 81.948 C 67 82.469, 64.684 83.031, 61.853 83.198 C 55.515 83.570, 53.700 85.592, 56.010 89.709 C 59.218 95.426, 68.767 98.205, 78.313 96.200 C 95.269 92.638, 97.902 92.318, 103.706 93.111 C 106.993 93.561, 110.853 94.374, 112.285 94.918 C 114.567 95.786, 114.784 96.251, 114.048 98.704 C 112.460 103.994, 111.891 104.700, 107.410 106.938 C 103.511 108.885, 101.411 109.173, 91.540 109.114 C 78.017 109.034, 75.995 109.996, 75.538 116.729 C 75.280 120.534, 75.525 121.017, 78.378 122.328 C 80.095 123.117, 83.278 124.078, 85.450 124.464 C 89.787 125.234, 91.919 127.291, 91.968 130.750 C 91.986 131.988, 92.450 133, 93 133 C 93.550 133, 94 133.650, 94 134.445 C 94 135.240, 95.047 136.478, 96.328 137.195 C 97.608 137.913, 100.846 139.963, 103.524 141.750 C 107.487 144.396, 109.377 145, 113.696 145 C 116.613 145, 119.048 144.662, 119.107 144.250 C 119.166 143.838, 119.309 141.813, 119.426 139.750 C 119.608 136.507, 119.344 136, 117.473 136 C 114.384 136, 111.991 132.895, 111.603 128.386 C 111.239 124.150, 112.373 121.015, 114.285 120.973 C 114.953 120.958, 116.603 119.158, 117.951 116.973 C 119.339 114.723, 121.182 113, 122.201 113 C 123.190 113, 123.893 112.662, 123.762 112.250 C 123.290 110.762, 126.272 105, 127.514 105 C 128.214 105, 129.045 104.325, 129.362 103.500 C 129.678 102.675, 129.486 102, 128.933 102 C 128.289 102, 128.318 101.275, 129.015 99.972 C 129.612 98.857, 130.497 98.189, 130.981 98.488 C 131.465 98.788, 132.144 98.575, 132.490 98.016 C 132.835 97.457, 134.588 97, 136.385 97 C 139.520 97, 144 93.720, 144 91.425 C 144 89.986, 139.296 85.224, 137.281 84.624 C 127.681 81.764, 120.298 80.842, 107.868 80.950 C 100.371 81.016, 93.396 81.226, 92.368 81.417 C 82.438 83.264, 82.188 83.245, 78.422 80.373 C 73.894 76.919, 72.651 76.709, 70.921 79.109" stroke="none" fill="black" fill-rule="evenodd"/>
</svg>