<svg xmlns="http://www.w3.org/2000/svg" width="256" height="256" viewBox="0 0 256 256" version="1.1">
	<path d="M 86.500 28.166 C 76.050 28.538, 64.800 29.325, 61.500 29.915 C 58.200 30.506, 51.877 30.991, 47.450 30.994 C 42.530 30.998, 38.933 31.467, 38.200 32.200 C 36.035 34.365, 36.751 40.842, 39.455 43.545 C 42.488 46.579, 47.478 46.735, 66.078 44.377 C 80.585 42.539, 85.098 42.975, 87.365 46.435 C 88.719 48.501, 88.732 48.889, 87.462 49.376 C 86.299 49.823, 86 52.243, 86 61.225 C 86 67.434, 86.437 74.038, 86.972 75.902 C 87.604 78.107, 87.598 80.829, 86.955 83.700 C 86.153 87.280, 86.257 88.399, 87.507 89.650 C 88.354 90.497, 89.697 92.448, 90.493 93.986 C 91.812 96.538, 91.780 96.824, 90.121 97.258 C 87.850 97.852, 86.603 103.392, 88.174 105.907 C 89.048 107.307, 88.897 110.040, 87.525 117.616 C 84.649 133.500, 84.593 135.287, 86.829 139.614 C 91.062 147.803, 100.249 151.694, 104.268 147 C 105.210 145.900, 106.871 145, 107.959 145 C 110.932 145, 109.390 142.244, 105.999 141.500 C 103.527 140.957, 103.201 140.470, 103.442 137.689 C 103.594 135.935, 103.281 133.943, 102.747 133.263 C 102.213 132.582, 102.120 131.232, 102.539 130.263 C 103.734 127.502, 103.896 126, 102.998 126 C 102.545 126, 102.151 123.075, 102.124 119.500 C 102.096 115.808, 102.505 113, 103.072 113 C 103.676 113, 103.595 112.111, 102.868 110.752 C 101.692 108.555, 101.300 106.334, 101.099 100.729 C 101.030 98.798, 100.241 97.612, 98.500 96.818 C 96.028 95.692, 95.012 93, 97.059 93 C 97.641 93, 97.849 92.565, 97.520 92.033 C 97.191 91.501, 97.795 90.520, 98.861 89.854 C 99.928 89.188, 100.555 88.003, 100.255 87.221 C 99.411 85.023, 101.997 83.966, 107.736 84.162 C 111.780 84.300, 113.470 84.871, 115.160 86.671 C 116.364 87.952, 118.200 89, 119.240 89 C 120.280 89, 122.089 89.512, 123.259 90.139 C 126.202 91.714, 133 98.108, 133 99.300 C 133 100.861, 136.290 102.934, 138.821 102.968 C 141.265 103.002, 143.289 101.409, 143.812 99.040 C 143.984 98.262, 144.939 96.920, 145.935 96.056 C 147.322 94.854, 147.467 94.226, 146.556 93.375 C 145.902 92.764, 145.465 90.855, 145.584 89.132 C 145.710 87.314, 145.318 85.998, 144.650 85.995 C 144.018 85.993, 142.145 84.721, 140.489 83.168 C 137.769 80.618, 136.127 79.985, 128.095 78.384 C 124.216 77.611, 122.352 76.258, 121.076 73.288 C 119.305 69.165, 113.405 65.689, 107.091 65.049 C 101.410 64.472, 101.334 64.391, 100.492 58 C 100.311 56.625, 100.126 54.248, 100.081 52.718 C 100.026 50.816, 99.288 49.645, 97.750 49.019 L 95.500 48.102 97.750 47.434 C 98.987 47.067, 100 46.369, 100 45.883 C 100 45.398, 100.873 45, 101.941 45 C 103.009 45, 104.160 44.550, 104.500 44 C 104.882 43.382, 113.524 43, 127.101 43 C 147.785 43, 149.212 42.880, 151.255 40.977 C 154.080 38.345, 154.226 34.546, 151.594 32.146 C 149.817 30.525, 147.381 30.150, 135.500 29.668 C 127.800 29.356, 120.150 28.860, 118.500 28.568 C 112.934 27.580, 105.579 27.488, 86.500 28.166 M 110.269 128.693 C 111.242 128.947, 112.592 128.930, 113.269 128.656 C 113.946 128.382, 113.150 128.175, 111.500 128.195 C 109.850 128.215, 109.296 128.439, 110.269 128.693" stroke="none" fill="black" fill-rule="evenodd"/>
</svg>