<svg xmlns="http://www.w3.org/2000/svg" width="256" height="256" viewBox="0 0 256 256" version="1.1">
	<path d="M 78.248 25.788 C 77.009 25.981, 75.553 26.966, 75.013 27.976 C 72.552 32.575, 71.280 62.782, 73.363 67.176 C 74.814 70.238, 69.764 72.375, 60.358 72.678 C 45.987 73.141, 37 77.155, 37 83.112 C 37 88.230, 49.492 90.145, 62.447 87.013 C 76.028 83.730, 76.814 84.934, 76.463 108.500 C 76.269 121.475, 76.496 124.040, 78.142 127.500 C 82.232 136.096, 83.010 136.909, 92.842 142.861 C 98.816 146.477, 104.695 147.436, 127.091 148.447 C 139.057 148.986, 139.852 148.901, 143.091 146.718 C 147.820 143.531, 147.824 139.472, 143.102 136.290 C 140.328 134.421, 138.308 133.989, 132.102 133.942 C 117.969 133.835, 102.527 132.290, 97.444 130.474 C 89.468 127.626, 88.110 123.011, 87.717 97.420 C 87.578 88.386, 87.867 85.851, 89.283 83.691 C 90.845 81.306, 91.452 81.100, 95.340 81.633 C 97.764 81.965, 103.357 81.527, 108.081 80.635 C 119.410 78.495, 123.260 77.968, 131.500 77.428 C 139.161 76.926, 140.786 76.562, 146 74.177 C 151.012 71.884, 153.922 68.393, 153.441 65.250 C 153.336 64.563, 153.194 63.619, 153.125 63.153 C 153.056 62.687, 152.147 61.322, 151.104 60.120 C 149.135 57.850, 145.870 57.804, 140 59.966 C 134.614 61.950, 125.724 63.102, 115.067 63.198 C 104.573 63.292, 103.654 63.468, 99.352 66.196 C 96.839 67.789, 93.483 69.353, 91.894 69.671 C 87.184 70.613, 86.239 68.973, 86.756 60.752 C 87.007 56.763, 86.663 50.800, 85.991 47.500 C 84.534 40.339, 84.494 39.581, 85.332 34.776 C 86.455 28.332, 83.771 24.926, 78.248 25.788" stroke="none" fill="black" fill-rule="evenodd"/>
</svg>