<svg xmlns="http://www.w3.org/2000/svg" width="256" height="256" viewBox="0 0 256 256" version="1.1">
	<path d="M 96.507 28.993 C 95.200 30.436, 94.616 32.985, 94.385 38.243 C 93.844 50.544, 93.330 54.099, 91.883 55.545 C 90.362 57.067, 79.312 58.949, 71.718 58.980 C 67.667 58.997, 66.806 58.656, 66.086 56.750 C 65.616 55.504, 65.622 53.762, 66.101 52.848 C 66.576 51.939, 67.167 49.237, 67.414 46.844 C 67.661 44.450, 68.344 41.227, 68.931 39.681 C 70.346 35.959, 70.287 31.687, 68.800 30.200 C 67.347 28.747, 61.572 28.624, 59.016 29.992 C 56.934 31.106, 55.576 35.813, 55.878 40.873 C 56.119 44.906, 53.685 52.552, 51.083 55.937 C 49.660 57.788, 48.164 58.416, 44.855 58.551 C 37.638 58.846, 37.202 58.941, 35.571 60.571 C 33.553 62.590, 33.548 67.844, 35.564 70.071 C 36.802 71.439, 38.313 71.708, 42.814 71.361 C 46.732 71.060, 49.041 71.356, 50.240 72.314 C 52.653 74.244, 54.046 85.605, 53.759 101 C 53.630 107.875, 53.710 118.648, 53.935 124.941 C 54.281 134.596, 54.659 136.742, 56.353 138.691 C 57.457 139.961, 58.870 141, 59.493 141 C 60.116 141, 63.072 142.237, 66.063 143.750 L 71.500 146.499 107 146.629 C 126.525 146.700, 144.525 146.336, 147 145.819 C 152.839 144.600, 156 141.629, 156 137.361 C 156 131.767, 156.257 131.809, 123.500 132.108 C 118 132.158, 110.800 132.166, 107.500 132.124 C 104.200 132.083, 99.925 132.227, 98 132.444 C 89.077 133.451, 67.163 134.070, 66.716 133.329 C 65.752 131.728, 65.617 88.419, 66.553 81.083 L 67.500 73.666 75 71.849 C 83.965 69.678, 89.947 69.510, 92.474 71.357 C 94.722 73.001, 94.937 76.471, 93.937 94.973 L 93.209 108.447 95.855 110.749 C 99.537 113.954, 102.112 114.509, 113 114.442 C 124.400 114.372, 135.258 112.716, 138.577 110.541 C 140.860 109.045, 141.002 108.394, 141.042 99.227 C 141.085 89.525, 142.866 74.488, 144.221 72.398 C 144.614 71.791, 147.961 71.013, 151.659 70.667 C 157.007 70.168, 159.112 69.451, 161.942 67.168 C 163.899 65.588, 165.649 63.293, 165.830 62.067 C 166.405 58.190, 163.433 56.991, 153.730 57.185 C 148.721 57.285, 144.512 56.912, 143.915 56.315 C 142.966 55.366, 142.606 51.570, 142.155 37.750 C 141.972 32.148, 139.453 29, 135.155 29 C 129.622 29, 128.645 31.562, 129.264 44.442 C 129.652 52.521, 129.473 56.182, 128.658 56.836 C 126.994 58.169, 113.199 58.894, 109.408 57.847 C 107.643 57.360, 105.973 56.372, 105.697 55.652 C 105.222 54.414, 106.038 45.709, 107.519 36.217 C 108.426 30.404, 106.251 27, 101.632 27 C 99.584 27, 97.618 27.764, 96.507 28.993 M 117.500 71.181 C 115.850 71.779, 113.941 72.711, 113.257 73.251 C 112.181 74.101, 110.238 79.464, 109.398 83.900 C 109.252 84.670, 108.766 85.570, 108.316 85.900 C 107.302 86.646, 106.885 88.183, 106.009 94.409 C 105.440 98.446, 105.645 99.645, 107.159 101.159 C 109.318 103.318, 109.450 103.323, 118.321 101.607 C 122.072 100.881, 125.826 99.602, 126.663 98.766 C 128.951 96.477, 130.837 74.394, 128.904 72.513 C 126.922 70.583, 121.044 69.897, 117.500 71.181" stroke="none" fill="black" fill-rule="evenodd"/>
</svg>