<svg xmlns="http://www.w3.org/2000/svg" width="256" height="256" viewBox="0 0 256 256" version="1.1">
	<path d="M 90.732 20.536 C 87.305 22.865, 87 23.459, 87 27.809 C 87 32.202, 87.255 32.683, 90.524 34.443 C 94.780 36.735, 95.984 40.255, 93.464 43.040 C 92.039 44.614, 90.374 45, 85.012 45 C 81.339 45, 75.736 45.522, 72.562 46.159 C 68.135 47.048, 64.620 47.034, 57.474 46.099 C 42.247 44.107, 35.790 47.251, 39.032 55.078 C 41.335 60.637, 44.703 61.309, 66.474 60.556 C 76.938 60.194, 90.809 59.179, 97.298 58.301 C 111.114 56.430, 116.789 57.225, 123.900 62.028 L 128.301 65 123.644 65 C 119.836 65, 118.578 65.484, 116.743 67.652 C 115.510 69.110, 113.487 71.426, 112.250 72.798 C 111.013 74.170, 110 76.576, 110 78.146 C 110 79.911, 109.471 81, 108.615 81 C 107.853 81, 106.537 82.013, 105.691 83.250 C 104.844 84.487, 102.950 86.850, 101.482 88.500 C 100.013 90.150, 98.199 92.677, 97.449 94.116 C 96.620 95.710, 94.932 96.964, 93.132 97.324 C 91.313 97.687, 87.271 100.719, 82.620 105.207 C 75.208 112.361, 65.879 120.011, 63.362 121 C 62.662 121.275, 60.382 123.097, 58.295 125.048 C 55.676 127.496, 52.841 128.971, 49.145 129.805 C 41.613 131.505, 38 134.289, 38 138.394 C 38 142.119, 41.422 146, 44.706 146 C 45.849 146, 48.970 144.067, 51.642 141.704 C 61.686 132.823, 64.016 131.904, 67.090 135.608 C 67.729 136.378, 70.054 137, 72.294 137 C 74.521 137, 77.053 137.636, 77.921 138.413 C 79.514 139.839, 88.938 143.540, 94.524 144.933 C 96.186 145.348, 98.474 146.183, 99.606 146.789 C 105.274 149.823, 137.921 150.953, 147.535 148.449 C 158.630 145.559, 161.055 142.954, 158.893 136.250 C 157.972 133.396, 157.416 133, 154.317 133 C 152.376 133, 148.229 133.663, 145.101 134.474 C 137.829 136.358, 126.136 136.837, 125.179 135.290 C 124.789 134.659, 121.552 133.876, 117.985 133.550 C 114.418 133.224, 109.721 132.341, 107.546 131.588 C 103.413 130.156, 101.497 130.144, 88.714 131.473 C 81.786 132.193, 80.781 132.082, 79.600 130.467 C 78.471 128.923, 78.566 128.154, 80.240 125.318 C 81.322 123.484, 82.775 121.650, 83.468 121.242 C 84.162 120.834, 85.466 119.058, 86.366 117.296 C 87.312 115.445, 89.587 113.349, 91.752 112.333 C 93.813 111.366, 96.850 109.322, 98.500 107.792 C 100.150 106.261, 101.972 105.007, 102.549 105.005 C 103.126 105.002, 104.167 103.426, 104.863 101.503 C 105.699 99.191, 106.952 97.799, 108.564 97.395 C 109.904 97.058, 111 96.451, 111 96.045 C 111 94.634, 114.518 91.287, 117.750 89.622 C 119.537 88.702, 121 87.511, 121 86.977 C 121 86.443, 122.510 84.317, 124.356 82.253 C 126.201 80.189, 128.251 77.471, 128.910 76.214 C 129.569 74.957, 131.400 73.670, 132.979 73.354 C 135.752 72.800, 138.333 68.961, 138.333 65.391 C 138.333 64.626, 138.756 64, 139.272 64 C 139.789 64, 141.473 62.987, 143.016 61.750 C 144.558 60.512, 146.817 58.741, 148.035 57.814 C 150.855 55.666, 150.157 52.311, 146.030 48.184 C 141.986 44.140, 135.463 42.753, 122.422 43.163 C 113.685 43.439, 111.599 43.226, 110.989 42 C 110.578 41.175, 109.520 38.813, 108.638 36.750 C 107.607 34.342, 106.369 33, 105.178 33 C 103.754 33, 103.294 32.195, 103.193 29.526 C 103.040 25.449, 98.456 18, 96.099 18 C 95.200 18, 92.785 19.141, 90.732 20.536" stroke="none" fill="black" fill-rule="evenodd"/>
</svg>