<svg xmlns="http://www.w3.org/2000/svg" width="256" height="256" viewBox="0 0 256 256" version="1.1">
	<path d="M 96.393 22.157 C 92.836 23.881, 91.094 28.949, 91.713 35.776 C 92.219 41.354, 92.055 42.036, 89.613 44.478 C 87.276 46.815, 86.226 47.113, 80.731 47.004 C 77.304 46.935, 67.834 47.198, 59.687 47.589 L 44.874 48.298 42.214 51.786 L 39.555 55.273 39.688 79.689 L 39.822 104.105 42.412 106.506 C 46.726 110.504, 50.938 111.083, 66.470 109.814 C 82.038 108.542, 88.302 109.107, 91.937 112.110 C 94.294 114.057, 94.335 114.313, 93.187 119.872 C 92.534 123.034, 92 129.660, 92 134.598 C 92 141.920, 92.415 144.399, 94.250 148.038 C 96.131 151.769, 97.032 152.551, 99.743 152.813 C 102.501 153.079, 103.152 152.705, 104.100 150.313 C 104.714 148.766, 105.622 146.711, 106.119 145.746 C 106.616 144.781, 106.769 142.306, 106.460 140.246 C 106.152 138.186, 105.754 132.900, 105.577 128.500 C 105.400 124.100, 104.930 118.915, 104.534 116.977 C 103.980 114.272, 104.240 112.935, 105.656 111.220 C 107.423 109.080, 108.377 108.960, 128.500 108.342 C 153.186 107.584, 155.945 106.823, 155.214 100.971 C 154.569 95.809, 154.653 93.431, 155.846 83 C 156.753 75.080, 156.775 60.523, 155.890 55.144 C 155.767 54.399, 154.279 52.326, 152.583 50.538 L 149.500 47.286 134.471 46.579 C 126.205 46.191, 117.156 46.176, 114.361 46.546 C 111.071 46.983, 108.486 46.795, 107.027 46.014 C 104.862 44.856, 104.800 44.454, 105.450 35.917 C 106.025 28.377, 105.858 26.568, 104.349 24.013 C 102.486 20.861, 100.178 20.322, 96.393 22.157 M 63.500 61.579 C 53.265 63.154, 50.994 64.798, 51.548 70.229 C 51.732 72.028, 52.149 77.271, 52.475 81.880 C 53.392 94.834, 54.054 95.404, 68.500 95.659 C 73.450 95.747, 80.011 96.122, 83.081 96.492 C 88.414 97.136, 88.743 97.041, 90.491 94.373 C 92.625 91.116, 93.192 88.216, 92.910 82 C 92.693 77.199, 92.763 73.877, 93.217 67.538 C 93.492 63.685, 93.377 63.529, 89 61.843 C 83.618 59.769, 75.786 59.688, 63.500 61.579 M 111.500 61.145 C 106.300 63.093, 105.865 63.870, 106.033 70.924 C 106.119 74.541, 105.753 80.425, 105.219 84 C 104.471 89.018, 104.563 91.269, 105.624 93.870 L 106.998 97.240 112.749 96.660 C 115.912 96.341, 120.975 95.827, 124 95.518 C 131.392 94.762, 135.573 93.300, 138.743 90.363 C 141.118 88.162, 141.405 87.132, 141.572 80.207 C 141.674 75.968, 142.056 70.610, 142.420 68.300 C 143.011 64.549, 142.812 63.923, 140.563 62.449 C 137.390 60.370, 116.116 59.415, 111.500 61.145" stroke="none" fill="black" fill-rule="evenodd"/>
</svg>