<svg xmlns="http://www.w3.org/2000/svg" width="256" height="256" viewBox="0 0 256 256" version="1.1">
	<path d="M 74.500 29.288 C 69 29.811, 59.859 30.194, 54.186 30.139 C 44.522 30.044, 43.718 30.192, 41.436 32.473 C 38.544 35.366, 38.069 41.926, 40.571 44.429 C 42.264 46.121, 43.073 46.223, 53.077 46.014 C 61.818 45.832, 62.729 46.871, 61.211 55.300 C 60.597 58.710, 59.595 66.450, 58.985 72.500 C 57.713 85.123, 55.220 97, 53.843 97 C 52.662 97, 49.051 104.830, 49.022 107.456 C 49.010 108.532, 45.625 116.245, 41.500 124.597 C 33.888 140.007, 33.086 142.900, 35.161 147.453 C 37.137 151.790, 40.917 150.866, 46.605 144.655 C 53.691 136.917, 55 134.919, 55 131.841 C 55 130.327, 56.350 126.798, 58 124 C 59.650 121.202, 61 118.343, 61 117.647 C 61 116.951, 61.661 115.509, 62.468 114.441 C 63.276 113.374, 63.966 111.600, 64.002 110.500 C 64.038 109.400, 64.937 106.700, 66 104.500 C 67.063 102.300, 67.947 99.713, 67.966 98.750 C 67.985 97.787, 68.450 97, 69 97 C 69.550 97, 70.003 95.537, 70.006 93.750 C 70.009 91.963, 70.465 88.867, 71.019 86.872 C 71.960 83.483, 72.291 79.652, 73.502 58.118 C 74.021 48.903, 74.598 47.756, 80.143 44.927 C 83.257 43.338, 86.047 43, 96.026 43 C 110.676 43, 113.948 44.242, 113.985 49.816 C 113.993 51.089, 113.466 53.114, 112.813 54.316 C 112.160 55.517, 111.452 58.294, 111.240 60.486 C 111.028 62.678, 110.455 64.719, 109.966 65.021 C 108.510 65.921, 106 72.722, 106 75.768 C 106 77.326, 106.540 79.140, 107.200 79.800 C 108.133 80.733, 108.133 81, 107.200 81 C 106.540 81, 106 81.638, 106 82.417 C 106 83.196, 105.438 84.060, 104.750 84.338 C 104.063 84.615, 104.936 84.878, 106.691 84.921 C 108.446 84.964, 110.160 85.450, 110.500 86 C 110.840 86.550, 112.415 87, 114 87 C 115.585 87, 117.123 87.389, 117.417 87.865 C 117.938 88.709, 119.149 88.987, 131.413 91.085 C 134.665 91.641, 138.604 93.006, 140.165 94.118 C 142.690 95.916, 142.838 96.305, 141.502 97.641 C 140.676 98.467, 140 99.353, 140 99.611 C 140 102.413, 137.712 120.572, 136.915 124.095 C 135.474 130.464, 132.193 131.902, 117.289 132.701 C 102.710 133.482, 101.593 134.325, 107.106 140.383 C 114.983 149.039, 128.429 150.320, 140.406 143.556 C 150.065 138.101, 151.803 136.041, 151.268 130.682 C 150.988 127.873, 151.395 124.928, 152.351 122.842 C 154.008 119.226, 154.663 114.264, 155.629 98 C 156.932 76.040, 157.125 76.277, 140.989 80.031 C 127.979 83.057, 123.319 78.135, 125.343 63.505 C 125.646 61.307, 126.188 56.807, 126.547 53.505 C 126.905 50.202, 127.872 45.700, 128.694 43.500 C 131.215 36.760, 131.314 34.610, 129.227 32.032 C 127.364 29.731, 126.731 29.629, 112.894 29.397 C 104.977 29.265, 95.350 28.972, 91.500 28.746 C 87.650 28.520, 80 28.764, 74.500 29.288" stroke="none" fill="black" fill-rule="evenodd"/>
</svg>