<svg xmlns="http://www.w3.org/2000/svg" width="256" height="256" viewBox="0 0 256 256" version="1.1">
	<path d="M 64.223 25.944 C 62.450 27.563, 60.959 29.700, 60.909 30.694 C 60.808 32.719, 57.772 38.262, 50.752 49.237 C 47.717 53.984, 45.399 59.115, 44.325 63.466 C 42.869 69.365, 42.144 70.619, 38.878 72.886 C 34.874 75.664, 33.552 78.068, 32.492 84.500 C 32.129 86.700, 30.970 89.903, 29.916 91.618 C 27.168 96.091, 27.423 98, 30.770 98 C 32.905 98, 34.897 96.510, 39.462 91.500 C 42.719 87.925, 45.664 85, 46.007 85 C 46.349 85, 47.388 86.590, 48.315 88.534 C 49.498 91.015, 50.018 94.813, 50.062 101.284 C 50.096 106.353, 50.476 113.875, 50.907 118 C 51.431 123.017, 51.290 127.155, 50.483 130.500 C 48.594 138.323, 48.928 143.918, 51.625 149.648 C 54.263 155.252, 57.761 157.204, 60.846 154.793 C 63.155 152.988, 63.951 151.730, 63.375 150.798 C 63.104 150.359, 63.368 150, 63.963 150 C 64.716 150, 64.844 145.982, 64.386 136.750 C 64.025 129.463, 63.631 116.525, 63.511 108 C 63.129 80.735, 62.771 72, 62.037 72 C 61.643 72, 60.783 70.819, 60.126 69.376 C 59.166 67.270, 59.236 65.701, 60.478 61.427 C 61.330 58.498, 62.499 55.810, 63.077 55.453 C 63.654 55.096, 65.910 51.154, 68.090 46.695 C 70.269 42.235, 72.378 38.341, 72.776 38.043 C 74.307 36.895, 76 32.916, 76 30.466 C 76 27.639, 71.699 23, 69.077 23 C 68.180 23, 65.995 24.325, 64.223 25.944 M 116.142 28.613 C 113.961 30.141, 113.872 30.656, 114.459 38.363 C 115.243 48.666, 114.089 51.364, 108.704 51.812 C 106.641 51.983, 103.545 51.421, 101.823 50.562 C 97.387 48.349, 93.074 48.619, 86.772 51.504 C 77.646 55.682, 77.518 55.973, 77.380 72.855 C 77.301 82.535, 77.725 89.172, 78.630 92.432 C 79.384 95.144, 80 99.102, 80 101.227 C 80 103.996, 80.695 105.786, 82.455 107.545 C 85.329 110.420, 86.476 110.535, 91.479 108.444 C 94.246 107.288, 97.169 107.031, 102.852 107.445 C 109.425 107.923, 110.817 108.360, 112.751 110.558 C 114.863 112.956, 114.956 113.655, 114.251 121.807 C 113.838 126.588, 113.500 134.100, 113.500 138.500 C 113.500 145.265, 113.858 147.002, 115.818 149.750 C 117.644 152.310, 118.848 153, 121.491 153 C 124.398 153, 124.982 152.567, 125.870 149.750 C 128.337 141.934, 129.201 120.830, 127.282 115.306 C 126.317 112.530, 126.455 111.784, 128.336 109.614 C 130.315 107.330, 131.271 107.099, 139.500 106.919 C 144.450 106.810, 150.934 107.073, 153.909 107.503 C 161.029 108.532, 162.217 107.117, 161.407 98.571 C 161.036 94.654, 161.612 87.177, 163.031 77.500 C 165.429 61.151, 165.552 57.371, 163.761 55.212 C 161.405 52.373, 157.916 51.982, 144.231 53.020 C 127.258 54.309, 127.686 54.596, 127.459 41.776 C 127.261 30.523, 127.466 31.512, 124.811 29.039 C 122.175 26.583, 119.246 26.439, 116.142 28.613 M 92.001 67.996 C 91.212 70.928, 91.232 72.565, 92.078 74.146 C 92.766 75.432, 92.983 78.109, 92.615 80.792 C 91.328 90.179, 93.861 93.942, 101.500 93.993 C 103.150 94.003, 105.751 94.665, 107.281 95.463 C 110.042 96.903, 112.886 96.565, 114.170 94.644 C 114.538 94.093, 114.885 87.443, 114.940 79.867 C 115.061 63.443, 115.512 64, 102.104 64 L 93.077 64 92.001 67.996 M 133.500 65.892 L 129.500 66.500 129.292 74 C 128.693 95.580, 128.531 95.075, 135.464 93.221 C 137.912 92.566, 140.563 92.279, 141.356 92.583 C 144.225 93.684, 146.593 89.253, 148.309 79.567 C 149.939 70.368, 149.774 67.272, 147.573 65.765 C 146.352 64.929, 139.424 64.991, 133.500 65.892" stroke="none" fill="black" fill-rule="evenodd"/>
</svg>