<svg xmlns="http://www.w3.org/2000/svg" width="256" height="256" viewBox="0 0 256 256" version="1.1">
	<path d="M 73.640 28.250 C 72.867 29.488, 71.699 35.443, 71.046 41.485 C 70.388 47.570, 69.332 52.804, 68.679 53.219 C 68.031 53.632, 62.505 53.976, 56.399 53.985 C 50.294 53.993, 43.879 54.495, 42.143 55.100 C 38.262 56.453, 37.260 59.669, 39.420 63.846 C 41.676 68.209, 45.928 69.145, 56.433 67.592 C 64.526 66.395, 67.444 66.754, 69.046 69.143 C 69.868 70.370, 69.359 78.288, 68.211 82.119 C 67.655 83.979, 66.470 88.619, 65.579 92.432 C 64.688 96.245, 62.924 100.745, 61.659 102.432 C 60.394 104.119, 58.364 107.584, 57.147 110.132 C 55.931 112.679, 53.817 116.054, 52.448 117.632 C 51.080 119.209, 49.458 122.152, 48.845 124.171 C 48.232 126.191, 45.753 130.241, 43.336 133.171 C 38.054 139.577, 37.228 142.173, 39.413 145.507 C 41.311 148.405, 43.840 148.651, 48.251 146.370 C 52.537 144.154, 53.497 143.054, 54.927 138.722 C 55.602 136.675, 56.597 135, 57.137 135 C 57.676 135, 57.891 134.632, 57.613 134.182 C 57.334 133.732, 58.095 132.270, 59.304 130.932 C 60.512 129.594, 62.136 127.268, 62.913 125.762 C 63.690 124.256, 65.526 122.492, 66.993 121.843 C 68.461 121.193, 70.253 119.275, 70.976 117.581 C 71.700 115.886, 72.910 113.779, 73.667 112.898 C 74.424 112.016, 75.661 108.416, 76.417 104.898 C 77.173 101.379, 78.044 97.825, 78.353 97 C 78.662 96.175, 79.148 92.634, 79.434 89.130 C 79.720 85.627, 80.355 82.252, 80.845 81.630 C 81.336 81.009, 81.766 79.035, 81.802 77.245 C 81.837 75.455, 82.572 73.286, 83.433 72.424 C 84.295 71.562, 85 70.506, 85 70.078 C 85 69.649, 91.862 69.344, 100.250 69.399 L 115.500 69.500 115.624 91.500 C 115.693 103.600, 116.221 115.750, 116.798 118.500 C 117.376 121.250, 118.128 125.593, 118.470 128.150 C 119.111 132.941, 121.684 136.983, 124.117 137.022 C 124.878 137.034, 126.625 137.924, 128 139 C 129.375 140.076, 130.922 140.966, 131.438 140.978 C 131.954 140.990, 133.996 142.845, 135.976 145.099 C 138.978 148.515, 140.352 149.285, 144.226 149.722 C 151.164 150.504, 157.589 149.217, 160.976 146.366 C 164.240 143.620, 165.752 139.233, 167.653 126.998 C 168.100 124.121, 167.680 122.904, 165.300 120.179 C 162.995 117.538, 161.903 116.990, 159.952 117.493 C 155.455 118.652, 150.038 124.835, 148.995 130 C 148.551 132.194, 147.899 132.538, 143.665 132.808 C 139.774 133.057, 138.212 132.636, 135.587 130.634 C 133.798 129.269, 132.264 127.556, 132.179 126.826 C 132.094 126.097, 131.737 123.475, 131.386 121 C 131.035 118.525, 130.692 104.202, 130.624 89.172 L 130.500 61.843 127.797 59.872 C 124.909 57.767, 110.276 56.049, 94.941 56.016 C 83.873 55.992, 83.695 55.767, 83.808 41.909 C 83.918 28.415, 83.090 26, 78.354 26 C 76.007 26, 74.638 26.653, 73.640 28.250" stroke="none" fill="black" fill-rule="evenodd"/>
</svg>