<svg xmlns="http://www.w3.org/2000/svg" width="256" height="256" viewBox="0 0 256 256" version="1.1">
	<path d="M 68.500 28.044 C 66.300 28.547, 59.686 28.969, 53.802 28.984 C 47.917 28.998, 41.899 29.468, 40.427 30.028 C 37.938 30.974, 37.798 31.339, 38.423 35.272 C 39.294 40.758, 42.902 44, 48.135 44 C 50.238 44, 58.790 43.502, 67.138 42.892 C 84.722 41.609, 90 42.479, 90 46.660 C 90 47.947, 89.550 49, 89 49 C 88.450 49, 88 49.816, 88 50.813 C 88 51.810, 86.650 53.919, 85 55.500 C 83.350 57.081, 81.993 59.302, 81.985 60.437 C 81.965 63.154, 81.062 64.294, 77.798 65.727 C 76.312 66.379, 74.388 68.283, 73.522 69.957 C 72.657 71.630, 71.524 73, 71.004 73 C 70.485 73, 69.034 74.800, 67.780 77.001 C 66.526 79.202, 64.825 81.243, 64 81.537 C 63.175 81.831, 60.475 84.703, 58 87.919 C 55.525 91.136, 51.925 94.810, 50 96.084 C 48.075 97.358, 45.270 99.680, 43.766 101.245 L 41.032 104.088 44.126 107.489 C 51.393 115.475, 59.818 111.854, 66.999 97.658 C 67.790 96.095, 69.935 93.620, 71.766 92.158 C 76.120 88.682, 78.735 86.117, 83 81.140 C 86.971 76.506, 90.047 75.908, 94 79 L 96.500 80.956 93.321 80.978 C 91.573 80.990, 89.493 81.650, 88.699 82.444 C 86.990 84.152, 87.619 89, 89.549 89 C 91.427 89, 92.306 92.560, 91.021 94.961 C 90.421 96.082, 89.680 103.861, 89.373 112.249 C 88.592 133.632, 88.630 136.150, 89.749 136.867 C 90.293 137.215, 91.913 139.831, 93.350 142.679 C 96.262 148.452, 96.511 148.691, 100.376 149.392 C 102.245 149.731, 103.728 149.272, 105.056 147.944 C 106.125 146.875, 107.450 146, 108 146 C 109.488 146, 109.198 141.904, 107.476 138.601 C 106.645 137.007, 106.193 135.473, 106.473 135.193 C 106.754 134.913, 106.552 134.165, 106.025 133.530 C 104.423 131.599, 103.588 118.883, 103.874 100.750 C 103.961 95.274, 103.764 94, 102.833 94 C 102.375 94, 102 92.875, 102 91.500 C 102 90.125, 102.450 89, 103 89 C 103.550 89, 103.902 88.662, 103.782 88.250 C 103.663 87.838, 104.089 86.037, 104.730 84.250 C 105.831 81.182, 106.171 81, 110.813 81 C 115.666 81, 117.693 82.001, 123.439 87.234 C 124.505 88.205, 126.345 89, 127.528 89 C 130.056 89, 136.191 95.329, 135.483 97.207 C 134.201 100.611, 140.491 106.148, 149.500 109.546 C 155.106 111.661, 158.853 110.040, 159.621 105.168 C 159.996 102.785, 159.672 102.031, 158.047 101.515 C 156.921 101.158, 156 100.276, 156 99.555 C 156 98.834, 155.314 97.676, 154.476 96.980 C 153.638 96.284, 153.150 95.517, 153.393 95.274 C 153.635 95.032, 152.926 93.926, 151.817 92.817 C 150.406 91.406, 150.116 90.484, 150.851 89.749 C 151.587 89.013, 150.639 88.020, 147.701 86.444 C 144.664 84.815, 143.534 83.600, 143.623 82.056 C 143.691 80.882, 143.521 80.146, 143.246 80.420 C 142.971 80.695, 141.476 80.263, 139.923 79.460 C 138.370 78.657, 135.128 78, 132.719 78 C 128.324 78, 126.650 76.567, 125.778 72.060 C 125.625 71.268, 124.381 69.320, 123.014 67.731 C 120.413 64.707, 118.939 64.570, 107.359 66.274 C 102.542 66.983, 100.403 63.603, 102.392 58.422 C 102.692 57.640, 103.545 57, 104.287 57 C 105.714 57, 106.079 50.746, 104.732 49.398 C 104.339 49.005, 104.519 48.080, 105.131 47.342 C 105.744 46.604, 105.852 45.997, 105.372 45.994 C 104.893 45.990, 105.850 45.246, 107.500 44.339 C 109.889 43.026, 113.961 42.635, 127.500 42.419 C 136.850 42.270, 144.613 42.059, 144.750 41.949 C 145.147 41.633, 146.867 41.261, 148.559 41.125 C 149.416 41.056, 149.840 40.550, 149.500 40 C 149.160 39.450, 149.696 38.993, 150.691 38.985 C 152.225 38.972, 152.272 38.822, 151 38 C 150 37.354, 149.917 37.026, 150.750 37.015 C 152.245 36.997, 151.989 35.073, 150.241 33.193 C 149.548 32.448, 149.208 31.473, 149.484 31.026 C 150.296 29.711, 145.105 28.680, 136 28.348 C 110.687 27.424, 71.978 27.250, 68.500 28.044 M 112.624 163.799 C 111.799 165.134, 114.958 165.791, 118 164.918 C 119.375 164.523, 119.825 164.148, 119 164.086 C 118.175 164.024, 116.538 163.715, 115.363 163.399 C 114.187 163.084, 112.955 163.264, 112.624 163.799" stroke="none" fill="black" fill-rule="evenodd"/>
</svg>