<svg xmlns="http://www.w3.org/2000/svg" width="256" height="256" viewBox="0 0 256 256" version="1.1">
	<path d="M 73 35.195 C 62.275 35.588, 52.034 36.176, 50.242 36.502 C 43.526 37.722, 42.277 45.541, 48.301 48.656 C 50.662 49.877, 52.650 50.065, 56.934 49.474 C 64.871 48.380, 79.254 48.902, 80.732 50.338 C 82.344 51.905, 79.671 74.757, 77.638 76.791 C 76.889 77.540, 73.055 78.557, 69.119 79.051 C 60.510 80.132, 58.233 81.223, 57.365 84.684 C 56.485 88.186, 57.988 90.301, 62.104 91.353 C 63.972 91.830, 68.282 93.098, 71.681 94.169 C 78.227 96.232, 78.662 97.025, 75.992 102.014 C 75.361 103.193, 73.997 109.598, 72.962 116.246 C 71.888 123.137, 70.524 128.685, 69.789 129.151 C 69.080 129.601, 65.350 130.007, 61.500 130.052 C 46.041 130.236, 44.345 130.500, 40.690 133.288 C 36.778 136.271, 36.673 138.728, 40.285 142.721 C 44.466 147.343, 54.652 148.133, 63.327 144.508 C 65.312 143.679, 68.638 143.007, 70.718 143.015 C 74.393 143.030, 81.263 144.930, 82.648 146.315 C 83.025 146.692, 86.746 146.962, 90.917 146.916 C 98.296 146.834, 102.566 146.357, 116 144.114 C 126.899 142.294, 128.288 142.264, 134.500 143.711 C 141.609 145.366, 150.961 145.158, 152.831 143.302 C 153.562 142.576, 154.644 142.280, 155.235 142.645 C 155.830 143.013, 156.022 142.845, 155.666 142.268 C 155.312 141.695, 155.623 140.728, 156.357 140.119 C 157.091 139.509, 157.626 137.772, 157.545 136.259 C 157.230 130.367, 145.009 127.009, 136.627 130.511 C 134.637 131.343, 132.852 131.905, 132.658 131.761 C 132.465 131.618, 131.529 132.146, 130.577 132.936 C 129.108 134.156, 128.719 134.163, 127.990 132.983 C 127.518 132.220, 127.354 131.237, 127.625 130.798 C 127.896 130.359, 127.594 130, 126.954 130 C 126.160 130, 125.975 128.650, 126.373 125.750 C 126.694 123.412, 127.205 118.350, 127.509 114.500 C 127.812 110.650, 128.345 106.825, 128.694 106 C 129.042 105.175, 129.422 101.912, 129.539 98.750 C 129.849 90.302, 129.922 89.834, 130.831 90.395 C 131.288 90.678, 131.760 88.479, 131.880 85.510 C 132.194 77.749, 130.569 76.896, 114.417 76.337 C 106.381 76.059, 100.558 76.321, 98.312 77.062 C 95.374 78.032, 94.535 77.963, 93.218 76.646 C 91.852 75.281, 91.799 74.213, 92.821 68.670 C 93.469 65.150, 94 60.029, 94 57.290 C 94 48.847, 95.072 48.563, 126.500 48.668 C 140.318 48.714, 141.638 48.560, 143.250 46.706 C 144.213 45.599, 145.052 44.200, 145.115 43.597 C 145.404 40.846, 144.736 38.407, 143.410 37.377 C 140.676 35.252, 103.165 34.090, 73 35.195 M 92.945 93.192 C 91.085 94.816, 89.004 96.458, 88.323 96.839 C 87.641 97.221, 86.841 99.776, 86.546 102.517 C 86.251 105.257, 85.677 110.425, 85.270 114 C 84.090 124.371, 84.331 129.956, 86.008 131.104 C 88.121 132.550, 104.741 131.424, 109.279 129.528 C 111.946 128.414, 113.022 127.339, 113.077 125.737 C 113.119 124.506, 113.348 122.600, 113.585 121.500 C 113.823 120.400, 114.269 115.900, 114.577 111.500 C 114.885 107.100, 115.498 101.859, 115.939 99.854 C 116.596 96.867, 116.355 95.724, 114.607 93.532 C 112.659 91.088, 111.774 90.830, 104.401 90.547 C 96.686 90.252, 96.178 90.369, 92.945 93.192" stroke="none" fill="black" fill-rule="evenodd"/>
</svg>