<svg xmlns="http://www.w3.org/2000/svg" width="256" height="256" viewBox="0 0 256 256" version="1.1">
	<path d="M 87.056 29.944 C 85.986 31.014, 84.825 33.414, 84.476 35.278 C 83.255 41.784, 82.507 72.561, 83.384 80.182 C 83.897 84.641, 83.896 93.176, 83.380 100.525 C 82.892 107.489, 82.832 113.396, 83.248 113.653 C 83.914 114.065, 83.170 127.965, 82.436 128.842 C 81.280 130.221, 58.722 132.807, 48.927 132.683 C 39.462 132.564, 36.873 132.853, 34.710 134.271 C 32.887 135.465, 32.257 136.547, 32.684 137.752 C 33.721 140.676, 36.327 143.203, 39.838 144.688 C 43.624 146.290, 60.368 146.719, 62.286 145.264 C 62.954 144.757, 65.975 144.261, 69 144.160 C 72.025 144.060, 79.601 143.636, 85.835 143.219 C 93.882 142.681, 98.958 142.835, 103.335 143.750 C 106.726 144.459, 110.328 144.836, 111.340 144.589 C 112.352 144.342, 115.952 144.601, 119.340 145.164 C 128.628 146.707, 148.660 146.881, 152.811 145.454 C 158.626 143.455, 160.689 138.693, 157.582 134.443 C 156.276 132.657, 154.833 132.503, 139.332 132.502 C 125.267 132.500, 121.940 132.212, 119.096 130.750 C 114.989 128.638, 108.160 128.488, 103.562 130.410 C 100.654 131.625, 99.907 131.623, 98.158 130.398 C 96.347 129.130, 96.116 127.821, 96.013 118.238 C 95.949 112.332, 95.714 103.900, 95.489 99.500 C 95.265 95.100, 95.014 90.150, 94.933 88.500 C 94.692 83.648, 94.877 83.094, 97.494 80.819 C 99.846 78.773, 101.131 78.633, 120.244 78.340 C 131.385 78.170, 141.453 77.805, 142.618 77.529 C 145.696 76.801, 148.047 71.499, 146.627 68.489 C 144.804 64.627, 139.500 62.790, 128.500 62.212 C 112.579 61.374, 110.696 61.469, 107.096 63.284 C 102.372 65.666, 100.671 65.439, 99.341 62.250 C 98.154 59.402, 96.860 45.136, 97.018 36.639 C 97.163 28.876, 91.757 25.243, 87.056 29.944" stroke="none" fill="black" fill-rule="evenodd"/>
</svg>