<svg xmlns="http://www.w3.org/2000/svg" width="256" height="256" viewBox="0 0 256 256" version="1.1">
	<path d="M 113.500 22.523 C 112.950 22.724, 106.875 23.121, 100 23.406 C 72.215 24.555, 61.395 25.126, 59.320 25.554 C 56.224 26.192, 54 28.731, 54 31.628 C 54 33.622, 54.915 34.517, 58.634 36.162 C 62.713 37.967, 64.539 38.140, 73.884 37.607 C 79.723 37.274, 86.886 36.731, 89.802 36.401 C 93.068 36.031, 96.235 36.269, 98.052 37.021 C 101.165 38.311, 101.627 39.316, 100.015 41.292 C 99.473 41.956, 97.858 43.962, 96.426 45.750 C 94.994 47.538, 93.017 49, 92.034 49 C 89.762 49, 88.404 50.691, 87.582 54.540 C 86.723 58.564, 83.360 64, 81.730 64 C 81.016 64, 79.572 62.538, 78.522 60.750 C 75.221 55.132, 74.911 55.014, 63.327 54.971 C 51.648 54.927, 41.631 56.232, 39.395 58.087 C 35.394 61.408, 39.750 67.364, 47 68.484 C 57.867 70.164, 59.954 71.051, 60.848 74.369 C 61.315 76.103, 61.302 78.564, 60.820 79.883 C 59.340 83.929, 51.337 95.200, 45.484 101.480 C 41.293 105.977, 39.984 108.085, 40.206 109.980 C 40.368 111.366, 39.932 112.950, 39.238 113.500 C 37.283 115.050, 36.956 118.813, 38.631 120.488 C 41.694 123.551, 46.567 121.692, 48.298 116.799 C 48.629 115.863, 51.257 113.751, 54.139 112.106 C 58.434 109.653, 59.890 108.067, 62.221 103.307 C 67.327 92.879, 69.210 89.505, 70.112 89.167 C 70.600 88.983, 71 87.746, 71 86.417 C 71 85.087, 71.804 83.196, 72.786 82.214 C 73.769 81.231, 75.606 78.756, 76.868 76.714 C 81.820 68.701, 85.045 74.578, 84.912 91.372 C 84.864 97.492, 84.527 104.684, 84.162 107.353 C 83.553 111.814, 83.137 112.409, 79 114.720 C 74.678 117.135, 73.048 118.641, 73.015 120.250 C 72.982 121.884, 77.134 125, 79.345 125 C 80.634 125, 84.234 125.840, 87.345 126.866 C 90.455 127.892, 93 128.342, 93 127.866 C 93 127.390, 93.750 127, 94.667 127 C 95.583 127, 96.037 126.704, 95.675 126.342 C 95.313 125.980, 95.573 125.015, 96.251 124.197 C 97.046 123.240, 97.506 119.002, 97.544 112.287 C 97.589 104.323, 97.945 101.647, 99.051 100.947 C 100.048 100.316, 100.110 100.026, 99.250 100.015 C 98.444 100.005, 98 98.455, 98 95.649 C 98 93.256, 97.501 89.867, 96.891 88.118 C 96.057 85.724, 96.087 84.205, 97.013 81.969 C 97.689 80.336, 98.542 79, 98.908 79 C 99.273 79, 99.670 76.255, 99.789 72.900 C 99.908 69.545, 100.256 66.395, 100.562 65.900 C 101.406 64.534, 110.616 64.823, 111.739 66.250 C 112.280 66.938, 112.995 69.269, 113.328 71.431 C 114.031 76, 115.802 78.075, 120.282 79.583 C 122.962 80.485, 123.550 81.237, 123.797 84.083 C 124.065 87.168, 125.698 91.900, 127.921 96.033 C 128.375 96.876, 129.056 98.980, 129.436 100.710 C 129.845 102.573, 132.652 106.532, 136.323 110.427 C 141.480 115.897, 143.063 117, 145.760 117 C 147.542 117, 149 116.550, 149 116 C 149 115.450, 149.750 115, 150.667 115 C 151.583 115, 152.036 114.703, 151.673 114.339 C 151.309 113.976, 151.993 113.188, 153.191 112.589 C 154.547 111.912, 155.495 110.366, 155.698 108.500 C 155.959 106.115, 155.152 104.554, 151.763 100.888 C 149.418 98.351, 146.257 95.979, 144.737 95.616 C 141.119 94.751, 136 89.331, 136 86.364 C 136 84.740, 137.171 83.286, 139.833 81.605 C 141.942 80.274, 143.677 78.581, 143.691 77.843 C 143.704 77.104, 145.144 73.575, 146.892 70 C 150.549 62.521, 150.098 60.224, 144.446 57.542 C 140.847 55.834, 138.359 56.302, 137.544 58.842 C 136.948 60.698, 131.416 64.637, 129.948 64.250 C 129.427 64.112, 129 64.481, 129 65.068 C 129 66.162, 125.076 63.659, 121.500 60.286 C 119.496 58.396, 116.722 56.945, 114.100 56.415 C 113.330 56.260, 112.360 55.582, 111.943 54.909 C 110.994 53.372, 112.908 49, 114.530 49 C 115.195 49, 115.736 48.212, 115.733 47.250 C 115.714 42.583, 116.106 41, 117.279 41 C 117.983 41, 119.207 40.100, 120 39 C 120.793 37.900, 121.956 37, 122.584 37 C 124.608 37, 129 31.801, 129 29.404 C 129 28.126, 127.767 25.938, 126.260 24.540 C 124.127 22.562, 122.523 22.017, 119.010 22.079 C 116.530 22.122, 114.050 22.322, 113.500 22.523 M 80 67.500 C 80 70.427, 80.312 70.545, 82.438 68.419 C 84.177 66.680, 83.688 65, 81.441 65 C 80.571 65, 80 65.990, 80 67.500 M 103.500 133.610 C 100.200 134.353, 96.375 135.260, 95 135.626 C 89.720 137.034, 79.751 137.216, 78.950 135.919 C 78.383 135.002, 74.196 134.633, 63.662 134.572 C 55.684 134.527, 48.821 134.154, 48.411 133.745 C 48.002 133.335, 45.974 133, 43.906 133 C 40.781 133, 39.627 133.630, 37.073 136.728 C 32.743 141.980, 33.056 144.187, 38.658 147.897 L 43.315 150.982 69.855 150.428 C 84.452 150.123, 96.787 149.631, 97.266 149.335 C 99.525 147.939, 119.416 149.064, 127.080 151.020 C 134.980 153.038, 143.618 153.427, 144.617 151.810 C 144.893 151.365, 145.940 151, 146.945 151 C 149.357 151, 154.149 148.482, 153.318 147.652 C 152.960 147.293, 153.224 147, 153.905 147 C 154.586 147, 155.684 146.438, 156.345 145.750 C 157.424 144.628, 157.551 143.890, 157.125 141.216 C 157.056 140.784, 155.548 139.574, 153.774 138.526 C 151.187 136.998, 148.167 136.559, 138.524 136.310 C 126.956 136.012, 118.052 134.814, 113.203 132.905 C 111.940 132.407, 110.590 132.059, 110.203 132.130 C 109.816 132.202, 106.800 132.868, 103.500 133.610" stroke="none" fill="black" fill-rule="evenodd"/>
</svg>