<svg xmlns="http://www.w3.org/2000/svg" width="256" height="256" viewBox="0 0 256 256" version="1.1">
	<path d="M 83 27 C 81.900 28.100, 81 30.280, 81 31.845 C 81 34.544, 83.577 38, 85.589 38 C 87.127 38, 92 42.971, 92 44.540 C 92 46.872, 88.242 49.988, 85.250 50.137 C 81.516 50.323, 80.503 50.290, 64.758 49.468 C 54.794 48.948, 50.208 49.086, 48.078 49.968 C 44.752 51.345, 41.816 56.581, 42.628 59.685 C 43.724 63.875, 46.637 64.350, 66.551 63.591 C 82.459 62.985, 85.512 63.106, 87.521 64.422 C 89.585 65.774, 89.758 66.359, 88.936 69.224 C 88.421 71.019, 87.998 74.740, 87.996 77.493 C 87.992 83.597, 85.108 88.960, 81.765 89.083 C 80.519 89.129, 78.600 89.279, 77.500 89.417 C 76.400 89.555, 72.800 89.993, 69.500 90.390 C 58.209 91.749, 54 94.431, 54 100.265 C 54 104.603, 55.476 105, 71.629 105 C 89.907 105, 90.666 105.358, 89.510 113.438 C 89.112 116.222, 88.858 120.836, 88.947 123.691 C 89.183 131.286, 86.946 132.514, 73.052 132.414 C 67.248 132.372, 59.125 131.994, 55 131.574 C 48.550 130.916, 46.835 131.098, 42.750 132.869 C 37.697 135.060, 37.464 135.460, 38.955 139.383 C 40.910 144.523, 46.151 146.371, 62.500 147.681 C 76.983 148.842, 84.031 148.595, 88 146.790 C 92.767 144.621, 97.739 143.072, 98.259 143.593 C 98.495 143.829, 103.146 144.478, 108.594 145.035 C 114.042 145.592, 120.750 146.279, 123.500 146.560 C 126.250 146.842, 130.005 147.555, 131.845 148.145 C 136.416 149.611, 148.559 148.179, 153.425 145.600 C 156.377 144.035, 156.703 138.946, 154.006 136.505 C 152.850 135.459, 151.363 134.510, 150.702 134.395 C 150.041 134.281, 147.475 133.627, 145 132.942 C 142.525 132.257, 135.945 131.577, 130.379 131.431 C 124.812 131.285, 118.737 130.749, 116.879 130.241 C 113.471 129.309, 111.703 129.364, 106.839 130.550 C 104.713 131.069, 103.930 130.738, 102.950 128.906 C 101.431 126.069, 100.923 121, 102.158 121 C 102.701 121, 102.708 120.291, 102.177 119.250 C 101.052 117.046, 101.352 107.237, 102.581 106.053 C 103.086 105.566, 104.400 105.017, 105.500 104.834 C 106.600 104.650, 107.787 104.105, 108.138 103.622 C 108.503 103.121, 109.361 103.118, 110.138 103.617 C 112.064 104.852, 135.249 104.770, 136.645 103.523 C 137.275 102.960, 137.608 102.199, 137.386 101.831 C 137.164 101.462, 137.559 100.562, 138.265 99.831 C 138.970 99.099, 139.497 98.050, 139.435 97.500 C 139.264 95.977, 137.136 91.377, 137.063 92.372 C 137.029 92.852, 136.419 92.763, 135.709 92.174 C 134.999 91.584, 132.997 90.852, 131.261 90.546 C 129.524 90.240, 126.842 89.510, 125.301 88.924 C 123.761 88.339, 122.275 87.834, 122 87.802 C 121.725 87.771, 120.921 87.523, 120.213 87.251 C 119.505 86.980, 116.325 87.487, 113.147 88.379 C 106.225 90.321, 101.366 90.473, 101.247 88.750 C 101.199 88.063, 100.910 86.408, 100.604 85.074 C 100.298 83.740, 100.451 82.162, 100.944 81.567 C 101.437 80.973, 101.758 77.902, 101.656 74.743 C 101.554 71.584, 101.784 69, 102.168 69 C 102.551 69, 103.151 68.100, 103.500 67 C 103.849 65.900, 105.004 65, 106.067 65 C 107.130 65, 108 64.622, 108 64.161 C 108 62.339, 112.932 61.024, 115.746 62.095 C 118.836 63.271, 135.444 63.069, 141.349 61.784 C 147.767 60.386, 150.577 56.277, 148.496 51.329 C 147.273 48.419, 146.743 48.149, 141.337 47.683 C 138.127 47.407, 132.902 46.613, 129.727 45.919 C 124.428 44.761, 123.649 44.825, 120.227 46.702 C 118.177 47.827, 114.588 48.986, 112.250 49.278 L 108 49.810 108 44.452 C 108 38.380, 106.502 34.294, 103.982 33.494 C 103.039 33.195, 100.443 31.161, 98.212 28.975 C 94.678 25.511, 93.569 25, 89.579 25 C 86.333 25, 84.418 25.582, 83 27" stroke="none" fill="black" fill-rule="evenodd"/>
</svg>