<svg xmlns="http://www.w3.org/2000/svg" width="256" height="256" viewBox="0 0 256 256" version="1.1">
	<path d="M 64.500 26.208 C 61.968 27.660, 60.322 29.704, 58.628 33.500 C 57.892 35.150, 55.729 38.360, 53.822 40.633 C 48.873 46.531, 42.763 59.409, 42.217 65.095 C 41.813 69.302, 41.367 70.072, 38.575 71.397 C 32.194 74.426, 30.147 78.587, 29.307 90.241 L 28.749 98 32.686 98 C 37.601 98, 40.203 95.710, 42.560 89.309 C 44.562 83.871, 45.377 82.709, 47.394 82.413 C 51.038 81.878, 54.209 107.907, 52.826 127 C 51.905 139.719, 52.443 143.262, 56.112 148.634 C 61.417 156.399, 68.175 155.208, 68.209 146.500 C 68.221 143.586, 67.232 134.901, 66.558 132 C 66.239 130.625, 65.759 120.950, 65.492 110.500 C 65.225 100.050, 64.705 90.375, 64.335 89 C 63.966 87.625, 63.481 82.788, 63.258 78.250 C 63.035 73.713, 62.436 70, 61.927 70 C 61.417 70, 61.112 69.474, 61.250 68.832 C 61.387 68.189, 60.566 67.174, 59.424 66.577 C 56.279 64.929, 57.154 59.982, 61.793 53.186 C 63.964 50.006, 66.435 46.075, 67.285 44.452 C 68.135 42.828, 69.672 40.600, 70.700 39.500 C 76.246 33.568, 77.339 29.522, 74.171 26.655 C 72.068 24.751, 67.415 24.536, 64.500 26.208 M 98.800 36.052 C 87.382 37.304, 82.332 40.730, 83.774 46.244 C 84.588 49.357, 87.822 50.314, 94.924 49.545 C 102.826 48.690, 107.546 48.780, 111.529 49.862 L 114.500 50.670 114.310 65.441 C 114.206 73.565, 113.829 80.502, 113.471 80.856 C 113.114 81.210, 106.880 81.500, 99.617 81.500 C 85.425 81.500, 84.144 81.870, 77.750 87.817 C 74.459 90.878, 74.295 92.654, 77.082 95.071 C 80.060 97.654, 84.562 98.381, 89.351 97.053 C 91.661 96.413, 98.144 96.035, 103.978 96.202 C 114.406 96.499, 114.461 96.513, 115.423 99.256 C 116.148 101.321, 115.938 103.271, 114.588 107.025 C 113.387 110.366, 113.109 112.448, 113.755 113.269 C 115.136 115.024, 116.028 123.054, 115.324 127.392 C 114.961 129.630, 113.936 131.499, 112.713 132.154 C 111.606 132.746, 105.716 133.368, 99.624 133.535 C 89.632 133.810, 88.375 134.054, 86.774 136.030 C 85.798 137.236, 84.944 139.297, 84.875 140.611 C 84.806 141.925, 84.664 143.563, 84.559 144.250 C 84.454 144.938, 84.779 146.341, 85.283 147.369 C 86.057 148.950, 86.914 149.138, 90.849 148.590 C 93.407 148.234, 109.372 147.686, 126.327 147.372 C 146.583 146.997, 157.900 146.406, 159.327 145.651 C 162.492 143.974, 162.560 139.914, 159.498 135.403 C 155.096 128.915, 152.572 128.602, 136.875 132.600 C 128.145 134.824, 127.237 133.994, 126.298 122.927 C 125.945 118.779, 126.170 115.550, 126.907 114.173 C 127.802 112.502, 127.790 110.999, 126.857 107.746 C 125.252 102.151, 125.236 101.875, 126.359 99.250 C 127.291 97.071, 127.758 97, 141.210 97 C 156.526 97, 160.477 95.930, 161.594 91.482 C 162.394 88.295, 161.455 84.598, 159.299 82.442 C 157.902 81.045, 156.437 80.853, 151.050 81.360 C 140.156 82.387, 135.703 83.089, 133.874 84.067 C 128.015 87.203, 125.488 83.260, 126.463 72.500 C 127.427 61.869, 127.452 59.717, 126.650 57 C 126.166 55.363, 126.415 53.810, 127.373 52.500 C 128.636 50.772, 130.329 50.432, 139.840 49.997 C 149.803 49.541, 151.095 49.259, 153.475 47.023 C 156.441 44.237, 156.271 40.923, 152.992 37.583 C 150.921 35.473, 149.903 35.406, 126.917 35.876 C 119.446 36.028, 111.796 35.940, 109.917 35.680 C 108.038 35.420, 103.035 35.587, 98.800 36.052 M 208.427 191.081 C 206.735 192.950, 206.826 193, 211.904 193 C 217.432 193, 217.909 191.861, 213.084 190.179 C 210.658 189.334, 209.870 189.486, 208.427 191.081" stroke="none" fill="black" fill-rule="evenodd"/>
</svg>