<svg xmlns="http://www.w3.org/2000/svg" width="256" height="256" viewBox="0 0 256 256" version="1.1">
	<path d="M 78.500 29.586 C 76.300 29.800, 70.321 30.249, 65.212 30.584 C 57.195 31.109, 55.507 31.544, 52.871 33.762 C 50.318 35.910, 49.916 36.828, 50.420 39.351 C 50.752 41.011, 51.788 43.214, 52.723 44.246 C 54.304 45.993, 55.714 46.087, 72.961 45.594 C 91.895 45.053, 129.774 44.697, 131.528 45.044 C 134.174 45.568, 138.050 44.890, 137.500 44 C 137.160 43.450, 137.499 43, 138.254 43 C 139.170 43, 139.700 41.567, 139.849 38.688 C 140.135 33.164, 137.871 30.964, 131.319 30.402 C 124.013 29.776, 83.054 29.144, 78.500 29.586 M 47.566 70.541 C 31.997 76.406, 42.272 85.864, 62.541 84.326 C 68.399 83.881, 69.821 84.079, 71.004 85.504 C 72.559 87.378, 72.644 95.981, 71.116 96.933 C 70.615 97.245, 69.147 99.800, 67.853 102.611 C 66.559 105.422, 63.826 109.697, 61.781 112.111 C 53.580 121.789, 51 125.252, 51 126.581 C 51 127.347, 49.426 128.631, 47.502 129.435 C 45.578 130.238, 43.469 132.072, 42.813 133.510 C 41.735 135.878, 41.897 136.343, 44.544 138.453 C 47.687 140.960, 50.792 140.960, 54.369 138.454 C 58.132 135.818, 63.820 136.605, 67.945 140.332 L 71.633 143.663 78.953 142.672 C 84.262 141.954, 88.818 142.031, 95.536 142.953 C 104.117 144.131, 105.230 144.078, 110.650 142.227 C 113.867 141.129, 120.325 139.924, 125 139.550 C 134.049 138.826, 135.269 139.280, 139.165 144.817 C 140.802 147.142, 144.594 148.467, 145.485 147.024 C 145.844 146.443, 146.557 146.226, 147.069 146.543 C 147.581 146.859, 148 146.641, 148 146.059 C 148 145.477, 148.809 145, 149.799 145 C 151.182 145, 151.586 144.227, 151.549 141.655 C 151.522 139.815, 151.008 137.677, 150.406 136.905 C 149.805 136.132, 149.397 134.279, 149.500 132.788 C 149.603 131.296, 149.308 130.310, 148.844 130.597 C 148.380 130.883, 148 130.416, 148 129.559 C 148 128.667, 147.145 128, 146 128 C 144.900 128, 144 127.550, 144 127 C 144 126.450, 143.100 126, 142 126 C 140.710 126, 140 125.333, 140 124.122 C 140 123.090, 139.330 121.689, 138.511 121.009 C 137.692 120.329, 137.237 119.426, 137.500 119 C 137.763 118.575, 136.970 117.899, 135.739 117.498 C 134.507 117.097, 133.162 116.652, 132.750 116.510 C 132.338 116.367, 131.250 116.194, 130.333 116.125 C 129.417 116.056, 128.945 115.721, 129.286 115.381 C 129.626 115.040, 129.290 114.147, 128.539 113.396 C 127.787 112.644, 127.295 111.236, 127.445 110.265 C 127.594 109.294, 127.377 108.275, 126.961 108 C 126.546 107.725, 126.047 106.375, 125.853 105 C 125.361 101.513, 123.641 100, 120.170 100 C 117.810 100, 116.754 100.752, 115.044 103.651 C 112.139 108.573, 111.276 113, 113.220 113 C 115.417 113, 118.076 116.403, 118.968 120.356 C 119.655 123.402, 119.405 124.196, 117.055 126.447 L 114.352 129.037 94.926 128.873 C 69.536 128.659, 67.529 127.736, 72.067 118.362 C 73.204 116.014, 75.004 113.816, 76.067 113.479 C 77.130 113.141, 78 112.157, 78 111.292 C 78 109.216, 82.126 101, 83.169 101 C 83.617 101, 85.379 98.526, 87.086 95.502 C 91.589 87.523, 94.277 86.492, 107.809 87.556 C 131.428 89.412, 148.011 87.908, 152.524 83.500 C 153.659 82.392, 153.844 77.087, 152.805 75.459 C 152.439 74.887, 150.613 74.315, 148.746 74.190 C 146.878 74.064, 143.887 73.541, 142.098 73.028 C 140.309 72.515, 134.493 72.299, 129.173 72.549 C 123.628 72.808, 112.945 72.294, 104.141 71.342 C 91.528 69.980, 87.147 69.886, 79.641 70.816 C 73.036 71.635, 69.251 71.651, 66 70.872 C 58.511 69.079, 51.768 68.958, 47.566 70.541" stroke="none" fill="black" fill-rule="evenodd"/>
</svg>