<svg xmlns="http://www.w3.org/2000/svg" width="256" height="256" viewBox="0 0 256 256" version="1.1">
	<path d="M 109.200 25.200 C 107.452 26.948, 107.732 35.371, 109.675 39.444 C 111.258 42.765, 111.251 43.065, 109.538 44.958 C 107.908 46.759, 106.869 46.903, 99.114 46.394 C 88.523 45.699, 79.273 48.068, 77.325 51.974 C 74.911 56.818, 79.147 60, 88.009 60 C 91.773 60, 93.530 60.565, 95.694 62.468 C 97.808 64.328, 98.090 64.945, 96.839 64.968 C 95.925 64.986, 94.006 66.463, 92.574 68.250 C 91.142 70.037, 89.516 72.055, 88.961 72.733 C 88.406 73.412, 87.042 75.510, 85.929 77.395 C 84.720 79.445, 82.171 81.639, 79.591 82.852 C 74.742 85.132, 66.657 93.663, 67.432 95.683 C 67.714 96.418, 67.262 97, 66.410 97 C 65.557 97, 65.181 96.516, 65.559 95.905 C 66.203 94.862, 65.595 93.080, 62.407 86.669 C 60.739 83.314, 60.593 81, 62.048 81 C 63.421 81, 62.321 73.522, 60.404 69.814 C 58.340 65.822, 60.246 59.130, 65.131 53.218 C 67.259 50.643, 69 47.711, 69 46.703 C 69 44.804, 70.764 40.877, 72.010 40 C 73.174 39.181, 75.644 33.599, 75.440 32.250 C 75.335 31.563, 75.194 30.568, 75.125 30.039 C 74.891 28.240, 70.630 25, 68.499 25 C 65.617 25, 62.039 29.191, 58.198 37.063 C 56.437 40.673, 54.152 44.534, 53.119 45.642 C 49.160 49.891, 45.910 56.265, 44.415 62.710 C 43.303 67.506, 41.925 70.448, 39.570 73.054 C 36.206 76.778, 34.404 82.547, 35.514 86.044 C 36.304 88.534, 38.014 88.514, 42.336 85.964 C 46.041 83.778, 45.727 83.668, 49.954 88.641 C 51.508 90.470, 51.573 96.879, 50.141 107.188 C 49.707 110.317, 49.703 113.505, 50.133 114.274 C 50.950 115.733, 51.412 126.556, 51.061 136.024 C 50.851 141.718, 52.543 150.547, 54.267 152.750 C 55.570 154.416, 60.469 154.345, 61.884 152.640 C 62.504 151.892, 62.974 149.080, 62.928 146.390 C 62.843 141.530, 63.096 139.871, 64.357 137 C 64.719 136.175, 65.179 131.350, 65.378 126.277 C 65.648 119.395, 65.357 116.349, 64.231 114.277 C 62.676 111.416, 62.455 105.993, 63.855 105.039 C 64.290 104.743, 64.928 103.736, 65.272 102.801 C 65.842 101.253, 66.165 101.236, 68.910 102.605 C 71.740 104.017, 72.205 103.950, 76.596 101.499 C 79.166 100.063, 81.869 99.120, 82.603 99.401 C 83.337 99.683, 84.633 101.580, 85.484 103.617 C 86.933 107.084, 87.064 117.925, 85.911 139 C 85.806 140.925, 86.222 143.738, 86.835 145.250 C 87.865 147.789, 88.379 148, 93.541 148 C 96.616 148, 100.002 148.466, 101.066 149.035 C 102.399 149.749, 103 149.749, 103 149.035 C 103 148.466, 104.111 148, 105.470 148 C 108.446 148, 114.833 144.652, 117.250 141.825 C 119.257 139.478, 119.572 133.972, 117.800 132.200 C 117.074 131.474, 113.549 131, 108.872 131 L 101.144 131 100.522 125.250 C 100.180 122.088, 99.494 116.575, 98.998 113 C 98.501 109.425, 98.229 105.150, 98.393 103.500 C 98.742 99.977, 97.472 97, 95.618 97 C 94.614 97, 94.827 95.194, 96.524 89.310 C 99.359 79.482, 102.922 75.797, 108.704 76.711 C 110.792 77.041, 112.650 77.691, 112.833 78.155 C 113.017 78.620, 113.804 79, 114.583 79 C 115.545 79, 116 80.164, 116 82.626 C 116 84.641, 117.276 88.764, 118.872 91.904 C 120.451 95.012, 122.076 99.117, 122.483 101.027 C 122.890 102.937, 123.794 105.175, 124.493 106 C 125.192 106.825, 126.101 108.604, 126.514 109.953 C 126.926 111.303, 127.879 113.022, 128.632 113.775 C 129.384 114.527, 130 116.241, 130 117.582 C 130 122.283, 133.931 128.382, 139.938 133 C 143.157 135.475, 146.844 139.188, 148.132 141.250 C 150.147 144.478, 150.983 145, 154.147 145 C 157.483 145, 158.009 144.609, 159.861 140.750 C 160.983 138.412, 162.131 135.189, 162.414 133.587 C 162.696 131.984, 163.372 130.228, 163.917 129.683 C 165.392 128.208, 163.479 125.337, 160.526 124.596 C 159.137 124.247, 158 123.579, 158 123.111 C 158 122.643, 155.889 121.669, 153.308 120.946 C 150.313 120.108, 147.563 118.433, 145.705 116.316 C 144.103 114.492, 142.277 112.993, 141.646 112.985 C 135.555 112.903, 136.369 102.298, 142.771 98.325 C 147.698 95.268, 153.959 88.562, 153.980 86.321 C 154.032 80.704, 146.828 79.381, 138.500 83.478 C 132.170 86.592, 129.919 86.607, 127.051 83.555 C 125.788 82.210, 123.572 80.972, 122.127 80.805 C 120.375 80.601, 119.626 80, 119.877 79 C 120.363 77.068, 120.340 76.508, 119.513 70.371 C 118.902 65.832, 119.085 64.999, 121.100 63.121 C 122.352 61.955, 123.855 60.960, 124.439 60.912 C 125.022 60.864, 130.900 60.700, 137.500 60.547 C 153.503 60.177, 157.422 59.448, 158.971 56.554 C 160.621 53.471, 159.482 50.301, 156.096 48.550 C 153.366 47.138, 142.557 46.479, 130.761 47.006 C 123.285 47.340, 122 46.229, 122 39.425 C 122 33.621, 120.716 29.745, 117.635 26.250 C 115.482 23.808, 111.134 23.266, 109.200 25.200 M 103.264 162.481 C 101.777 164.171, 102.694 169.945, 104.564 170.663 C 108.114 172.025, 111.847 166.265, 109.793 162.595 C 108.699 160.639, 104.942 160.574, 103.264 162.481 M 107.510 215.016 C 107.856 215.575, 108.557 215.774, 109.069 215.457 C 110.456 214.600, 110.198 214, 108.441 214 C 107.584 214, 107.165 214.457, 107.510 215.016" stroke="none" fill="black" fill-rule="evenodd"/>
</svg>