<svg xmlns="http://www.w3.org/2000/svg" width="256" height="256" viewBox="0 0 256 256" version="1.1">
	<path d="M 66.151 27.838 C 64.693 29.400, 62.911 32.879, 62.192 35.570 C 61.472 38.262, 59.743 41.959, 58.350 43.786 C 54.925 48.275, 51.290 57.489, 50.125 64.628 C 48.686 73.454, 47.508 75.700, 43.154 77.921 C 37.311 80.902, 31 89.684, 31 94.833 C 31 97.882, 33.886 102, 36.023 102 C 37.378 102, 44.261 97.149, 44.833 95.791 C 45.401 94.445, 48.060 94.917, 49.821 96.678 C 51.882 98.737, 53.029 109.595, 53.343 130 C 53.634 148.965, 54.917 153.872, 60.317 156.664 C 62.993 158.048, 63.367 158.004, 65.435 156.061 C 66.663 154.908, 67.785 153.298, 67.929 152.482 C 68.781 147.655, 68.204 135.454, 66.487 122 C 66.034 118.452, 65.446 108.435, 64.521 88.500 C 64.240 82.450, 63.565 75.950, 63.019 74.055 C 61.808 69.846, 62.922 64.859, 66.942 56.500 C 68.529 53.200, 71.074 47.688, 72.598 44.250 C 74.121 40.813, 75.663 38, 76.023 38 C 77.049 38, 79 33.154, 79 30.608 C 79 24.780, 70.682 22.987, 66.151 27.838 M 115.750 27.025 C 113.092 28.657, 111.284 32.878, 110.477 39.337 C 109.858 44.294, 109.174 45.740, 105.933 48.949 C 102.224 52.621, 98.684 54, 92.964 54 C 91.102 54, 89.348 54.986, 87.676 56.973 C 85.096 60.039, 85.139 59.716, 84.847 78.500 C 84.760 84.097, 86.155 129.474, 86.553 134 C 86.771 136.475, 87.120 140.387, 87.329 142.693 C 87.919 149.183, 89.795 152.925, 92.224 152.457 C 93.348 152.240, 94.894 151.168, 95.661 150.074 C 96.990 148.176, 98.103 148.094, 119.777 148.292 C 132.449 148.408, 143.163 148.931, 144 149.475 C 146.175 150.888, 150.313 151.316, 149.528 150.046 C 149.173 149.471, 149.474 149, 150.197 149 C 153.980 149, 155.296 136.746, 154.008 113.500 C 153.826 110.200, 153.972 106.590, 154.333 105.477 C 154.695 104.364, 154.560 101.951, 154.033 100.114 C 153.349 97.728, 153.506 94.736, 154.585 89.637 C 155.415 85.712, 156.315 78.502, 156.584 73.617 C 156.853 68.731, 157.547 63.846, 158.128 62.761 C 158.708 61.677, 158.897 59.263, 158.547 57.397 C 157.454 51.571, 150.729 49.506, 142.500 52.471 C 137.545 54.256, 130.303 54.377, 127.046 52.729 C 123.233 50.799, 123.238 44.938, 127.055 40.590 C 130.728 36.407, 130.926 32.219, 127.598 29.092 C 124.884 26.542, 118.384 25.408, 115.750 27.025 M 108 64.991 C 106.625 65.450, 104.294 66.090, 102.820 66.414 C 99.883 67.059, 96.709 69.720, 97.448 70.917 C 98.231 72.183, 98.312 78.264, 97.604 82.646 C 96.666 88.455, 98.734 90.436, 105.500 90.206 C 106.600 90.169, 114.355 89.815, 122.734 89.419 C 140.033 88.602, 140.705 88.258, 140.817 80.173 C 140.849 77.826, 141.404 74.306, 142.049 72.350 C 142.995 69.486, 142.958 68.549, 141.861 67.533 C 138.842 64.736, 114.292 62.893, 108 64.991 M 125 105.540 C 121.357 106.447, 116.292 106.741, 110 106.410 C 104.452 106.118, 99.884 106.324, 99.019 106.906 C 97.848 107.695, 97.535 110.473, 97.519 120.202 L 97.500 132.500 114.426 133.383 C 124.221 133.895, 132.857 133.895, 134.926 133.383 C 140.325 132.049, 141.997 127.876, 141.998 115.725 C 142 106.152, 141.947 105.930, 139.435 104.975 C 136.062 103.693, 131.735 103.862, 125 105.540" stroke="none" fill="black" fill-rule="evenodd"/>
</svg>