<svg xmlns="http://www.w3.org/2000/svg" width="256" height="256" viewBox="0 0 256 256" version="1.1">
	<path d="M 87.841 23.405 C 86.378 24.694, 84.509 27.048, 83.687 28.637 C 82.866 30.227, 79.562 33.939, 76.347 36.888 C 73.131 39.836, 67.800 44.781, 64.500 47.877 C 61.200 50.973, 55.065 55.254, 50.867 57.389 C 36.756 64.565, 32.970 70.366, 38.329 76.596 C 41.079 79.794, 44.090 79.478, 48.823 75.495 C 53.328 71.705, 57.190 71.281, 60.159 74.250 C 65.635 79.726, 67.506 80.378, 73.868 79.028 C 78.437 78.058, 80.933 78.052, 85.489 78.998 C 88.680 79.660, 90.864 80.494, 90.343 80.851 C 89.821 81.208, 88.293 83.270, 86.947 85.434 C 85.601 87.598, 84.180 89.848, 83.789 90.434 C 83.370 91.063, 77.268 91.705, 68.910 92 C 55.604 92.470, 54.650 92.637, 53.249 94.750 C 52.428 95.988, 51.284 97, 50.707 97 C 50.130 97, 48.864 97.718, 47.894 98.596 C 45.576 100.694, 46.899 103.707, 51.531 106.881 C 54.227 108.728, 55.751 109.096, 58.726 108.618 C 60.802 108.284, 66.550 107.554, 71.500 106.995 C 81.781 105.835, 83.307 106.301, 86.750 111.646 C 89.168 115.399, 89.500 117.049, 88.138 118.550 C 87.664 119.072, 86.785 121.519, 86.185 123.986 C 85.293 127.648, 85.353 128.618, 86.510 129.266 C 88.182 130.201, 86.960 134.363, 84.185 137.188 C 79.672 141.783, 77.078 146.959, 77.689 150.151 C 78.211 152.884, 78.831 153.146, 88.233 154.604 C 94.522 155.579, 100 151.784, 100 146.453 C 100 145.654, 100.338 145, 100.750 145 C 101.162 145, 101.512 138.925, 101.526 131.500 C 101.540 124.075, 101.278 118, 100.943 118 C 100.608 118, 100.395 117.171, 100.470 116.158 C 100.629 114.002, 104.339 109, 105.780 109 C 106.325 109, 108.060 108.313, 109.636 107.474 C 111.968 106.231, 115.008 106.053, 126 106.518 C 138.302 107.038, 139.781 106.913, 142.671 105.107 C 145.760 103.177, 146.242 101.777, 144.680 99.277 C 143.883 98.003, 136.605 95.651, 134 95.826 C 126.330 96.343, 122.963 95.948, 121.057 94.308 C 118.164 91.819, 115.181 91.218, 110.652 92.211 C 108.536 92.674, 105.274 92.767, 103.402 92.416 C 100.141 91.804, 100 91.594, 100 87.353 C 100 83.029, 100.107 82.883, 104.750 80.883 C 107.844 79.550, 110.668 79.023, 112.851 79.372 C 117.561 80.124, 123.773 77.279, 124.519 74.027 C 125.366 70.334, 128.486 67, 131.095 67 C 134.932 67, 141.916 71.013, 145.208 75.109 C 146.928 77.249, 149.081 79, 149.993 79 C 152.101 79, 156 74.901, 156 72.686 C 156 71.758, 156.374 71, 156.832 71 C 157.290 71, 158.140 69.451, 158.721 67.558 L 159.777 64.116 154.135 61.228 C 151.032 59.640, 147.147 58.003, 145.502 57.590 C 143.857 57.177, 141.883 56.313, 141.114 55.670 C 140.346 55.026, 138.175 54.050, 136.289 53.500 C 134.159 52.879, 132.224 51.376, 131.180 49.530 C 130.256 47.897, 129.028 46.043, 128.451 45.410 C 126.975 43.791, 121.388 41, 119.621 41 C 118.808 41, 117.548 40.423, 116.821 39.717 C 113.643 36.631, 108.921 33.952, 105.354 33.211 C 102.352 32.588, 101.472 31.923, 101.375 30.205 C 101.158 26.382, 101.055 26.146, 98.455 23.545 C 95.270 20.361, 91.356 20.309, 87.841 23.405 M 94.161 38.787 C 92.875 38.993, 89.179 41.741, 85.948 44.892 C 82.718 48.044, 78.820 51.270, 77.287 52.061 C 71.871 54.857, 66.302 62.636, 68.292 64.626 C 68.735 65.068, 104.413 65.449, 113.125 65.104 C 119.338 64.858, 116.792 53.361, 109.718 49.718 C 105.703 47.651, 99 41.651, 99 40.125 C 99 38.889, 96.988 38.333, 94.161 38.787 M 52.416 121.921 C 50.262 124.077, 47.758 126.664, 46.851 127.671 C 45.944 128.677, 43.806 130.730, 42.101 132.234 C 38.081 135.778, 37.750 141.135, 41.402 143.528 C 43.624 144.984, 44.139 144.945, 48.260 143.008 C 50.711 141.856, 53.661 140.033, 54.816 138.957 C 55.971 137.880, 57.139 137, 57.410 137 C 57.682 137, 59.394 135.465, 61.216 133.590 C 63.297 131.447, 65.946 129.913, 68.343 129.463 C 72.844 128.619, 74.503 125.697, 72.349 122.409 C 70.416 119.460, 66.699 118, 61.119 118 C 56.884 118, 55.882 118.451, 52.416 121.921 M 120.047 119.485 C 117.483 120.411, 116.153 121.770, 114.883 124.759 L 113.173 128.785 116.337 129.396 C 121.570 130.407, 125.971 133.199, 131.649 139.111 C 138.418 146.157, 141.869 147.320, 147.742 144.532 C 153.868 141.624, 154.293 138.908, 149.403 133.901 C 147.212 131.657, 143.923 129.518, 141.776 128.940 C 138.349 128.017, 137.490 127.071, 137.906 124.676 C 137.985 124.222, 137.588 124.136, 137.025 124.485 C 136.461 124.833, 136 124.475, 136 123.689 C 136 122.847, 134.139 121.739, 131.474 120.993 C 128.985 120.296, 126.709 119.337, 126.415 118.863 C 125.746 117.780, 124.406 117.911, 120.047 119.485 M 107.919 163.167 C 107.874 163.350, 107.746 164.752, 107.634 166.282 C 107.487 168.300, 107.849 168.983, 108.954 168.770 C 110.788 168.417, 111.033 163.850, 109.250 163.253 C 108.563 163.022, 107.963 162.983, 107.919 163.167" stroke="none" fill="black" fill-rule="evenodd"/>
</svg>