<svg xmlns="http://www.w3.org/2000/svg" width="256" height="256" viewBox="0 0 256 256" version="1.1">
	<path d="M 107 21.706 C 104.202 22.729, 100.811 26.483, 98.393 31.233 C 97.067 33.837, 94.308 37.437, 92.261 39.233 C 83.085 47.287, 82 48.680, 82 52.411 C 82 54.397, 82.916 57.970, 84.035 60.350 C 85.959 64.444, 86.288 64.673, 90.097 64.562 C 92.313 64.498, 94.566 64.978, 95.106 65.627 C 96.375 67.157, 95.158 72.002, 93.329 72.704 C 92.551 73.003, 91.017 74.879, 89.919 76.873 C 88.821 78.868, 86.981 81.992, 85.831 83.816 C 84.112 86.540, 83.937 87.566, 84.848 89.566 C 85.458 90.905, 86.616 92, 87.421 92 C 89.456 92, 96.227 87.950, 97.807 85.788 C 98.525 84.805, 100.245 84, 101.628 84 C 103.011 84, 104.790 83.353, 105.580 82.563 C 107.765 80.378, 111 72.206, 111 68.872 C 111 65.787, 114.790 61, 117.232 61 C 120.486 61, 123 64.090, 123 68.089 C 123 73.228, 124.761 77.324, 129.863 84.054 C 132.134 87.049, 133.993 90.026, 133.996 90.668 C 134.003 92.520, 127.572 96, 124.145 96 C 121.614 96, 120.567 95.275, 118.597 92.154 C 115.484 87.222, 106 82.589, 106 86 C 106 86.550, 105.386 87, 104.635 87 C 103.884 87, 102.173 89.138, 100.832 91.750 C 98.682 95.940, 97.969 96.536, 94.784 96.805 C 92.693 96.982, 90.084 98.119, 88.586 99.507 C 86.403 101.531, 86 102.770, 86 107.452 C 86 111.798, 85.664 113, 84.449 113 C 83.127 113, 79.303 119.719, 80.191 120.481 C 82.062 122.086, 87.470 123.685, 91.465 123.814 C 96.774 123.987, 100.845 126.759, 101.413 130.587 C 101.723 132.682, 96.727 137, 93.993 137 C 93.103 137, 90.153 138.091, 87.437 139.425 C 77.579 144.267, 74.263 150.160, 79.474 153.575 C 82.733 155.710, 87.167 155.691, 94.500 153.512 C 100.312 151.784, 105.746 147.400, 112.240 139.198 C 114.399 136.471, 116.161 136.415, 118.500 139 C 119.742 140.373, 121.594 141.005, 124.405 141.015 C 129.258 141.033, 130.070 141.501, 132.494 145.670 C 134.359 148.878, 136.447 149.697, 145 150.575 C 148.769 150.961, 161.999 145.418, 162 143.451 C 162 142.875, 160.183 140.512, 157.963 138.201 L 153.926 134 142.713 133.930 C 136.546 133.891, 130.647 133.525, 129.606 133.116 C 127.838 132.422, 127.885 132.236, 130.300 130.336 C 131.725 129.215, 133.673 126.657, 134.630 124.649 C 135.587 122.642, 136.936 121, 137.628 121 C 138.347 121, 138.720 120.144, 138.500 119 C 138.288 117.900, 138.617 117, 139.232 117 C 139.846 117, 139.366 115.954, 138.165 114.676 C 135.845 112.206, 136.173 111, 139.167 111 C 140.175 111, 141 110.550, 141 110 C 141 109.450, 141.645 109, 142.433 109 C 143.221 109, 144.151 108.100, 144.500 107 C 144.849 105.900, 145.587 105, 146.139 105 C 147.568 105, 150.026 102.359, 149.286 101.619 C 148.945 101.279, 149.182 101, 149.811 101 C 150.440 101, 148.967 99.167, 146.537 96.927 C 141.463 92.250, 141.543 90.323, 146.847 89.460 C 151.986 88.623, 156.943 85.968, 159.320 82.779 C 163.279 77.466, 157.897 72.446, 150.868 74.896 C 146.531 76.408, 138.488 76.293, 137.166 74.700 C 136.573 73.986, 135.799 71.597, 135.447 69.392 C 134.903 65.993, 135.204 64.911, 137.430 62.266 C 140.850 58.202, 144.259 57.610, 150.921 59.925 C 157.099 62.071, 159.787 61.543, 161.941 57.761 C 163.222 55.510, 163.187 54.935, 161.632 52.561 C 160.670 51.094, 159.242 49.646, 158.457 49.345 C 157.672 49.044, 155.365 47.272, 153.329 45.407 C 151.293 43.542, 148.875 41.778, 147.955 41.486 C 147.036 41.194, 145.482 39.179, 144.503 37.007 C 142.155 31.800, 139.696 29.644, 137.061 30.481 C 134.577 31.269, 132 35.870, 132 39.516 C 132 42.850, 130.546 45.569, 128.278 46.475 C 127.300 46.865, 122.517 47.741, 117.648 48.420 C 109.689 49.531, 108.587 49.486, 106.717 47.972 C 104.846 46.457, 104.766 45.979, 105.915 43.205 C 106.618 41.509, 108.985 38.346, 111.176 36.177 C 114.102 33.280, 115.302 31.165, 115.699 28.204 C 116.198 24.487, 116.003 24.053, 113.170 22.588 C 109.924 20.909, 109.389 20.833, 107 21.706 M 66.149 24.696 C 63.576 25.964, 62.014 28, 59.416 33.474 C 57.555 37.394, 54.447 42.454, 52.508 44.719 C 48.088 49.884, 44.368 57.771, 42.785 65.338 C 41.850 69.809, 40.805 71.842, 38.323 74.021 C 36.541 75.586, 34.349 78.584, 33.453 80.683 C 30.643 87.263, 27.991 96.177, 28.566 97.107 C 28.870 97.598, 30.490 98, 32.166 98 C 34.564 98, 36.348 96.811, 40.519 92.436 C 45.320 87.399, 46.015 86.993, 47.864 88.147 C 50.238 89.630, 50.845 94.321, 49.849 103.500 C 49.491 106.800, 49.661 113.427, 50.227 118.226 C 51.071 125.383, 50.972 128.079, 49.679 133.226 C 47.914 140.256, 47.924 140.488, 50.344 147.632 C 52.367 153.604, 54.884 156.250, 58.542 156.250 C 63.214 156.250, 64.336 153.921, 64.198 144.500 C 63.852 120.783, 63.191 97.584, 62.551 86.756 C 62.138 79.746, 61.883 73.722, 61.985 73.368 C 62.087 73.013, 61.745 72.448, 61.225 72.112 C 59.105 70.740, 57.170 65.448, 58.149 63.698 C 58.685 62.741, 59.307 61.001, 59.532 59.831 C 59.758 58.662, 61.426 55.184, 63.241 52.103 C 65.055 49.021, 67.386 44.587, 68.422 42.250 C 69.457 39.913, 70.712 38, 71.211 38 C 71.710 38, 71.840 37.550, 71.500 37 C 71.160 36.450, 71.275 36, 71.756 36 C 72.236 36, 73.340 34.509, 74.209 32.687 C 75.888 29.167, 75.277 26.764, 72.073 24.282 C 70.077 22.736, 70.136 22.732, 66.149 24.696 M 109.155 106.777 C 107.332 107.755, 105.100 109.775, 104.195 111.267 C 102.669 113.783, 102.669 114.097, 104.194 115.622 C 106.497 117.926, 119.022 118.658, 122.755 116.707 C 131.010 112.394, 131.160 112.279, 129.285 111.705 C 128.303 111.405, 124.191 109.773, 120.146 108.079 C 116.102 106.386, 112.720 105, 112.631 105 C 112.542 105, 110.978 105.800, 109.155 106.777 M 211 192 C 209.887 192.720, 210.481 192.973, 213.309 192.985 C 215.597 192.994, 216.871 192.601, 216.500 192 C 215.719 190.736, 212.956 190.736, 211 192" stroke="none" fill="black" fill-rule="evenodd"/>
</svg>