<svg xmlns="http://www.w3.org/2000/svg" width="256" height="256" viewBox="0 0 256 256" version="1.1">
	<path d="M 63.228 27.926 C 61.618 29.536, 59.700 33.023, 58.965 35.676 C 58.230 38.329, 55.506 43.283, 52.911 46.684 C 48.190 52.871, 44.773 60.361, 43.448 67.427 C 42.888 70.412, 41.736 71.911, 37.871 74.688 C 35.192 76.613, 32.998 78.708, 32.995 79.344 C 32.993 79.980, 31.610 84.051, 29.922 88.390 C 27.203 95.379, 27.023 96.451, 28.342 97.770 C 30.765 100.194, 34.454 98.459, 39.544 92.500 C 42.128 89.475, 44.808 87, 45.499 87 C 48.849 87, 49.498 90.141, 49.714 107.406 C 50.286 153.193, 50.320 153.756, 52.628 156.068 C 57.046 160.495, 64.682 158.156, 65.093 152.250 C 65.632 144.517, 65.518 141.268, 64.644 139.500 C 63.654 137.499, 62.992 129.897, 62.988 120.500 C 62.971 77.772, 62.925 76.428, 61.337 71.915 C 59.305 66.141, 60.154 59.525, 63.574 54.486 C 64.933 52.484, 67.208 48.550, 68.630 45.744 C 70.052 42.938, 71.842 40.015, 72.608 39.250 C 74.027 37.830, 74.402 35.715, 74.129 30.667 C 73.799 24.549, 68.050 23.104, 63.228 27.926 M 152.193 34.397 C 150.977 35.047, 149.358 36.471, 148.595 37.561 C 146.897 39.985, 144 54.947, 144 61.293 C 144 63.843, 143.380 67.858, 142.621 70.215 C 141.863 72.572, 140.469 76.975, 139.524 80 C 138.578 83.025, 136.089 89.100, 133.991 93.500 C 131.894 97.900, 129.863 103.028, 129.477 104.897 C 127.242 115.734, 116.921 128.669, 110.095 129.190 C 106.769 129.443, 102 133.192, 102 135.553 C 102 136.257, 101.493 137.002, 100.873 137.209 C 100.253 137.416, 99.559 139.816, 99.331 142.542 C 98.541 151.970, 103.204 155.575, 109.399 150.324 C 111.232 148.771, 114.802 145.925, 117.333 144 C 119.865 142.075, 122.236 139.600, 122.603 138.500 C 122.970 137.400, 124.447 135.040, 125.885 133.256 C 127.323 131.472, 129.782 128.435, 131.348 126.506 C 135.246 121.709, 137.278 122.018, 141.195 128 C 142.995 130.750, 144.813 133, 145.234 133 C 145.655 133, 146 133.492, 146 134.092 C 146 134.693, 146.900 136.329, 148 137.727 C 149.100 139.126, 150.001 141.222, 150.001 142.385 C 150.003 144.950, 154.147 150, 156.250 150 C 158.138 150, 165 142.537, 165 140.484 C 165 139.653, 165.563 138.060, 166.250 136.944 C 167.313 135.218, 167.110 134.211, 164.892 130.207 C 163.457 127.618, 161.505 125.347, 160.553 125.160 C 159.601 124.972, 157.167 123.172, 155.144 121.160 C 153.120 119.147, 150.077 116.772, 148.381 115.882 C 145.982 114.623, 145.167 113.402, 144.707 110.382 C 144.007 105.782, 145.352 97.716, 146.906 97.198 C 147.508 96.997, 148 96.173, 148 95.367 C 148 94.561, 148.726 92.496, 149.614 90.779 C 150.502 89.062, 151.446 86.272, 151.713 84.579 C 151.979 82.885, 152.641 81.225, 153.184 80.888 C 153.727 80.552, 154.086 79.977, 153.983 79.611 C 153.880 79.244, 154.808 75.245, 156.046 70.722 C 157.839 64.170, 158.317 59.682, 158.398 48.625 C 158.494 35.509, 158.388 34.708, 156.452 33.982 C 155.270 33.538, 153.469 33.714, 152.193 34.397 M 92.063 35.668 C 90.927 36.464, 88.986 39.227, 87.749 41.808 C 85.904 45.657, 85.500 48.207, 85.500 56 C 85.500 61.225, 85.893 68.650, 86.374 72.500 C 87.416 80.845, 87.417 80.875, 86.668 88.500 C 86.344 91.800, 85.788 98.526, 85.433 103.447 C 85.078 108.368, 84.168 113.341, 83.410 114.497 C 82.222 116.311, 82.255 116.919, 83.650 118.911 C 85.136 121.033, 85.767 121.170, 91.384 120.598 C 94.748 120.255, 98.333 119.955, 99.350 119.933 C 100.368 119.910, 102.140 119.015, 103.289 117.945 C 104.578 116.745, 106.794 116, 109.079 116 C 111.116 116, 114.518 115.213, 116.641 114.250 L 120.500 112.500 119.429 108.500 C 117.287 100.501, 117.514 100.663, 109.396 101.349 C 103.537 101.845, 101.802 101.659, 100.548 100.405 C 99.496 99.353, 99.277 98.328, 99.876 97.256 C 100.365 96.383, 100.445 94.505, 100.054 93.084 C 99.662 91.663, 99.538 89.150, 99.777 87.500 C 100.016 85.850, 100.307 79.775, 100.423 74 C 100.539 68.225, 101.147 62.285, 101.773 60.800 C 102.674 58.665, 102.581 57.126, 101.327 53.446 C 100.252 50.293, 99.912 46.904, 100.272 42.937 C 100.618 39.116, 100.403 36.770, 99.651 36.185 C 97.435 34.460, 94.112 34.233, 92.063 35.668 M 118.407 47.088 C 116.178 47.728, 114.825 49.062, 113.559 51.869 C 111.823 55.719, 111.832 55.814, 114.325 60.280 C 115.712 62.764, 117.156 66.856, 117.533 69.372 C 117.910 71.888, 119.010 74.859, 119.977 75.973 C 122.044 78.357, 127.447 78.696, 129.568 76.575 C 133.025 73.118, 133.989 65.813, 131.598 61.189 C 130.826 59.697, 129.967 57.028, 129.688 55.257 C 129.409 53.486, 128.505 51.362, 127.679 50.537 C 126.854 49.711, 126.026 48.637, 125.839 48.150 C 125.271 46.665, 121.673 46.151, 118.407 47.088 M 207.750 110.689 C 204.358 111.576, 206.054 113, 210.500 113 C 214.963 113, 216.459 111.774, 213.418 110.607 C 211.716 109.954, 210.497 109.972, 207.750 110.689" stroke="none" fill="black" fill-rule="evenodd"/>
</svg>