<svg xmlns="http://www.w3.org/2000/svg" width="256" height="256" viewBox="0 0 256 256" version="1.1">
	<path d="M 91.190 21.119 C 88.326 23.919, 88 24.832, 88 30.060 C 88 33.262, 87.580 36.142, 87.066 36.459 C 85.147 37.645, 62.133 39.984, 52.306 39.992 C 42.998 39.999, 41.869 40.208, 39.326 42.396 C 36.880 44.500, 36.661 45.139, 37.531 47.646 C 38.786 51.263, 44.102 53.996, 49.884 53.998 C 54.728 54, 62.536 56.004, 61.263 56.919 C 59.364 58.283, 56.561 63.797, 55.882 67.500 C 53.905 78.293, 53.129 79.831, 46.424 86.246 L 39.849 92.538 41.997 95.269 C 44.229 98.106, 47.764 98.836, 49.735 96.865 C 50.737 95.863, 62.980 95.443, 71 96.135 C 72.375 96.253, 75.638 95.995, 78.250 95.562 C 81.543 95.015, 83 95.114, 83 95.885 C 83 96.497, 80.525 99.574, 77.500 102.722 C 74.475 105.870, 72 108.772, 72 109.171 C 72 109.570, 70.839 111.150, 69.419 112.682 C 68 114.213, 66.537 115.971, 66.169 116.588 C 64.621 119.181, 48.367 128.861, 45.424 128.943 C 43.524 128.995, 40.299 131.726, 38.617 134.706 C 37.633 136.450, 40.482 142.652, 42.850 143.920 C 47.250 146.275, 52.301 145.217, 58.922 140.555 C 62.394 138.110, 65.925 135.072, 66.769 133.805 C 67.613 132.537, 69.132 130.600, 70.144 129.500 C 75.724 123.436, 78.231 121, 78.892 121 C 79.298 121, 80.381 119.425, 81.299 117.500 C 82.307 115.386, 83.691 114, 84.795 114 C 87.308 114, 90.197 123.873, 89.948 131.618 C 89.737 138.217, 90.681 146.208, 92.128 150.065 C 93.379 153.401, 98.796 155.506, 102.172 153.968 C 105.220 152.579, 107.592 143.975, 105.833 140.687 C 104.848 138.847, 102.696 131.901, 101.516 126.750 C 101.295 125.788, 101.539 125, 102.057 125 C 102.576 125, 103 124.100, 103 123 C 103 121.900, 103.477 121, 104.059 121 C 104.641 121, 104.840 120.550, 104.500 120 C 104.160 119.450, 104.471 118.993, 105.191 118.985 C 106.142 118.974, 106.090 118.704, 105 118 C 103.804 117.227, 103.989 117.028, 105.917 117.015 C 107.246 117.007, 108.055 117.279, 107.714 117.619 C 106.927 118.407, 109.474 121, 111.035 121 C 111.682 121, 113.104 122.134, 114.194 123.520 C 115.285 124.906, 117.577 126.764, 119.289 127.650 C 121.001 128.535, 122.986 129.843, 123.699 130.556 C 124.412 131.269, 127.809 133.541, 131.248 135.604 C 134.686 137.668, 138.573 140.176, 139.885 141.178 C 143.444 143.897, 151.737 143.662, 155.080 140.749 C 159.470 136.922, 160.094 134.940, 157.885 131.838 C 156.462 129.841, 154.749 128.935, 151.460 128.442 C 148.994 128.072, 146.725 127.364, 146.419 126.868 C 146.112 126.373, 145.445 126.225, 144.935 126.540 C 144.425 126.855, 143.533 126.068, 142.951 124.791 C 141.631 121.895, 123.807 112.905, 119.494 112.961 C 117.038 112.993, 116.234 112.406, 115.099 109.750 C 114.334 107.963, 113.183 105.825, 112.541 105 C 110.275 102.089, 111.466 100.002, 117.056 97.088 C 121.605 94.717, 126.200 90.533, 125.273 89.606 C 124.939 89.273, 125.417 89, 126.333 89 C 127.250 89, 128 88.550, 128 88 C 128 87.450, 128.675 87, 129.500 87 C 130.325 87, 131 87.450, 131 88 C 131 88.550, 131.459 89, 132.020 89 C 132.581 89, 134.841 90.137, 137.043 91.527 C 143.952 95.889, 156 95.402, 156 90.761 C 156 89.706, 154.294 87.102, 152.208 84.975 C 148.682 81.377, 147.964 81.085, 141.958 80.803 C 137.448 80.591, 135.575 80.123, 135.750 79.250 C 135.888 78.563, 135.386 78, 134.636 78 C 132.924 78, 133.106 67.494, 134.849 65.751 C 138.053 62.547, 134.102 57, 128.615 57 C 126.043 57, 124.806 57.647, 123.466 59.693 C 122.495 61.174, 120.513 63.536, 119.060 64.943 C 116.155 67.756, 114.104 72.861, 113.540 78.679 C 113.192 82.270, 112.323 83.373, 105.515 88.875 C 104.963 89.320, 103.752 88.683, 102.765 87.428 C 100.877 85.029, 100.373 81, 101.960 81 C 102.488 81, 102.944 79.763, 102.974 78.250 C 103.083 72.718, 103.723 55.468, 103.859 54.371 C 103.937 53.751, 105.355 52.681, 107.011 51.995 C 110.350 50.613, 115.360 51.128, 122.651 53.603 C 127.046 55.095, 127.655 55.066, 133.672 53.091 C 137.176 51.941, 142.195 51, 144.827 51 C 153.618 51, 158.693 44.268, 153.683 39.253 C 152.122 37.690, 149.144 37.468, 126.216 37.200 C 112.073 37.036, 100.121 36.521, 99.658 36.058 C 99.194 35.594, 99.256 34.379, 99.795 33.357 C 101.751 29.649, 102.045 22.998, 100.365 20.434 C 98.201 17.132, 95.025 17.369, 91.190 21.119 M 68.500 53.736 C 67.400 54.014, 65.612 54.861, 64.527 55.620 C 62.887 56.768, 62.832 57, 64.200 57 C 65.996 57, 73 64.617, 73 66.571 C 73 67.237, 72.110 69.743, 71.022 72.141 C 67.993 78.815, 68.351 80.043, 74.550 84.250 C 77.589 86.313, 80.509 88, 81.038 88 C 81.567 88, 82 88.416, 82 88.923 C 82 90.690, 88.136 86.773, 89.023 84.440 C 89.514 83.148, 89.640 78.358, 89.302 73.795 C 88.472 62.574, 88.471 61.896, 89.289 58.822 C 90.503 54.263, 88.121 52.982, 78.679 53.116 C 74.180 53.180, 69.600 53.459, 68.500 53.736 M 95.500 109 C 95.160 109.550, 95.359 110, 95.941 110 C 96.523 110, 97 109.550, 97 109 C 97 108.450, 96.802 108, 96.559 108 C 96.316 108, 95.840 108.450, 95.500 109 M 194 136 C 194 136.550, 195.098 137, 196.441 137 C 197.784 137, 199.160 136.550, 199.500 136 C 199.861 135.417, 198.844 135, 197.059 135 C 195.377 135, 194 135.450, 194 136" stroke="none" fill="black" fill-rule="evenodd"/>
</svg>