<svg xmlns="http://www.w3.org/2000/svg" width="256" height="256" viewBox="0 0 256 256" version="1.1">
	<path d="M 115.001 23.978 C 114.032 24.590, 113.324 27.154, 113.001 31.213 L 112.500 37.500 102.748 38.136 C 92.449 38.808, 89.350 40.011, 86.431 44.465 C 82.330 50.723, 86.796 53.249, 100.500 52.424 C 108.255 51.956, 110.916 52.136, 112.352 53.221 C 114.616 54.934, 115.706 62.813, 114.094 65.824 C 113.048 67.778, 112.215 67.927, 103.231 67.758 C 91.779 67.542, 84.410 69.137, 80.621 72.651 C 77.081 75.933, 77.541 78.762, 82 81.148 C 85.108 82.810, 87.149 82.964, 100.217 82.516 C 118.878 81.878, 123.889 83.605, 117.434 88.452 C 116.023 89.512, 114.246 91.869, 113.485 93.689 C 112.725 95.510, 111.742 97.034, 111.301 97.077 C 110.860 97.119, 109.600 97.322, 108.500 97.529 C 107.400 97.736, 103.350 98.176, 99.500 98.507 C 87.005 99.580, 83.010 101.733, 85.081 106.278 C 86.496 109.384, 89.901 111, 95.033 111 C 97.199 111, 100.890 111.443, 103.236 111.984 C 105.581 112.525, 108.692 113.198, 110.150 113.478 C 112.677 113.964, 112.801 114.278, 112.821 120.244 C 112.833 123.768, 112.263 127.404, 111.516 128.570 C 110.078 130.815, 104.965 132.201, 91.566 133.979 C 87.202 134.558, 82.263 135.830, 80.591 136.807 C 76.711 139.073, 75.252 143.663, 77.149 147.632 C 79.187 151.896, 83.983 152.762, 93.166 150.524 C 99.161 149.063, 105.430 148.703, 127.500 148.552 C 155.234 148.363, 157.881 148.009, 159.856 144.227 C 160.352 143.277, 160.559 141.150, 160.316 139.500 C 160.073 137.850, 159.827 135.961, 159.770 135.302 C 159.602 133.354, 155.047 132.165, 146.062 131.723 C 140.683 131.459, 135.992 131.800, 133.121 132.664 C 130.314 133.509, 128.265 133.665, 127.680 133.080 C 126.427 131.827, 125.810 127.867, 125.640 120 L 125.500 113.500 133.877 113.344 C 142.428 113.186, 150.706 111.485, 152.500 109.519 C 155.480 106.253, 155.914 104.232, 154.006 102.506 C 152.482 101.127, 149.787 100.761, 139.813 100.579 C 127.566 100.357, 127.499 100.342, 127.301 97.928 C 126.999 94.231, 126.580 92.799, 124.715 89.096 C 122.499 84.698, 122.523 84.539, 125.610 83.132 C 127.604 82.223, 129.598 82.214, 134.058 83.091 C 142.989 84.848, 152.364 83.946, 155.468 81.030 C 158.474 78.206, 158.875 73.018, 156.287 70.430 C 154.786 68.929, 153.011 68.786, 141.965 69.278 C 135.031 69.586, 128.861 69.532, 128.255 69.157 C 127.602 68.754, 127.280 66.239, 127.465 62.988 C 127.978 53.988, 127.927 54.030, 137.946 54.186 C 145.139 54.298, 147.155 53.982, 149.266 52.411 C 153.980 48.905, 153.327 43.416, 147.785 39.970 C 144.901 38.177, 143.503 38.007, 136.327 38.576 C 126.506 39.354, 125.144 38.575, 125.747 32.526 C 126.077 29.224, 125.677 27.943, 123.624 25.729 C 121.050 22.951, 117.701 22.271, 115.001 23.978 M 63.373 27.487 C 61.364 29.071, 59.639 31.807, 58.549 35.140 C 57.616 37.993, 55.044 42.990, 52.833 46.245 C 47.777 53.691, 43.876 62.149, 43.323 66.863 C 43.008 69.551, 41.847 71.437, 38.876 74.090 C 35.929 76.721, 33.944 79.926, 31.444 86.090 C 27.492 95.836, 27.277 97.636, 29.962 98.488 C 32.673 99.348, 35.705 97.520, 41.130 91.753 C 45.375 87.241, 45.935 86.943, 47.880 88.157 C 49.353 89.077, 50.023 90.552, 50.077 92.991 C 50.319 104.064, 50.049 132.286, 49.657 136.850 C 49.297 141.043, 49.731 143.420, 51.663 147.850 C 53.018 150.957, 54.860 154.063, 55.755 154.750 C 58.091 156.545, 61.427 156.290, 63.345 154.171 C 65.036 152.303, 65.601 146.935, 64.250 145.583 C 63.837 145.171, 63.388 135.533, 63.251 124.167 C 62.965 100.523, 62.335 76.320, 61.937 73.750 C 61.789 72.787, 61.364 72, 60.994 72 C 60.624 72, 59.791 70.838, 59.144 69.417 C 57.566 65.952, 59.166 60.046, 63.458 53.500 C 65.261 50.750, 67.086 47.375, 67.514 46 C 67.942 44.625, 69.255 41.925, 70.432 40 C 72.866 36.017, 75 31.342, 75 29.992 C 75 28.349, 70.671 25, 68.561 25.011 C 67.428 25.017, 65.093 26.132, 63.373 27.487" stroke="none" fill="black" fill-rule="evenodd"/>
</svg>