<svg xmlns="http://www.w3.org/2000/svg" width="256" height="256" viewBox="0 0 256 256" version="1.1">
	<path d="M 64.289 25.772 C 63.073 26.723, 58.738 34.250, 54.654 42.500 C 46.981 58.005, 45.176 62.537, 44.788 67.269 C 44.646 68.999, 43.447 70.875, 41.593 72.269 C 35.650 76.737, 34.286 79.016, 29.487 92.496 C 28.282 95.880, 28.274 96.703, 29.434 97.862 C 31.888 100.316, 36.127 97.861, 41.395 90.935 C 45.147 86.004, 46.882 84.500, 48.823 84.500 C 52.400 84.500, 52.943 87.422, 53.005 106.985 C 53.033 116.068, 53.071 125.075, 53.089 127 C 53.107 128.925, 52.807 133.076, 52.423 136.224 C 51.112 146.979, 55.263 156, 61.522 156 C 64.246 156, 64.946 155.445, 66.462 152.085 C 67.783 149.155, 68.067 146.858, 67.592 142.954 C 67.243 140.086, 66.751 137.406, 66.499 136.998 C 66.247 136.590, 65.940 125.737, 65.816 112.879 C 65.655 96.111, 65.094 86.531, 63.831 79 C 61.281 63.792, 61.451 60.030, 65.011 52.977 C 66.668 49.696, 67.976 46.896, 67.920 46.756 C 67.616 46.005, 71.335 38, 71.987 38 C 72.774 38, 75.290 32.603, 75.655 30.133 C 75.961 28.064, 71.396 23.997, 68.795 24.022 C 67.533 24.034, 65.505 24.822, 64.289 25.772 M 115.313 24.786 C 114.659 25.201, 113.632 26.837, 113.030 28.422 C 112.127 30.795, 112.323 32.241, 114.142 36.629 C 116.285 41.801, 116.296 42.015, 114.520 43.978 C 112.319 46.410, 109.602 46.520, 103.441 44.428 C 99.210 42.992, 98.111 42.999, 90.656 44.506 C 82.197 46.216, 79.411 47.823, 77.857 51.890 C 76.674 54.984, 78.899 57.571, 83.483 58.431 C 85.326 58.777, 98.570 59.284, 112.913 59.558 C 142.862 60.131, 155.188 59.112, 158.748 55.767 C 161.800 52.900, 161.667 48.577, 158.429 45.338 C 156.169 43.078, 155.353 42.855, 151.679 43.495 C 144.581 44.731, 133.613 45.647, 131.266 45.199 C 128.897 44.747, 127.016 40.113, 127.006 34.700 C 126.992 27.733, 120.001 21.805, 115.313 24.786 M 94.270 66.308 C 88.428 67.954, 85.622 70.895, 86.861 74.071 C 88.008 77.012, 91.623 80.964, 93.289 81.097 C 95.405 81.266, 112.235 80.870, 119.500 80.480 C 123.350 80.273, 129.701 80.608, 133.613 81.224 C 140.077 82.242, 141.034 82.164, 144.103 80.372 C 145.960 79.287, 148.157 77.193, 148.985 75.718 C 150.411 73.177, 150.344 72.889, 147.725 70.268 C 144.967 67.507, 144.914 67.498, 126.730 66.808 C 116.703 66.428, 106.250 65.891, 103.500 65.616 C 100.750 65.340, 96.596 65.652, 94.270 66.308 M 90.250 86.972 C 87.080 89.577, 87.462 92.124, 91.427 94.824 C 96.831 98.504, 105.625 100.444, 110.144 98.953 C 112.183 98.280, 114.672 98.051, 115.676 98.444 C 118.125 99.404, 124.004 100.017, 132.639 100.213 C 140.105 100.383, 141.421 99.882, 147.369 94.607 C 150.751 91.608, 150.376 89.763, 145.918 87.458 C 143.269 86.088, 138.510 85.753, 117.617 85.467 C 94.366 85.148, 92.333 85.260, 90.250 86.972 M 89.533 108.641 C 84.091 111.668, 84.112 111.592, 84.211 127.500 C 84.282 139.001, 84.225 146.087, 84.036 149.343 C 83.943 150.954, 84.564 152.692, 85.469 153.354 C 87.706 154.989, 142.722 155.463, 147.967 153.892 C 151.138 152.942, 151.946 152.123, 152.918 148.878 C 153.557 146.745, 154.625 144.993, 155.290 144.985 C 156.043 144.975, 155.934 144.604, 155 144 C 154.175 143.467, 153.893 143.024, 154.372 143.015 C 154.852 143.007, 154.704 142.349, 154.044 141.553 C 152.773 140.021, 153.567 129, 154.949 129 C 155.344 129, 155.667 128.325, 155.667 127.500 C 155.667 126.675, 155.067 126, 154.333 126 C 153.600 126, 152.939 125.662, 152.864 125.250 C 152.339 122.360, 152.454 117.060, 153.092 114.765 C 153.744 112.418, 153.402 111.709, 150.676 109.765 C 147.951 107.822, 146.435 107.536, 140 107.754 C 131.345 108.047, 131.873 108.052, 109.500 107.449 C 94.984 107.057, 92.066 107.231, 89.533 108.641 M 125.500 121.082 C 123.300 121.524, 118.125 121.937, 114 122.002 C 105.859 122.129, 97.398 123.269, 96.278 124.388 C 95.892 124.775, 96.100 125.930, 96.741 126.957 C 97.661 128.430, 97.612 128.935, 96.510 129.358 C 95.053 129.917, 95.303 133.932, 96.982 136.933 C 98.986 140.516, 133.483 141.709, 138.750 138.377 C 141.760 136.473, 141.981 130.069, 139.063 129.306 C 137.475 128.891, 137.290 128.368, 138.036 126.405 C 138.780 124.448, 138.541 123.758, 136.723 122.624 C 133.537 120.638, 130.083 120.163, 125.500 121.082 M 163.917 164.402 C 163.871 164.456, 163.721 165.512, 163.584 166.750 C 163.372 168.655, 163.812 169, 166.449 169 C 169.027 169, 169.599 168.580, 169.765 166.567 C 169.938 164.473, 169.552 164.147, 166.983 164.220 C 165.342 164.266, 163.963 164.348, 163.917 164.402" stroke="none" fill="black" fill-rule="evenodd"/>
</svg>