<svg xmlns="http://www.w3.org/2000/svg" width="256" height="256" viewBox="0 0 256 256" version="1.1">
	<path d="M 65.266 24.584 C 63.081 26.395, 61.938 28.408, 61.447 31.312 C 60.686 35.817, 59.194 38.511, 54.931 43.074 C 51.009 47.272, 43.150 60.764, 41.871 65.494 C 41.277 67.691, 39.358 71.075, 37.606 73.014 C 35.425 75.428, 34.006 78.424, 33.104 82.520 C 32.379 85.809, 31.246 89.175, 30.586 90 C 26.360 95.285, 27.001 99, 32.138 99 C 34.245 99, 36.215 97.502, 40.688 92.501 C 43.885 88.926, 46.860 86.001, 47.301 86.001 C 47.742 86, 48.751 87.552, 49.543 89.449 C 50.686 92.184, 50.945 98.032, 50.793 117.699 C 50.627 139.379, 50.816 142.877, 52.295 145.500 C 53.226 147.150, 53.990 149.037, 53.994 149.693 C 54.011 152.955, 62.937 155.513, 64.663 152.750 C 66.399 149.971, 66.738 144.120, 65.577 137 C 64.926 133.013, 64.129 115.713, 63.389 89.531 C 63.109 79.647, 62.429 71.017, 61.877 70.352 C 61.326 69.687, 60.645 67.057, 60.364 64.507 C 59.826 59.608, 60.976 56.933, 65.617 52.292 C 66.888 51.021, 68.431 48.114, 69.046 45.831 C 70.254 41.342, 72.192 37.922, 75.741 34.010 C 78.672 30.780, 78.605 27.514, 75.545 24.455 C 72.394 21.303, 69.178 21.344, 65.266 24.584 M 103.726 24.410 C 102.750 25.150, 101.039 28.457, 99.924 31.758 C 98.810 35.059, 96.423 39.501, 94.621 41.630 C 92.818 43.758, 90.032 47.975, 88.429 51 C 86.827 54.025, 85.210 56.730, 84.837 57.010 C 84.464 57.291, 83.857 58.866, 83.489 60.510 C 83.120 62.155, 81.847 65.415, 80.659 67.756 C 78.663 71.692, 78.615 72.220, 80.031 74.756 C 81.784 77.897, 87.103 79.040, 89.378 76.765 C 91.245 74.898, 94 69.429, 94 67.590 C 94 65.363, 99.003 61.103, 102.884 60.026 C 107.718 58.685, 111.599 60.893, 112.948 65.752 C 113.520 67.813, 114.011 73.550, 114.038 78.500 C 114.065 83.450, 114.473 89.497, 114.944 91.938 C 115.551 95.083, 115.432 96.976, 114.537 98.438 C 113.193 100.632, 113.277 102.803, 114.985 110 C 116.476 116.287, 117.618 125.166, 117.202 127.250 C 117.010 128.213, 116.266 129, 115.549 129 C 113.304 129, 111.869 131.698, 111.099 137.365 C 110.280 143.404, 111.431 146.753, 115.700 150.750 C 121.934 156.587, 128.199 150.770, 127.441 139.850 C 127.227 136.781, 126.591 133.054, 126.026 131.570 C 124.545 127.674, 124.762 124.381, 126.622 122.521 C 128.003 121.140, 130.634 120.932, 144.372 121.120 C 153.242 121.241, 161.464 121.024, 162.642 120.637 C 163.821 120.250, 165.370 118.486, 166.086 116.717 C 166.801 114.948, 167.776 113.232, 168.253 112.904 C 171.253 110.840, 152.339 105.328, 138.886 104.346 C 133.573 103.958, 129.859 103.176, 128.750 102.212 C 126.448 100.210, 126.524 95.810, 128.910 92.863 C 130.690 90.664, 131.566 90.494, 141.865 90.342 C 157.230 90.115, 158.407 89.754, 161.424 84.357 L 163.942 79.851 161.555 77.464 C 159.261 75.171, 158.613 75.078, 144.997 75.097 C 134.057 75.112, 130.304 74.774, 128.536 73.616 C 125.737 71.782, 124.450 67.368, 126.125 65.350 C 129.184 61.663, 133.740 60.763, 150.096 60.614 C 163.646 60.491, 166 59.726, 166 55.446 C 166 52.393, 161.529 49.287, 155.366 48.059 C 152.690 47.526, 142.850 46.879, 133.500 46.621 C 124.150 46.363, 115.709 45.844, 114.741 45.466 C 112.338 44.528, 111.629 40.997, 112.915 36.366 C 114.538 30.521, 114.241 28.150, 111.545 25.455 C 108.811 22.720, 106.381 22.395, 103.726 24.410 M 180.500 216 C 180.139 216.583, 181.156 217, 182.941 217 C 184.623 217, 186 216.550, 186 216 C 186 215.450, 184.902 215, 183.559 215 C 182.216 215, 180.840 215.450, 180.500 216" stroke="none" fill="black" fill-rule="evenodd"/>
</svg>