<svg xmlns="http://www.w3.org/2000/svg" width="256" height="256" viewBox="0 0 256 256" version="1.1">
	<path d="M 64.793 25.290 C 63.303 26.509, 61.373 29.531, 60.503 32.004 C 59.633 34.477, 57.139 39.504, 54.960 43.175 C 52.782 46.846, 51 50.273, 51 50.790 C 51 51.307, 50.149 52.812, 49.109 54.134 C 47.357 56.362, 45.914 60.492, 44.526 67.250 C 44.216 68.763, 43.311 70, 42.516 70 C 41.720 70, 39.520 71.361, 37.625 73.024 C 34.828 75.480, 34.048 77.031, 33.474 81.274 C 33.084 84.148, 32.548 87.400, 32.281 88.500 C 31.256 92.727, 31.242 96, 32.249 96 C 33.378 96, 41.346 87.775, 44.297 83.564 C 45.333 82.085, 47.060 81, 48.378 81 C 52.403 81, 53.115 84.201, 52.832 101.020 C 52.400 126.701, 52.955 143.565, 54.366 147.675 C 55.548 151.118, 60.707 156, 63.163 156 C 63.639 156, 64.833 154.679, 65.815 153.064 C 67.690 149.980, 67.740 148.027, 66.623 121.500 C 66.368 115.450, 65.917 101.824, 65.620 91.220 C 65.324 80.617, 64.826 71.527, 64.514 71.022 C 64.202 70.517, 63.742 67.121, 63.492 63.475 C 63.125 58.128, 63.438 56.062, 65.110 52.784 C 66.250 50.549, 67.383 47.618, 67.627 46.271 C 68.226 42.968, 70.610 39.486, 73.623 37.511 C 77.186 35.177, 78.071 32.111, 76.226 28.500 C 73.232 22.643, 69.354 21.554, 64.793 25.290 M 152.188 34.054 C 147.821 35.806, 137.480 36.898, 123.500 37.085 C 99.920 37.401, 88.403 38.577, 84.976 41.017 C 81.604 43.418, 81.258 45.496, 83.660 48.925 L 85.320 51.295 105.910 50.453 C 139.692 49.070, 139.542 49.038, 140.347 57.735 C 141.203 66.985, 140.993 78.191, 139.885 82.370 C 139.134 85.200, 139.205 87.619, 140.148 91.370 C 140.857 94.192, 141.332 97.400, 141.202 98.500 C 141.073 99.600, 140.810 104.100, 140.619 108.500 C 140.178 118.611, 138.582 128.095, 136.855 130.860 C 136.065 132.126, 134.491 133, 133.003 133 C 130.937 133, 130.261 133.725, 129.222 137.053 C 127.369 142.990, 129.555 147.132, 136.005 149.907 C 142.569 152.731, 143.555 152.594, 147.961 148.250 C 150.873 145.379, 151.905 143.445, 152.365 140 C 153.277 133.175, 153.591 118, 152.820 118 C 152.446 118, 152.474 116.762, 152.884 115.250 C 153.293 113.737, 153.467 109.800, 153.271 106.500 C 152.684 96.616, 152.724 92.800, 153.481 86.500 C 153.878 83.200, 154.234 74.059, 154.273 66.187 C 154.340 52.691, 154.470 51.776, 156.537 50.150 C 162.314 45.606, 163.067 35.056, 157.717 33.622 C 155.032 32.902, 155.067 32.899, 152.188 34.054 M 87.236 66.631 C 83.552 68.473, 82.501 71.245, 83.281 77.060 C 83.572 79.227, 83.402 81.251, 82.905 81.559 C 81.852 82.209, 81.727 90.097, 82.632 98.752 C 83.584 107.859, 85.858 110.155, 95.114 111.355 C 111.791 113.516, 122.577 112.102, 125.693 107.346 C 128.174 103.560, 128.241 71.926, 125.777 67.873 C 124.264 65.386, 123.653 65.123, 120.777 65.723 C 116.301 66.657, 96.085 66.676, 93 65.749 C 91.362 65.257, 89.374 65.561, 87.236 66.631 M 98.215 79.780 C 94.885 82.063, 96.257 96.997, 99.980 98.989 C 100.953 99.510, 103.625 100.236, 105.917 100.603 C 109.434 101.165, 110.468 100.909, 112.542 98.960 C 114.636 96.993, 115 95.740, 115 90.500 C 115 85.316, 114.626 83.997, 112.622 82.115 C 110.048 79.697, 100.575 78.162, 98.215 79.780 M 162 175.500 C 162 177.585, 162.457 177.983, 164.750 177.900 C 166.262 177.845, 168.607 177.492, 169.961 177.114 C 172.372 176.442, 172.349 176.394, 168.810 174.714 C 163.725 172.301, 162 172.500, 162 175.500 M 150.813 216.683 C 151.534 216.972, 152.397 216.936, 152.729 216.604 C 153.061 216.272, 152.471 216.036, 151.417 216.079 C 150.252 216.127, 150.015 216.364, 150.813 216.683" stroke="none" fill="black" fill-rule="evenodd"/>
</svg>