<svg xmlns="http://www.w3.org/2000/svg" width="256" height="256" viewBox="0 0 256 256" version="1.1">
	<path d="M 113.455 24.455 C 111.949 25.960, 111 28.059, 111 29.883 C 111 34.017, 108.646 35.994, 103.679 36.032 C 101.380 36.049, 95.135 36.688, 89.800 37.451 C 75.270 39.528, 74.094 39.061, 76.416 32.131 C 78.021 27.342, 72.470 22.084, 67.754 23.927 C 64.155 25.334, 61.176 28.703, 60.106 32.579 C 59.560 34.554, 57.132 38.290, 54.709 40.880 C 49.738 46.194, 43.823 59.864, 43.694 66.332 C 43.635 69.314, 42.989 70.645, 40.783 72.332 C 34.238 77.335, 33.084 78.831, 30.624 85.500 C 29.204 89.350, 27.920 93.625, 27.771 95 C 27.532 97.202, 27.923 97.536, 31.051 97.798 C 35.012 98.131, 38.139 95.654, 43.351 88.056 C 44.918 85.771, 46.718 84.069, 47.351 84.274 C 50.506 85.300, 51.107 90.062, 51.447 116.746 C 51.826 146.517, 52.579 150.696, 58.074 153.538 C 61.630 155.377, 62.489 155.368, 64.384 153.473 C 66.002 151.855, 66.025 148.582, 64.607 121 C 64.254 114.125, 63.752 104, 63.491 98.500 C 63.230 93, 62.665 86.025, 62.234 83 C 61.804 79.975, 61.472 76.375, 61.496 75 C 61.521 73.625, 60.515 71.375, 59.260 70 C 57.400 67.961, 57.088 66.771, 57.568 63.549 C 58.445 57.664, 60.243 54.524, 68.285 44.831 C 71.214 41.301, 75 40.132, 75 42.758 C 75 44.774, 78.045 48, 81.753 49.912 C 83.337 50.728, 87.855 50.870, 96.972 50.389 C 111.010 49.648, 113 50.164, 113 54.551 C 113 58.040, 110.385 60.150, 107.178 59.251 C 105.705 58.838, 101.312 58.526, 97.416 58.558 C 91.615 58.605, 89.509 59.098, 85.793 61.276 C 81.948 63.529, 81.077 64.637, 80.099 68.519 C 79.465 71.040, 79.219 73.545, 79.553 74.086 C 79.888 74.627, 80.142 77.867, 80.119 81.285 C 80.066 89.035, 84.196 100.039, 87.948 102.144 C 90.171 103.392, 90.962 103.256, 95.957 100.768 C 103.223 97.150, 107.702 97.085, 109.030 100.579 C 109.868 102.782, 109.717 107.798, 108.794 108.454 C 103.235 112.405, 98.083 113.134, 94.559 110.468 C 92.031 108.556, 89.573 108.605, 87.916 110.601 C 84.716 114.457, 86.364 119.419, 92.520 124.463 C 95.221 126.677, 96.699 128.644, 96.489 129.745 C 96.304 130.710, 96.119 131.801, 96.077 132.168 C 95.926 133.479, 89.436 136.844, 85.733 137.530 C 83.662 137.915, 80.639 139.469, 79.016 140.985 C 76.383 143.445, 76.165 144.090, 76.995 146.983 C 78.780 153.205, 82.545 154.265, 91.271 151 C 95.056 149.584, 97.475 147.850, 99.558 145.062 C 101.176 142.896, 103.175 140.867, 104 140.553 C 109.480 138.466, 110.939 138.308, 113.636 139.505 C 115.211 140.204, 121.225 142.476, 127 144.554 C 132.775 146.632, 139.188 149.166, 141.250 150.186 C 143.313 151.206, 145 151.717, 145 151.320 C 145 150.924, 145.493 151.093, 146.096 151.696 C 146.891 152.491, 148.746 151.978, 152.846 149.829 C 155.956 148.199, 158.927 146.446, 159.450 145.933 C 159.972 145.420, 161.322 144.984, 162.450 144.964 C 164.083 144.934, 163.351 143.844, 158.857 139.607 C 154.018 135.044, 152.481 134.189, 148.067 133.603 C 145.236 133.228, 141.925 132.484, 140.710 131.951 C 139.494 131.417, 133.366 130.423, 127.091 129.740 C 114.745 128.398, 113.837 127.797, 116.476 122.710 C 117.177 121.359, 117.750 118.994, 117.750 117.455 C 117.750 115.915, 118.481 114.121, 119.375 113.468 C 120.269 112.814, 121 111.124, 121 109.711 C 121 108.299, 121.675 106.468, 122.500 105.643 C 123.325 104.818, 124 103.645, 124 103.036 C 124 102.428, 124.733 100.810, 125.630 99.442 C 127.008 97.338, 127.972 96.978, 131.880 97.107 C 141.492 97.424, 150.474 96.781, 152.073 95.661 C 153.677 94.538, 154 93.949, 154 92.153 C 154 91.687, 154.804 90.379, 155.787 89.246 C 156.770 88.112, 157.512 85.906, 157.435 84.342 C 157.359 82.779, 157.752 81.204, 158.309 80.841 C 158.866 80.479, 159.393 77.306, 159.479 73.790 C 159.650 66.837, 160.308 65, 162.630 65 C 163.896 65, 163.924 64.781, 162.801 63.658 C 159.493 60.350, 154.901 59.401, 137.516 58.432 C 127.849 57.893, 125.995 57.369, 126.015 55.183 C 126.053 51.015, 127.332 50.619, 141.473 50.392 C 157.452 50.135, 160 49.183, 160 43.467 C 160 37.148, 158.159 36.500, 140.216 36.500 L 124.500 36.500 123.939 31.611 C 123.517 27.937, 122.695 26.134, 120.633 24.361 C 117.199 21.407, 116.493 21.416, 113.455 24.455 M 130.251 72.813 C 126.789 73.147, 125.649 74.560, 124.670 79.730 C 124.194 82.242, 124.551 83.474, 126.279 85.278 C 128.440 87.534, 128.665 87.560, 134.626 86.238 C 137.995 85.491, 141.707 83.990, 142.876 82.901 C 145.227 80.711, 145.719 75.829, 143.750 74.230 C 142.347 73.090, 135.180 72.338, 130.251 72.813 M 95.635 75.073 C 93.610 76.665, 93 78.029, 93 80.966 C 93 83.527, 93.521 84.986, 94.582 85.393 C 97.334 86.449, 106.400 86.021, 109 84.712 C 112.070 83.167, 112.790 78.855, 110.550 75.435 C 109.188 73.358, 108.169 73, 103.612 73 C 99.722 73, 97.554 73.563, 95.635 75.073" stroke="none" fill="black" fill-rule="evenodd"/>
</svg>