<svg xmlns="http://www.w3.org/2000/svg" width="256" height="256" viewBox="0 0 256 256" version="1.1">
	<path d="M 65.770 25.101 C 64.166 26.298, 62.588 28.817, 61.943 31.210 C 61.340 33.450, 59.644 37.080, 58.173 39.278 C 46.606 56.565, 45.492 58.645, 44.544 64.709 C 44.098 67.565, 42.749 69.611, 39.074 73.004 C 34.919 76.840, 34.086 78.245, 33.450 82.483 C 33.040 85.220, 31.646 89.355, 30.352 91.672 C 27.227 97.269, 27.365 98, 31.547 98 C 34.459 98, 35.397 97.456, 36.797 94.954 C 41.429 86.673, 45.705 81.490, 48.145 81.199 C 53.268 80.590, 53.434 81.656, 53.468 115.366 C 53.500 146.292, 53.515 146.522, 55.816 149.748 C 58.161 153.035, 61.791 154.678, 64.453 153.657 C 67.375 152.535, 69.866 145.702, 69.581 139.591 C 69.433 136.412, 68.904 133.515, 68.406 133.155 C 66.877 132.049, 66.759 130.296, 66.490 104.500 C 66.317 87.943, 65.797 77.980, 64.949 75 C 62.363 65.913, 63.915 54.508, 68.486 49 C 69.171 48.175, 70.012 46.375, 70.355 45 C 70.698 43.625, 72.384 40.925, 74.101 39 C 79.461 32.993, 79.956 29.561, 76.103 25.119 C 73.770 22.428, 69.361 22.421, 65.770 25.101 M 112.073 27.635 C 110.408 29.751, 109.986 31.768, 109.927 37.885 C 109.805 50.609, 105.503 54.964, 96.244 51.738 C 93.635 50.829, 90.288 50.338, 88.806 50.648 C 85.209 51.401, 78 57.674, 78 60.052 C 78 62.974, 83.052 65, 90.340 65 C 95.027 65, 97.377 65.485, 98.980 66.783 C 101.151 68.540, 101.159 68.645, 99.539 74.033 C 98.024 79.075, 96.531 82.754, 92.888 90.423 C 90.460 95.535, 89.545 97, 88.781 97 C 87.556 97, 81.013 103.727, 80.838 105.167 C 80.220 110.257, 80.414 115.694, 81.252 116.750 C 82.794 118.691, 87.705 118.260, 89.255 116.047 C 90.822 113.809, 94.716 112.185, 97.180 112.741 C 99.193 113.195, 100.961 120.306, 101.597 130.500 C 102.347 142.540, 102.913 145.937, 104.597 148.508 C 106.575 151.527, 107.449 151.579, 112.317 148.970 C 115.746 147.132, 117.806 146.950, 134.067 147.047 C 146.552 147.122, 152.898 146.770, 154.877 145.894 C 157.653 144.665, 157.739 144.393, 158.367 134.820 C 158.720 129.422, 158.606 123.092, 158.113 120.753 C 157.620 118.414, 157.313 112, 157.430 106.500 C 157.645 96.502, 156.934 91.534, 155.015 89.615 C 153.891 88.491, 141.084 86.715, 134 86.699 C 131.525 86.694, 126.233 87.050, 122.240 87.491 C 116.053 88.173, 114.700 88.039, 113.088 86.580 C 111.065 84.749, 110.936 83.024, 112.659 80.851 C 113.248 80.108, 113.982 77.521, 114.289 75.103 C 115.290 67.244, 116.361 66.798, 136.691 65.788 C 146.486 65.301, 156.211 64.451, 158.303 63.899 C 165.918 61.888, 168.367 56.007, 163.261 51.990 C 160.258 49.628, 161.316 49.603, 141.667 52.498 C 126.372 54.752, 123.731 54.147, 122.932 48.206 C 122.606 45.786, 122.920 42.387, 123.667 40.242 C 125.736 34.301, 125.333 31.179, 122.077 27.923 C 118.392 24.238, 114.826 24.135, 112.073 27.635 M 115.750 100.689 C 114.787 100.941, 114 101.976, 114 102.990 C 114 104.004, 113.509 104.997, 112.908 105.197 C 111.035 105.822, 112.051 118.185, 114.638 126.251 C 116.416 131.796, 117.993 132.527, 128 132.449 C 134.900 132.395, 140.920 129.987, 143.553 126.227 C 145.093 124.029, 145.780 107.379, 144.387 105.989 C 143.592 105.195, 138.140 103.514, 128 100.937 C 124.362 100.013, 118.772 99.900, 115.750 100.689" stroke="none" fill="black" fill-rule="evenodd"/>
</svg>