<svg xmlns="http://www.w3.org/2000/svg" width="256" height="256" viewBox="0 0 256 256" version="1.1">
	<path d="M 113.387 23.267 C 110.924 25.205, 110.791 25.722, 111.357 31.140 L 111.963 36.938 101.231 37.141 C 80.441 37.532, 78.157 37.493, 77.396 36.731 C 76.974 36.308, 76.728 34.033, 76.850 31.675 C 77.112 26.622, 74.793 23.309, 70.378 22.426 C 65.637 21.477, 60 27.795, 60 34.056 C 60 35.116, 58.652 37.271, 57.004 38.846 C 51.334 44.264, 45.061 57.008, 44.265 64.726 C 43.796 69.269, 43.058 70.789, 39.383 74.789 C 37.002 77.380, 34.794 80.674, 34.478 82.109 C 34.162 83.544, 32.350 87.129, 30.452 90.075 C 26.432 96.315, 26.377 96.596, 28.934 97.965 C 32.104 99.661, 32.822 99.289, 39.757 92.354 C 44.128 87.983, 46.560 86.180, 46.862 87.086 C 47.115 87.844, 47.924 89.067, 48.661 89.804 C 50.044 91.186, 50.383 98.229, 50.479 127.500 C 50.546 148.173, 52.965 156, 59.288 156 C 65.106 156, 65.535 154.372, 65.351 132.991 C 65.257 122.118, 64.771 113.464, 64.234 113.116 C 63.711 112.777, 63.405 111.825, 63.553 111 C 64.943 103.275, 65.130 101, 64.377 101 C 63.893 101, 63.373 98.413, 63.220 95.250 C 63.067 92.088, 62.534 88.150, 62.035 86.500 C 61.536 84.850, 60.928 80.800, 60.682 77.500 C 60.437 74.200, 59.744 70.263, 59.143 68.750 C 57.020 63.411, 59.883 55.731, 66.237 49.720 C 70.495 45.691, 71.990 45.569, 77 48.841 C 78.948 50.113, 83.032 50.587, 95.500 50.987 C 104.300 51.269, 112.063 51.864, 112.750 52.309 C 114.240 53.273, 114.391 58.842, 113.025 62.435 C 111.739 65.817, 107.371 65.870, 102.497 62.562 C 99.094 60.254, 98.666 60.196, 94.404 61.479 C 89.758 62.877, 85.063 65.497, 84.917 66.773 C 84.871 67.173, 84.704 68.625, 84.545 70 C 84.159 73.358, 86.443 77.621, 88.984 78.286 C 90.119 78.583, 92.616 78.393, 94.533 77.863 C 97.730 76.981, 105.163 77.530, 118.118 79.608 C 120.521 79.993, 122.818 79.629, 124.959 78.521 C 127.057 77.436, 129.458 77.042, 131.841 77.392 C 133.853 77.688, 139.177 78.209, 143.670 78.551 C 151.463 79.144, 151.911 79.065, 153.361 76.836 C 155.600 73.394, 155.989 68.791, 154.213 66.750 C 153.252 65.646, 151.258 65, 148.810 65 C 146.676 65, 143.933 64.347, 142.715 63.549 C 141.028 62.444, 139.547 62.319, 136.500 63.025 C 134.300 63.535, 131.949 63.963, 131.276 63.976 C 129.485 64.011, 126.830 58.298, 127.190 55.184 L 127.500 52.500 141.717 52.500 C 155.083 52.500, 156.067 52.367, 158.167 50.272 C 159.632 48.811, 160.400 46.835, 160.400 44.529 C 160.400 38.763, 158.526 38.068, 142.875 38.032 C 135.381 38.014, 127.871 37.724, 126.185 37.387 C 123.191 36.788, 123.133 36.668, 123.663 32.137 C 124.590 24.202, 118.682 19.102, 113.387 23.267 M 127.500 86.739 C 121.287 89.035, 118.758 89.360, 105 89.629 C 86.034 90, 78 91.383, 78 94.276 C 78 95.378, 77.213 96.862, 76.250 97.574 C 74.608 98.788, 74.603 99.040, 76.163 101.645 C 78.731 105.932, 85.484 107.080, 101.500 105.954 C 117.684 104.816, 129.307 105.180, 131.365 106.888 C 133.579 108.726, 134.282 111.605, 133.069 113.871 C 132.496 114.941, 131.975 119.599, 131.910 124.221 C 131.783 133.215, 130.971 135.097, 125.842 138.277 C 123.269 139.873, 120 145.044, 120 147.517 C 120 149.221, 131.530 154.200, 135.477 154.200 C 143.640 154.200, 145.024 150.451, 145.148 128 C 145.180 122.225, 144.710 116.233, 144.103 114.685 C 143.496 113.137, 143 111.275, 143 110.549 C 143 109.240, 149.138 105.756, 150.692 106.183 C 152.096 106.568, 158.996 104.941, 159.082 104.205 C 159.576 99.977, 160.285 97.442, 161.053 97.170 C 161.564 96.988, 161.307 96.164, 160.482 95.339 C 159.657 94.514, 159.237 93.425, 159.550 92.919 C 159.862 92.414, 159.559 92, 158.875 92 C 158.191 92, 155.802 91.159, 153.566 90.130 C 137.790 82.875, 137.912 82.891, 127.500 86.739 M 90.475 117.212 C 88.906 119.077, 88.239 120.580, 88.886 120.795 C 89.499 121, 90 122.240, 90 123.553 C 90 125.043, 91.934 128.017, 95.147 131.470 C 99.785 136.453, 100.701 136.998, 104.397 136.985 C 109.071 136.967, 110.230 136.395, 111.860 133.298 C 112.769 131.570, 112.727 130.824, 111.661 129.828 C 110.914 129.130, 110.504 127.788, 110.751 126.846 C 111.274 124.845, 109.203 118, 108.075 118 C 107.652 118, 106.268 117.100, 105 116 C 103.390 114.603, 101.259 114, 97.936 114 C 93.807 114, 92.820 114.425, 90.475 117.212 M 166.294 173.399 C 159.700 175.664, 160.073 177, 167.300 177 C 172.232 177, 174 176.647, 174 175.661 C 174 173.378, 169.877 172.168, 166.294 173.399" stroke="none" fill="black" fill-rule="evenodd"/>
</svg>