<svg xmlns="http://www.w3.org/2000/svg" width="256" height="256" viewBox="0 0 256 256" version="1.1">
	<path d="M 57.218 28.969 C 55.963 30.016, 54.068 33.397, 53.006 36.483 C 51.944 39.568, 50.201 43.759, 49.132 45.796 C 48.063 47.833, 45.745 53.775, 43.981 59 C 39.790 71.416, 38.512 74.226, 36.047 76.458 C 34.921 77.476, 34 79.163, 34 80.205 C 34 82.639, 31.134 88.263, 29.364 89.300 C 28.080 90.053, 25.023 95.126, 24.906 96.700 C 24.824 97.793, 28.094 98.705, 30.467 98.251 C 31.625 98.030, 34.080 96.533, 35.922 94.924 C 40.285 91.115, 42.310 91.203, 43.779 95.267 C 44.929 98.445, 45.552 113.864, 45.063 127 C 44.616 138.983, 44.751 145.475, 45.520 149 C 46.316 152.651, 50.104 157, 52.486 157 C 54.708 157, 58.557 155.300, 60.315 153.542 C 61.790 152.067, 62.214 152.059, 64.920 153.459 C 68.924 155.529, 70.547 155.403, 72.940 152.834 C 75.580 150, 79.597 137.188, 80.380 129.102 C 80.721 125.584, 81.423 122.195, 81.939 121.573 C 82.456 120.950, 82.836 118.949, 82.784 117.125 C 82.733 115.302, 83.097 113.515, 83.595 113.155 C 84.093 112.795, 84.631 109.354, 84.791 105.509 C 85.102 98.048, 85.738 96.579, 88.242 97.539 C 89.499 98.022, 89.636 98.782, 88.918 101.287 C 88.232 103.677, 88.357 104.621, 89.440 105.226 C 90.824 106.001, 90.775 108.779, 89.294 113.500 C 87.688 118.623, 88.289 120.034, 92.965 122.109 C 97.152 123.967, 97.704 124.002, 100.154 122.561 C 103.689 120.482, 105.712 120.593, 106.965 122.934 C 108.645 126.074, 108.161 128.849, 105.643 130.498 C 103.912 131.633, 103.411 132.701, 103.759 134.521 C 104.020 135.885, 104.772 137, 105.431 137 C 106.090 137, 107.388 138.590, 108.315 140.534 C 110.362 144.827, 110.371 145, 108.559 145 C 106.853 145, 106.017 146.177, 105.432 149.402 C 104.630 153.824, 112.205 156.675, 116.371 153.520 C 119.086 151.464, 117.860 145, 114.755 145 C 113.079 145, 112.867 144.733, 113.800 143.800 C 114.460 143.140, 115 141.748, 115 140.708 C 115 139.667, 115.900 137.671, 117 136.273 C 118.100 134.874, 119 134.071, 119 134.488 C 119 134.904, 119.576 134.767, 120.280 134.183 C 120.984 133.599, 124.134 133.016, 127.280 132.889 L 133 132.658 133.125 128.329 C 133.260 123.638, 133.319 123.295, 134.390 120.890 C 134.784 120.004, 135.235 118.074, 135.392 116.601 C 135.549 115.128, 136.166 113.434, 136.762 112.838 C 137.540 112.060, 137.531 111.064, 136.728 109.303 C 135.929 107.549, 135.916 106.363, 136.684 105.135 C 137.508 103.815, 137.321 102.880, 135.878 101.098 C 133.633 98.325, 133.433 93.132, 135.468 90.441 C 137.572 87.659, 137.354 86.409, 134.260 83.540 C 132.130 81.565, 130.470 81, 126.795 81 C 122.946 81, 121.851 80.591, 120.889 78.792 C 118.310 73.974, 120.236 68.004, 124.372 67.996 C 125.543 67.994, 127.963 67.101, 129.750 66.011 C 132.521 64.321, 133 63.456, 133 60.133 C 133 56.912, 132.437 55.808, 129.744 53.754 C 126.573 51.336, 126.074 51.274, 110.574 51.398 C 98.909 51.491, 94.548 51.855, 94.246 52.762 C 93.560 54.819, 87.221 54.281, 86.035 52.066 C 83.656 47.621, 86.223 43.008, 91.075 43.005 C 92.409 43.005, 103.548 43.146, 115.828 43.319 C 141.479 43.681, 140.656 43.352, 140.056 53.008 C 139.970 54.388, 140.597 57.186, 141.450 59.226 C 143.545 64.240, 143.401 68.796, 140.855 78.086 C 139.005 84.839, 138.852 86.777, 139.742 92.206 C 140.541 97.073, 140.474 99.232, 139.448 101.728 C 138.718 103.504, 138.496 105.189, 138.956 105.473 C 139.416 105.757, 139.435 107.569, 139 109.500 C 138.565 111.431, 138.551 113.222, 138.969 113.481 C 139.387 113.739, 139.555 115.537, 139.341 117.475 C 139.128 119.414, 139.376 121, 139.894 121 C 140.411 121, 141.331 123.316, 141.938 126.146 C 142.545 128.977, 144.157 133.514, 145.521 136.228 C 146.884 138.943, 148 142.027, 148 143.082 C 148 144.137, 148.378 145, 148.840 145 C 149.302 145, 150.259 146.754, 150.967 148.899 C 152.646 153.986, 155.771 155.752, 159.997 154.001 C 161.701 153.296, 163.802 151.319, 164.668 149.609 C 165.533 147.899, 166.803 145.825, 167.489 145 C 169.734 142.302, 169.976 135.490, 167.946 132.152 C 165.617 128.322, 163.147 127.001, 159.238 127.495 C 157.540 127.710, 155.721 127.349, 155.196 126.693 C 153.634 124.741, 152.146 113.940, 152.552 107.500 C 152.760 104.200, 153.160 97.675, 153.441 93 C 153.722 88.325, 154.271 79.775, 154.660 74 C 155.332 64.025, 155.268 54.400, 154.503 50.351 C 154.310 49.333, 154.119 45.324, 154.077 41.441 C 153.953 30.071, 156.743 30.913, 117.188 30.308 L 82.972 29.784 79.367 32.533 C 73.022 37.373, 71.880 41.643, 72.511 58.184 C 72.811 66.058, 73.288 73.958, 73.571 75.739 C 73.855 77.521, 73.405 80.987, 72.571 83.442 C 71.223 87.412, 71.221 88.375, 72.551 92.144 C 73.895 95.954, 73.884 96.725, 72.441 99.766 C 70.874 103.067, 70.658 104.148, 69.485 114.500 C 69.174 117.250, 68.433 122.875, 67.839 127 C 67.245 131.125, 66.779 135.400, 66.802 136.500 C 66.915 141.729, 65.875 144.736, 63.595 145.775 C 59.660 147.568, 57.370 144.555, 57.572 137.853 C 57.663 134.856, 58.016 131.526, 58.356 130.452 C 59.199 127.796, 59.327 103.113, 58.514 100 C 58.155 98.625, 57.686 92.550, 57.472 86.500 C 57.259 80.450, 56.806 73.424, 56.467 70.886 C 55.999 67.392, 56.455 64.478, 58.342 58.886 C 59.712 54.824, 61.080 49.296, 61.382 46.602 C 61.683 43.908, 62.733 40.758, 63.715 39.602 C 65.963 36.955, 68 33.341, 68 31.999 C 68 30.879, 62.120 26.989, 60.500 27.037 C 59.950 27.053, 58.473 27.923, 57.218 28.969 M 86.505 60.984 C 86.159 62.075, 86.185 66.106, 86.563 69.942 C 87.371 78.145, 88.882 80.007, 95.315 80.732 C 99.006 81.148, 100.060 80.852, 101.894 78.884 C 106.411 74.035, 105.857 67.720, 100.714 65.447 C 98.946 64.666, 96.150 62.898, 94.500 61.518 C 90.861 58.476, 87.375 58.243, 86.505 60.984 M 88.571 82.571 C 86.615 84.528, 86.580 85.625, 88.452 86.343 C 89.379 86.699, 90.435 85.834, 91.375 83.950 C 92.582 81.530, 92.604 81, 91.495 81 C 90.751 81, 89.436 81.707, 88.571 82.571 M 106.250 94.135 C 104.757 95.646, 104.585 99, 106 99 C 106.550 99, 107 98.550, 107 98 C 107 97.450, 109.025 97, 111.500 97 C 114.425 97, 116.005 96.563, 116.015 95.750 C 116.026 94.903, 116.331 94.975, 116.961 95.971 C 117.473 96.780, 118.116 97.217, 118.391 96.942 C 119.706 95.628, 116.936 94.004, 112.460 93.466 C 109.087 93.061, 107.100 93.274, 106.250 94.135 M 120.813 98.683 C 121.534 98.972, 122.397 98.936, 122.729 98.604 C 123.061 98.272, 122.471 98.036, 121.417 98.079 C 120.252 98.127, 120.015 98.364, 120.813 98.683 M 117.923 113.250 C 117.248 115.458, 117.314 117.718, 118.097 119.181 C 118.747 120.395, 118.726 121, 118.035 121 C 117.466 121, 117 122.073, 117 123.385 C 117 126.507, 120.874 129.001, 125.715 128.996 L 129.500 128.993 126.250 127.011 C 124.314 125.831, 123 124.215, 123 123.015 C 123 121.907, 122.423 121, 121.717 121 C 120.416 121, 120.088 116.579, 121.299 115.368 C 122.238 114.428, 121.117 113, 119.441 113 C 118.648 113, 117.966 113.112, 117.923 113.250 M 225.070 175.416 C 224.131 176.547, 224.308 176.963, 225.947 177.483 C 227.076 177.842, 228.924 177.842, 230.053 177.483 C 231.692 176.963, 231.869 176.547, 230.930 175.416 C 230.284 174.637, 228.965 174, 228 174 C 227.035 174, 225.716 174.637, 225.070 175.416" stroke="none" fill="black" fill-rule="evenodd"/>
</svg>