<svg xmlns="http://www.w3.org/2000/svg" width="256" height="256" viewBox="0 0 256 256" version="1.1">
	<path d="M 125.500 28 C 121.181 31.432, 121.328 31.403, 118 29.500 C 116.625 28.714, 113.802 28.055, 111.728 28.035 C 108.651 28.007, 107.109 28.784, 103.365 32.250 C 100.840 34.587, 96.727 37.175, 94.225 38 C 90.664 39.174, 89.594 40.043, 89.299 42 C 88.634 46.419, 89.772 48.704, 92.956 49.341 C 97.623 50.275, 99.824 53.094, 99.337 57.514 C 98.695 63.340, 97.407 65, 93.528 65 C 88.476 65, 84.819 60.775, 77.301 46.250 C 73.295 38.511, 69.585 39.566, 64.989 49.750 C 63.351 53.379, 62.633 54, 60.071 54 C 58.062 54, 56.705 53.317, 55.964 51.933 C 54.815 49.785, 54.896 43.606, 56.107 41 C 56.491 40.175, 57.373 37.582, 58.066 35.239 C 59.246 31.254, 59.176 30.816, 56.989 28.489 C 54.203 25.522, 52.058 25.348, 49.170 27.852 C 46.582 30.097, 43.068 37.562, 42.981 41 C 42.946 42.375, 41.924 45.525, 40.709 48 C 38.652 52.190, 38.180 52.537, 33.863 53.033 C 24.476 54.113, 24.239 57.851, 33.252 62.697 C 39.216 65.905, 39.279 66.168, 37.053 78.500 C 36.357 82.350, 35.631 88.425, 35.439 92 C 35.246 95.575, 34.551 101.513, 33.894 105.196 C 32.434 113.381, 33.792 116.258, 39.993 118.116 C 43.427 119.145, 44.254 119.080, 45.826 117.657 C 46.833 116.746, 48.127 116, 48.701 116 C 50.018 116, 51.226 123.228, 50.318 125.671 C 49.613 127.565, 40.054 136.926, 38.776 136.973 C 38.377 136.988, 37.365 138.328, 36.526 139.950 C 34.412 144.038, 34.581 150.260, 36.883 153.103 C 38.511 155.114, 39.101 155.275, 41.253 154.295 C 42.621 153.671, 46.161 150.389, 49.120 147 C 56.958 138.025, 63.804 135.024, 68.441 138.532 C 70.813 140.326, 75.617 140.460, 76.246 138.750 C 76.943 136.853, 76.010 135, 74.358 135 C 73.443 135, 73.168 134.525, 73.633 133.750 C 74.071 133.021, 73.598 133.126, 72.500 134 C 71.464 134.825, 70.923 134.988, 71.297 134.363 C 71.672 133.738, 71.278 132.646, 70.423 131.936 C 65.816 128.113, 63.868 117.592, 67.120 114.101 C 68.154 112.992, 69.006 110.827, 69.014 109.292 C 69.033 105.686, 73.292 88.178, 74.863 85.250 C 75.527 84.013, 75.774 83, 75.413 83 C 75.051 83, 75.260 82.391, 75.877 81.648 C 76.495 80.904, 77.285 77.570, 77.633 74.239 C 78.191 68.901, 78.546 68.129, 80.627 67.731 C 83.232 67.233, 84.370 68.212, 85.918 72.285 C 86.640 74.183, 88.544 75.709, 92.226 77.340 C 95.127 78.625, 98.075 80.373, 98.777 81.223 C 100.219 82.970, 100.869 96.786, 99.605 98.830 C 99.161 99.548, 97.381 100.060, 95.649 99.967 C 90.746 99.703, 90.134 99.866, 88 102 C 85.443 104.557, 85.443 108.443, 88 111 C 89.453 112.453, 91.333 113, 94.875 113 C 99.535 113, 99.778 113.138, 100.375 116.125 C 101.361 121.055, 100.988 131.945, 99.609 138.500 L 98.347 144.500 92.424 146.003 C 87.268 147.311, 86.461 147.841, 86.199 150.089 C 86.034 151.509, 86.484 153.140, 87.199 153.713 C 88.428 154.696, 99.731 157, 103.328 157 C 104.841 157, 113.981 148.335, 113.994 146.889 C 113.997 146.553, 115.968 146.728, 118.373 147.278 C 122.479 148.218, 123.107 148.057, 128.643 144.639 C 134.068 141.291, 139 139.919, 139 141.760 C 139 142.177, 141.191 144.877, 143.869 147.760 C 150.270 154.650, 153.873 154.913, 160.885 149 C 163.494 146.800, 166.162 145, 166.814 145 C 168.342 145, 168.320 144.690, 166.327 138.370 C 165.019 134.219, 163.985 132.750, 161.577 131.620 C 157.510 129.711, 156.048 129.521, 152.676 130.464 C 148.644 131.592, 145.328 129.769, 144.492 125.965 C 144.075 124.066, 144.238 122.362, 144.899 121.701 C 145.504 121.096, 146 118.509, 146 115.954 C 146 110.639, 148.415 105, 150.690 105 C 151.741 105, 152.066 104.362, 151.710 102.999 C 151.165 100.917, 154.990 97, 157.567 97 C 159.029 97, 160.335 93.749, 160.378 90 C 160.417 86.677, 152.753 82.325, 149.553 83.853 C 144.385 86.320, 139 85.091, 139 81.443 C 139 79.869, 139.864 79.729, 151 79.500 C 155.125 79.416, 159.442 79.035, 160.593 78.656 C 161.759 78.271, 163.973 75.490, 165.593 72.375 C 167.192 69.300, 169.331 66.197, 170.348 65.480 C 172.120 64.228, 172.107 64.127, 170.012 63.006 C 168.811 62.364, 165.426 61.590, 162.490 61.287 C 158.034 60.827, 156.703 61.088, 154.441 62.868 C 152.521 64.378, 150.316 65, 146.884 65 C 141.152 65, 141.051 64.792, 140.645 52.184 C 140.315 41.970, 141.614 39.224, 144.697 43.615 C 145.811 45.202, 147.267 48.180, 147.934 50.234 C 149.366 54.651, 153.234 58.003, 156.885 57.992 C 162.070 57.977, 163.578 48.788, 160 39 C 158.900 35.991, 158 33.398, 158 33.239 C 158 33.080, 156.867 32.520, 155.482 31.993 C 153.679 31.308, 151.655 31.481, 148.352 32.602 L 143.739 34.168 139.085 29.584 C 133.511 24.094, 130.811 23.779, 125.500 28 M 116.380 42.772 C 112.589 45.862, 112.259 47.606, 113.931 55.697 C 115.671 64.116, 117.061 65.707, 121.268 64.096 C 124.765 62.757, 126 59.511, 126 51.657 C 126 42.101, 121.877 38.292, 116.380 42.772 M 55.323 66.696 C 52.053 67.333, 50.719 69.567, 50.803 74.267 C 50.845 76.595, 50.258 81.200, 49.498 84.500 C 48.739 87.800, 47.829 92.075, 47.477 94 C 47.125 95.925, 46.616 98.625, 46.345 100 C 46.074 101.375, 46.408 103.850, 47.088 105.500 C 47.767 107.150, 48.275 108.763, 48.217 109.083 C 48.159 109.404, 48.761 109.667, 49.556 109.667 C 50.350 109.667, 51 109.067, 51 108.333 C 51 107.600, 51.450 107, 52 107 C 52.550 107, 53 106.541, 53 105.980 C 53 105.419, 54.094 103.227, 55.431 101.109 C 57.899 97.200, 58.921 93.415, 61.732 77.783 C 63.744 66.594, 62.945 65.212, 55.323 66.696 M 115.650 79.709 C 114.172 80.089, 113.917 80.819, 114.381 83.343 C 114.701 85.079, 115.259 88.862, 115.621 91.750 C 116.145 95.925, 116.654 97, 118.105 97 C 120.022 97, 122 99.768, 122 102.450 C 122 103.320, 120.024 106.747, 117.608 110.067 L 113.217 116.102 114.679 121.702 C 115.529 124.958, 115.834 128.390, 115.407 129.901 C 115.002 131.330, 114.803 132.950, 114.963 133.500 C 115.123 134.050, 115.272 135.063, 115.294 135.750 C 115.358 137.781, 116.809 137.197, 119.665 133.992 C 121.139 132.338, 124.063 130.522, 126.162 129.956 C 128.815 129.242, 130.139 128.253, 130.502 126.714 C 131.573 122.174, 130.543 89.953, 129.303 89.187 C 128.513 88.699, 128.423 87.946, 129.037 86.974 C 129.550 86.163, 129.976 84.319, 129.985 82.875 C 129.997 80.730, 129.428 80.136, 126.875 79.625 C 123.428 78.936, 118.509 78.972, 115.650 79.709 M 227.750 176.662 C 228.438 176.940, 229.563 176.940, 230.250 176.662 C 230.938 176.385, 230.375 176.158, 229 176.158 C 227.625 176.158, 227.063 176.385, 227.750 176.662" stroke="none" fill="black" fill-rule="evenodd"/>
</svg>