<svg xmlns="http://www.w3.org/2000/svg" width="256" height="256" viewBox="0 0 256 256" version="1.1">
	<path d="M 120.401 20.755 C 119.031 20.980, 117.108 23.253, 114.866 27.300 C 111.495 33.383, 111.355 33.496, 107.465 33.282 C 92.555 32.462, 90.641 33.018, 89.097 38.611 C 88.386 41.185, 88.445 42.766, 89.303 44.209 C 90.417 46.080, 91.223 46.181, 100.904 45.657 C 111.959 45.059, 115 45.781, 115 49 C 115 52.687, 111.707 53.226, 102.771 51.003 C 97.541 49.701, 94.392 49.324, 94.175 49.974 C 93.987 50.538, 92.971 51, 91.917 51 C 90.862 51, 90 51.450, 90 52 C 90 52.550, 88.875 53, 87.500 53 C 84.945 53, 83.996 52.197, 78.158 45.094 C 75.211 41.508, 74.566 41.162, 72.699 42.161 C 69.737 43.747, 67.257 47.022, 66.616 50.196 C 65.893 53.776, 62.959 55.315, 59.420 53.969 L 56.708 52.939 57.334 44.825 C 57.701 40.070, 58.618 35.706, 59.549 34.285 C 60.994 32.079, 60.996 31.643, 59.569 29.465 C 57.550 26.384, 54.427 24.730, 52.052 25.484 C 49.085 26.425, 46.898 30.682, 45.429 38.375 C 43.228 49.895, 42.861 50.984, 40.655 52.529 C 39.447 53.375, 36.300 54, 33.246 54 C 29.348 54, 27.777 54.417, 27.336 55.567 C 26.289 58.296, 28.902 61.431, 34.792 64.513 C 39.106 66.771, 40.445 67.989, 40.276 69.500 C 38.671 83.817, 35.725 100.835, 33.938 106.113 C 31.729 112.638, 31.724 112.759, 33.600 115.301 C 36.397 119.092, 39.569 120.453, 45.130 120.247 C 49.364 120.090, 50.203 120.374, 50.875 122.191 C 52.313 126.079, 50.819 128.989, 44.331 134.934 C 37.018 141.635, 35.201 146.354, 38.520 150.023 C 41.515 153.332, 43.437 152.607, 55.952 143.452 C 57.851 142.063, 61.343 140.439, 63.713 139.842 C 68.613 138.608, 69.628 136.581, 68.484 130.320 C 66.643 120.251, 66.749 116.251, 68.913 114.087 C 70.061 112.939, 71.006 111.437, 71.013 110.750 C 71.020 110.063, 71.964 106.575, 73.112 103 C 74.259 99.425, 75.371 95.375, 75.584 94 C 76.502 88.052, 78.925 79.252, 80.470 76.253 C 81.889 73.500, 82.437 73.163, 84.072 74.038 C 85.132 74.606, 86 75.428, 86 75.864 C 86 77.255, 95.243 80.920, 103 82.605 C 111.471 84.445, 112.548 85.062, 113.431 88.583 C 114.322 92.131, 109.897 96.192, 108.783 92.849 C 108.208 91.123, 97.114 90.890, 93.928 92.537 C 90.737 94.187, 89.553 96.615, 91.563 97.386 C 92.353 97.689, 93 98.589, 93 99.386 C 93 101.297, 100.528 104.106, 107.726 104.881 L 113.478 105.500 114.294 110.500 C 115.366 117.064, 115.992 121.813, 116.272 125.500 C 116.499 128.481, 116.464 128.502, 110.749 128.800 L 104.997 129.100 105.181 122.420 C 105.376 115.338, 104.031 113, 99.759 113 C 98.737 113, 96.517 112.285, 94.826 111.410 C 90.001 108.915, 88.641 110.986, 88.808 120.573 C 88.933 127.733, 88.715 128.592, 85.547 133.374 C 83.680 136.193, 81.817 139.846, 81.408 141.490 C 80.998 143.135, 80.078 145.065, 79.364 145.779 C 77.868 147.275, 78.627 152.770, 80.603 154.746 C 82.408 156.551, 86.437 156.289, 88.222 154.250 C 89.065 153.287, 90.356 150.795, 91.092 148.710 C 93.103 143.017, 94.495 142.300, 105 141.548 C 114.121 140.895, 114.560 140.958, 116 143.126 C 119.311 148.110, 121.826 149.822, 127.593 151.019 C 134.505 152.454, 134.552 152.455, 147.500 151.490 C 155.960 150.859, 157.885 150.388, 160 148.430 C 161.375 147.156, 163.625 145.700, 165 145.193 L 167.500 144.270 164.159 141.149 C 162.322 139.433, 159.172 137.588, 157.159 137.051 C 153.006 135.941, 140.406 135.602, 134.664 136.446 C 131.501 136.911, 130.499 136.614, 128.947 134.755 C 126.742 132.111, 126.486 129.371, 128.277 127.580 C 129.031 126.826, 133.230 126.093, 138.527 125.789 C 149.367 125.169, 157.323 121.916, 156.354 118.500 C 155.040 113.865, 152.246 112.913, 140.500 113.095 C 126.480 113.313, 127 113.406, 127 110.691 C 127 106.719, 129.105 105.104, 135 104.552 C 144.491 103.663, 149 102.804, 149 101.886 C 149 101.399, 149.675 101, 150.500 101 C 151.824 101, 152.588 98.357, 152.064 95.588 C 151.786 94.118, 154.161 89, 155.121 89 C 155.605 89, 156 88.319, 156 87.486 C 156 86.012, 157.909 82.003, 159.088 81 C 159.411 80.725, 160.187 78.435, 160.812 75.911 C 161.936 71.371, 160.764 65, 158.806 65 C 158.390 65, 158.442 63.968, 158.921 62.707 C 160.065 59.698, 157.954 54.671, 154.632 52.495 C 152.658 51.201, 149.956 50.876, 142.302 51.010 C 128.621 51.250, 129 51.315, 129 48.746 C 129 46.565, 129.320 46.489, 138.750 46.425 C 150.018 46.348, 155.408 44.497, 156.450 40.344 C 157.328 36.845, 156.292 34.228, 153.699 33.398 C 152.489 33.011, 147.038 32.771, 141.585 32.866 C 132.623 33.022, 131.446 32.828, 129.335 30.845 C 128.051 29.639, 127 27.800, 127 26.760 C 127 22.460, 124.405 20.098, 120.401 20.755 M 84.272 63.254 C 82.024 64.295, 80.449 67.299, 81.369 68.788 C 81.643 69.232, 83.135 69.519, 84.684 69.426 C 86.233 69.334, 93.013 69.200, 99.750 69.129 C 109.915 69.022, 112 68.745, 112 67.500 C 112 66.311, 110.562 66, 105.059 66 C 101.241 66, 97.876 65.608, 97.580 65.129 C 97.055 64.280, 92.515 62.947, 88.500 62.463 C 87.400 62.330, 85.497 62.686, 84.272 63.254 M 59.707 65.698 C 56.771 66.460, 53.516 68.491, 53.275 69.710 C 53.151 70.337, 52.844 73.471, 52.593 76.675 C 52.341 79.879, 51.959 83.175, 51.744 84 C 51.528 84.825, 50.799 88.200, 50.124 91.500 C 49.448 94.800, 48.427 98.450, 47.853 99.612 C 46.165 103.030, 46.459 108.407, 48.481 111.087 L 50.347 113.562 52.443 111.466 C 55.340 108.569, 60.481 101.939, 61.837 99.350 C 62.456 98.168, 63.221 93.668, 63.536 89.350 C 63.851 85.033, 64.534 79.055, 65.054 76.066 C 66.301 68.903, 66.269 68.412, 64.429 66.571 C 62.802 64.945, 62.687 64.924, 59.707 65.698 M 128.787 65.821 C 127.561 66.307, 127.337 66.927, 128 68 C 129.236 69.999, 141.963 70.105, 144.335 68.137 C 145.239 67.387, 145.731 66.374, 145.430 65.887 C 144.797 64.862, 131.337 64.808, 128.787 65.821 M 129.424 84.177 C 128.206 87.914, 128.337 90.915, 129.742 91.454 C 132.288 92.432, 139.818 90.789, 140.417 89.126 C 140.738 88.232, 141.253 86.968, 141.561 86.318 C 142.277 84.807, 139.619 83.418, 134.340 82.544 C 130.578 81.921, 130.109 82.077, 129.424 84.177 M 207 128 C 205.895 128.714, 206.553 128.969, 209.500 128.969 C 212.447 128.969, 213.105 128.714, 212 128 C 211.175 127.467, 210.050 127.031, 209.500 127.031 C 208.950 127.031, 207.825 127.467, 207 128" stroke="none" fill="black" fill-rule="evenodd"/>
</svg>