<svg xmlns="http://www.w3.org/2000/svg" width="256" height="256" viewBox="0 0 256 256" version="1.1">
	<path d="M 134 25.042 C 127.411 25.807, 106.011 26.875, 94.500 27.015 C 91.445 27.051, 90.081 27.639, 88.725 29.503 C 86.994 31.882, 87.023 32.071, 89.909 37.221 C 92.583 41.993, 92.746 42.788, 91.612 45.500 C 90.921 47.150, 90.511 50.525, 90.701 53 C 91.153 58.905, 90.516 61.227, 88.026 62.766 C 84.840 64.734, 80.501 61.290, 79.504 56 C 77.282 44.214, 75.665 41, 71.959 41 C 68.786 41, 65.794 44.163, 63.830 49.593 C 62.518 53.223, 60.237 54.527, 57 53.500 C 55.467 53.013, 54.955 51.888, 54.808 48.683 C 54.526 42.549, 54.593 41.053, 55.413 35.165 C 56.021 30.799, 55.842 29.483, 54.423 27.915 C 52.131 25.383, 49.696 25.498, 46.448 28.291 C 44.314 30.127, 43.514 32.135, 42.426 38.393 C 40.409 49.993, 38.508 53.258, 33 54.580 C 29.781 55.352, 28.427 56.206, 28.244 57.580 C 27.912 60.078, 28.637 60.959, 33.750 64.274 C 38.343 67.251, 38.576 68.063, 37.027 75.701 C 36.491 78.340, 35.599 85.450, 35.045 91.500 C 34.490 97.550, 33.745 104.825, 33.389 107.666 C 32.799 112.372, 32.980 113.071, 35.425 115.516 C 38.150 118.241, 41.554 118.528, 47.576 116.542 C 49.493 115.910, 49.669 116.279, 49.874 121.345 C 50.059 125.908, 49.719 127.184, 47.859 128.916 C 46.629 130.062, 45.296 131, 44.897 131 C 44.498 131, 42.310 132.688, 40.035 134.750 C 34.950 139.360, 33.980 143.433, 37.040 147.324 C 40.556 151.794, 45.491 150.339, 53.269 142.541 C 56.936 138.864, 57.199 138.774, 63.019 139.195 C 68.933 139.623, 70.393 138.793, 67.977 136.377 C 67.414 135.814, 66.739 134.374, 66.477 133.177 C 66.214 131.979, 65.748 129.988, 65.441 128.750 C 65.133 127.513, 64.671 125.150, 64.413 123.500 C 64.155 121.850, 63.725 119.497, 63.458 118.272 C 63.191 117.046, 63.879 114.353, 64.986 112.287 C 66.094 110.220, 67 108.016, 67 107.388 C 67 105.185, 72.907 87.082, 74.694 83.808 C 75.687 81.989, 76.725 78.036, 77 75.024 C 77.412 70.510, 77.921 69.338, 79.893 68.360 C 82.346 67.143, 87 68.322, 87 70.161 C 87 70.622, 87.675 71, 88.500 71 C 89.325 71, 90 71.450, 90 72 C 90 72.550, 90.697 73, 91.550 73 C 94.214 73, 98.830 75.888, 99.490 77.969 C 100.695 81.766, 98.622 83.459, 92.591 83.602 C 83.934 83.808, 81.447 87.538, 86.559 92.650 C 88.548 94.639, 89.831 95.103, 92.309 94.733 C 94.064 94.472, 96.442 94.611, 97.593 95.044 C 99.518 95.768, 99.666 96.503, 99.430 104.166 C 99.158 113.023, 98.595 115.346, 96.076 118.021 C 95.209 118.942, 93.600 120.955, 92.500 122.494 C 91.400 124.034, 88.588 127.757, 86.250 130.767 C 83.912 133.778, 81.954 136.749, 81.898 137.370 C 80.966 147.711, 81.116 148.846, 83.633 150.495 C 86.032 152.067, 86.280 152.019, 89.663 149.317 C 91.604 147.768, 94.053 146.054, 95.105 145.509 C 96.713 144.676, 97.583 143.285, 98.549 140 C 98.630 139.725, 99.037 137.650, 99.454 135.388 C 100.573 129.316, 101.080 128.840, 105.466 129.751 C 108.405 130.362, 109.722 131.348, 111.172 134.023 C 113.866 138.992, 112.102 145, 107.949 145 C 106.956 145, 105.442 145.701, 104.586 146.557 C 102.970 148.172, 103.029 148.330, 106.821 152.535 C 109.457 155.457, 112.641 154.188, 119.463 147.500 C 126.388 140.710, 128.304 139.835, 129.870 142.750 C 130.388 143.713, 134.009 146.412, 137.919 148.750 C 147.350 154.390, 152.081 154.576, 157 149.500 C 158.866 147.575, 159.967 145.968, 159.446 145.930 C 158.926 145.891, 159.256 145.554, 160.180 145.180 C 161.610 144.601, 161.318 143.910, 158.217 140.532 C 154.647 136.644, 154.451 136.571, 148.410 136.842 C 142.521 137.106, 142.218 137.004, 141.599 134.539 C 141.243 133.120, 141.361 131.181, 141.862 130.229 C 142.362 129.278, 143.090 125.275, 143.479 121.332 C 144.090 115.144, 144.582 113.812, 147.085 111.582 C 148.679 110.162, 150.360 109, 150.821 109 C 152.239 109, 151.590 104.567, 150 103.392 C 147.668 101.670, 140.719 99.528, 138.500 99.847 C 137.400 100.005, 131.656 100.379, 125.736 100.678 C 117.832 101.078, 114.567 100.885, 113.444 99.953 C 110.343 97.380, 114.106 96.609, 133.458 95.853 C 154.508 95.031, 156.772 94.441, 159.366 89.102 C 161.050 85.634, 160.883 84.375, 158.500 82.575 C 156.054 80.726, 141.943 80.425, 138.715 82.153 C 135.523 83.861, 123.132 83.599, 119 81.735 L 115.500 80.157 120.500 78.002 C 124.313 76.360, 126.687 75.980, 130.500 76.403 C 138.351 77.275, 139.166 77.281, 145 76.513 C 154.115 75.313, 160 71.526, 160 66.861 C 160 65.929, 160.563 64.971, 161.250 64.731 C 161.938 64.491, 160.585 63.964, 158.244 63.559 C 153.819 62.793, 150.362 59.538, 151.880 57.568 C 152.333 56.981, 153.503 54.226, 154.479 51.446 C 156.079 46.889, 156.107 46.102, 154.759 43.446 C 152.932 39.847, 153.186 37.851, 155.908 34.390 C 158.546 31.036, 158.556 28.813, 155.943 26.449 C 153.500 24.238, 145.402 23.718, 134 25.042 M 129.315 40.007 C 126.536 41.127, 124.477 44.659, 126.258 45.253 C 127.101 45.534, 127.504 48.118, 127.513 53.297 C 127.535 66.356, 130.677 65.945, 137.913 51.934 C 140.161 47.581, 142 43.356, 142 42.545 C 142 39.441, 134.463 37.933, 129.315 40.007 M 105.028 41.102 C 103.669 41.651, 102.274 42.556, 101.929 43.114 C 101.105 44.448, 101.994 49, 103.078 49 C 104.172 49, 106.270 56.755, 105.508 57.987 C 104.686 59.318, 108.629 63, 110.878 63 C 111.910 63, 113.206 62.438, 113.756 61.750 C 115.225 59.916, 115.904 44.227, 114.587 42.561 C 113.093 40.672, 108.015 39.897, 105.028 41.102 M 52.124 68.351 C 51.507 69.094, 50.785 71.681, 50.518 74.101 C 50.252 76.520, 49.813 80.525, 49.544 83 C 49.275 85.475, 48.319 90.200, 47.421 93.500 C 45.153 101.832, 45.101 106.029, 47.250 107.385 C 51.128 109.833, 54.609 104.392, 58.052 90.500 C 60.502 80.614, 61.296 70.201, 59.747 68.250 C 58.428 66.588, 53.533 66.653, 52.124 68.351 M 117.335 113.717 C 112.311 114.347, 112.621 116.410, 118.325 120.303 C 125.616 125.279, 130 125.518, 130 120.941 C 130 119.873, 130.402 119, 130.893 119 C 131.384 119, 132.084 118.224, 132.447 117.276 C 133.836 113.657, 128.269 112.346, 117.335 113.717" stroke="none" fill="black" fill-rule="evenodd"/>
</svg>