<svg xmlns="http://www.w3.org/2000/svg" width="256" height="256" viewBox="0 0 256 256" version="1.1">
	<path d="M 48.198 28.195 C 47.080 30.013, 45.651 34.350, 45.023 37.832 C 42.738 50.515, 40.743 53, 32.845 53 C 27.394 53, 27 53.157, 27 55.326 C 27 58.091, 29.953 60.998, 35.682 63.873 C 37.982 65.027, 40.153 66.438, 40.505 67.008 C 40.857 67.578, 40.469 70.172, 39.642 72.772 C 38.815 75.373, 37.679 82.450, 37.117 88.500 C 36.555 94.550, 35.355 101.525, 34.450 104 C 33.545 106.475, 32.820 109.790, 32.839 111.366 C 32.909 117.280, 40.784 120.715, 46.955 117.523 C 48.751 116.595, 49.919 116.322, 49.551 116.917 C 49.183 117.513, 49.359 118, 49.941 118 C 50.528 118, 51 119.988, 51 122.461 C 51 127.486, 49.884 128.878, 41.260 134.610 C 35.527 138.421, 34 140.501, 34 144.500 C 34 149.140, 35.684 151, 39.885 151 C 44.034 151, 49.303 147.769, 56.500 140.810 C 58.700 138.683, 61.925 135.960, 63.668 134.759 C 66.741 132.639, 68.693 127.930, 67.379 125.804 C 66.027 123.617, 67.031 116.730, 69.924 108.345 C 71.602 103.480, 73.150 97.663, 73.363 95.417 C 73.576 93.172, 74.333 90.247, 75.044 88.917 C 75.756 87.588, 76.316 86.275, 76.289 86 C 76.262 85.725, 76.636 84.458, 77.120 83.185 C 77.604 81.912, 78 78.035, 78 74.570 C 78 69.722, 78.475 67.666, 80.061 65.650 C 82.558 62.475, 82.698 60.835, 80.971 55 C 80.238 52.525, 79.581 50.275, 79.509 50 C 79.438 49.725, 79.026 47.130, 78.594 44.234 C 77.672 38.059, 75.581 36.257, 72.326 38.831 C 69.865 40.778, 66.931 46.222, 66.044 50.490 C 65.609 52.581, 64.576 53.777, 62.606 54.469 C 60.185 55.321, 59.518 55.123, 57.845 53.057 C 56.224 51.055, 56.006 49.724, 56.536 45.077 C 57.550 36.205, 57.830 34.910, 59.054 33.435 C 60.985 31.108, 57.130 25.572, 53.317 25.195 C 50.746 24.941, 49.891 25.442, 48.198 28.195 M 96.392 25.653 C 93.312 26.309, 91.680 30.172, 91.490 37.254 C 91.273 45.303, 90.023 52.730, 88.343 55.951 C 86.557 59.373, 86.652 60.599, 88.956 63.790 C 90.486 65.911, 90.950 68.348, 91.087 75 C 91.261 83.433, 89.599 101.222, 88.466 103.055 C 88.142 103.580, 87.482 107.720, 87 112.255 C 85.489 126.470, 84.812 131.289, 83.312 138.500 C 82.512 142.350, 81.620 146.686, 81.332 148.135 C 80.606 151.776, 82.546 155, 85.462 155 C 88.510 155, 93.282 149.340, 94.962 143.731 C 96.538 138.473, 99.154 121.517, 99.036 117.325 C 98.988 115.579, 99.409 113.865, 99.974 113.516 C 100.538 113.167, 101 111.109, 101 108.941 C 101 106.773, 101.403 105, 101.895 105 C 102.406 105, 102.440 103.452, 101.974 101.386 C 101.273 98.278, 101.428 97.701, 103.080 97.269 C 104.136 96.993, 105 95.919, 105 94.883 C 105 93.848, 105.450 93, 106 93 C 106.550 93, 107 93.900, 107 95 C 107 96.100, 107.429 97, 107.954 97 C 108.479 97, 108.703 98.606, 108.452 100.569 C 108.151 102.920, 108.507 104.650, 109.496 105.639 C 111.469 107.612, 112.544 112.043, 111.248 112.857 C 109.842 113.740, 106.899 121, 107.947 121 C 108.411 121, 109.653 122.743, 110.708 124.874 C 112.277 128.045, 112.380 128.906, 111.278 129.624 C 109.386 130.856, 108.683 135.913, 110.157 137.689 C 110.835 138.507, 111.499 142.103, 111.631 145.681 C 111.923 153.557, 113.464 155.290, 119.500 154.532 C 121.700 154.255, 126.875 153.649, 131 153.184 C 135.125 152.720, 139.480 151.815, 140.678 151.173 C 142.900 149.983, 145.960 150.546, 147.178 152.369 C 147.965 153.548, 157.579 153.755, 158.717 152.617 C 159.394 151.939, 159.680 132.916, 159.072 129 C 158.943 128.175, 159.102 123.769, 159.424 119.210 C 159.831 113.450, 159.618 110.092, 158.728 108.210 C 158.024 106.719, 157.558 103.925, 157.694 102 C 157.829 100.075, 158.094 94.703, 158.282 90.063 C 158.490 84.935, 159.070 81.477, 159.761 81.246 C 161.539 80.654, 159.335 76.740, 155.941 74.467 C 154.327 73.385, 153.004 72.270, 153.003 71.989 C 153.001 71.708, 154.542 69.694, 156.427 67.513 C 160.550 62.742, 160.808 61.593, 160.414 49.752 C 160.245 44.664, 160.605 38.132, 161.215 35.237 C 162.259 30.283, 162.182 29.821, 159.912 27.382 C 157.626 24.925, 157.161 24.828, 151 25.525 C 144.547 26.254, 114.541 26.287, 104 25.576 C 100.975 25.372, 97.551 25.407, 96.392 25.653 M 107.250 40.491 C 105.463 41.268, 103.944 42.375, 103.875 42.952 C 103.140 49.118, 104.458 52.371, 108.465 54.282 C 110.447 55.227, 112.927 56, 113.977 56 C 116.876 56, 119 52.124, 119 46.834 C 119 39.666, 114.606 37.294, 107.250 40.491 M 137.096 40.507 C 131.960 42.108, 131.340 42.859, 131.535 47.243 C 131.824 53.725, 132.752 54.989, 137.317 55.118 C 145.732 55.357, 147 54.200, 147 46.284 C 147 41.479, 146.746 40.854, 144.435 39.975 C 143.024 39.439, 141.787 39.030, 141.685 39.067 C 141.583 39.104, 139.518 39.752, 137.096 40.507 M 56.286 67.422 C 52.758 68.488, 51.978 70.423, 51.420 79.500 C 51.251 82.250, 50.153 87.875, 48.980 92 C 46.318 101.358, 45.865 105.811, 47.335 108.166 C 49.063 110.932, 50.530 110.420, 54.261 105.750 C 59.712 98.927, 63 86.713, 63 73.285 C 63 66.493, 62.064 65.676, 56.286 67.422 M 113 68.933 C 113 69.520, 112.100 70, 111 70 C 109.711 70, 109 70.667, 109 71.875 C 109 74.339, 114.250 75.457, 117.595 73.704 C 119.656 72.624, 119.837 72.178, 118.766 70.814 C 117.197 68.816, 113 67.446, 113 68.933 M 140.030 70.491 C 137.622 71.360, 135.716 71.448, 133.798 70.780 C 130.990 69.801, 125 71.519, 125 73.303 C 125 73.751, 125.450 73.840, 126 73.500 C 126.550 73.160, 127 73.312, 127 73.837 C 127 75.237, 145.491 74.667, 147.243 73.213 C 148.036 72.555, 148.980 72.313, 149.342 72.675 C 149.704 73.037, 150 72.631, 150 71.774 C 150 68.869, 145.963 68.350, 140.030 70.491 M 132.351 88.003 C 129.519 88.418, 126.707 89.063, 126.101 89.437 C 124.536 90.405, 124.737 94.537, 126.416 95.930 C 128.289 97.485, 141.291 96.834, 143.404 95.080 C 145.723 93.155, 145.361 90.467, 142.535 88.615 C 139.880 86.875, 140.006 86.883, 132.351 88.003 M 139 108 C 137.625 108.440, 134.342 108.845, 131.705 108.900 C 127.944 108.978, 126.344 109.566, 124.289 111.621 L 121.668 114.241 124.949 115.621 C 128.979 117.315, 137.227 117.409, 141.647 115.811 C 143.863 115.009, 145.277 113.644, 145.980 111.627 C 147.484 107.313, 145.067 106.057, 139 108 M 125.250 129.224 C 120.289 131.608, 124.362 135.608, 132.697 136.537 C 135.889 136.893, 139.445 137.784, 140.601 138.517 C 142.532 139.743, 142.834 139.571, 144.351 136.391 C 146.567 131.743, 146.429 130.114, 143.733 129.089 C 140.486 127.854, 127.909 127.946, 125.250 129.224 M 167.219 167 C 167.311 170.232, 167.374 170.274, 170.750 169.370 C 172.285 168.958, 173 168.010, 173 166.383 C 173 164.414, 172.491 164, 170.067 164 C 167.456 164, 167.143 164.329, 167.219 167 M 167.459 172.067 C 167.096 172.653, 167.070 173.403, 167.400 173.733 C 167.730 174.063, 168 173.782, 168 173.108 C 168 172.434, 168.520 172.203, 169.155 172.595 C 169.870 173.038, 170.038 172.870, 169.595 172.155 C 168.711 170.724, 168.299 170.707, 167.459 172.067 M 164 174.500 C 164 175.325, 164.450 176, 165 176 C 165.550 176, 166 175.325, 166 174.500 C 166 173.675, 165.550 173, 165 173 C 164.450 173, 164 173.675, 164 174.500" stroke="none" fill="black" fill-rule="evenodd"/>
</svg>