<svg xmlns="http://www.w3.org/2000/svg" width="256" height="256" viewBox="0 0 256 256" version="1.1">
	<path d="M 92.308 21.010 C 89.163 22.277, 87.142 25.865, 86.861 30.684 C 86.681 33.768, 86.076 35.128, 84.558 35.862 C 82.227 36.989, 60.218 39.120, 57.103 38.520 C 55.983 38.304, 52.010 37.826, 48.274 37.458 C 42.498 36.889, 41.148 37.067, 39.249 38.645 C 36.416 40.999, 35.967 44.190, 37.599 50.377 C 38.311 53.075, 38.660 56.456, 38.374 57.891 C 38.088 59.326, 38.348 61.795, 38.951 63.378 C 39.970 66.052, 40.340 66.218, 44.145 65.707 C 49.490 64.990, 50.311 64.023, 50.414 58.316 C 50.487 54.305, 50.892 53.355, 53 52.247 C 54.501 51.458, 57.039 51.158, 59.351 51.495 C 61.469 51.803, 72.044 51.550, 82.851 50.932 C 105.670 49.627, 138.808 50.766, 141.434 52.945 C 142.295 53.660, 143 55.562, 143 57.172 C 143 60.713, 145.350 65.537, 147.472 66.351 C 149.659 67.190, 153.592 65.488, 154.462 63.327 C 154.866 62.322, 155.389 57.177, 155.623 51.893 C 155.966 44.160, 155.754 42.041, 154.536 41.030 C 153.703 40.339, 153.242 39.418, 153.510 38.984 C 153.778 38.550, 152.598 37.707, 150.887 37.111 C 148.639 36.327, 144.549 36.342, 136.138 37.165 C 128.353 37.926, 121.023 38.005, 114 37.402 L 103.500 36.500 103.355 32.211 C 103.161 26.451, 101.388 22.498, 98.385 21.130 C 95.528 19.828, 95.256 19.822, 92.308 21.010 M 62.765 59.250 C 61.875 59.938, 60.135 62.525, 58.898 65 C 57.661 67.475, 55.828 70.694, 54.824 72.154 C 53.821 73.614, 53 76.202, 53 77.904 C 53 79.774, 52.486 81, 51.703 81 C 49.270 81, 39 89.980, 39 92.107 C 39 92.696, 36.975 95.146, 34.500 97.552 C 29.571 102.342, 28.948 104.948, 32 108 C 35.171 111.171, 41.279 110.707, 45.157 107 C 46.884 105.350, 48.817 104, 49.452 104 C 51.978 104, 60.945 109.250, 61.521 111.066 C 61.859 112.130, 62.728 113, 63.452 113 C 65.970 113, 67.741 117.217, 66.767 120.893 C 65.606 125.280, 62.658 127.642, 56.722 128.943 C 47.741 130.912, 42.555 136.580, 43.860 143 C 44.505 146.174, 44.922 146.529, 48.336 146.813 C 54.019 147.286, 65.507 142.554, 70.384 137.731 C 73.108 135.038, 75.370 131.655, 80 123.356 C 81.925 119.906, 84.507 115.942, 85.737 114.549 C 86.967 113.155, 88.721 108.974, 89.633 105.257 C 90.545 101.541, 91.734 97.935, 92.274 97.244 C 92.813 96.553, 93.551 94.528, 93.913 92.744 C 94.471 89.991, 95.057 89.453, 97.785 89.187 C 99.886 88.982, 101.046 89.328, 101.133 90.187 C 101.237 91.219, 101.940 118.504, 102.119 128.500 C 102.257 136.184, 105.615 141.450, 112 143.995 C 113.925 144.762, 116.175 146.091, 117 146.949 C 119.798 149.857, 126.476 152.257, 133.161 152.758 C 141.149 153.355, 146.037 152.563, 148.759 150.229 C 149.867 149.278, 152.326 147.272, 154.223 145.770 C 156.797 143.733, 158.143 141.483, 159.532 136.896 C 160.555 133.516, 162.024 130.119, 162.797 129.346 C 164.211 127.932, 163.905 124.868, 162.066 122.034 C 160.537 119.678, 147.179 125.522, 145.001 129.500 C 142.836 133.453, 138.736 135.358, 132 135.542 C 128.975 135.624, 124.559 136.273, 122.188 136.983 C 116.803 138.596, 115.963 137.841, 115.702 131.153 C 115.591 128.320, 115.050 125.995, 114.500 125.986 C 113.833 125.975, 113.833 125.724, 114.500 125.235 C 115.839 124.251, 116.330 121.678, 115.025 122.485 C 113.857 123.206, 113.818 122.630, 113.768 104.280 C 113.718 85.688, 115.259 83, 125.965 83 C 132.321 83, 133.758 83.631, 135.625 87.243 C 137.432 90.736, 136.717 97, 134.511 97 C 132.631 97, 130.179 100.653, 128.911 105.345 C 128 108.714, 128.158 109.611, 130.186 112.595 C 131.715 114.846, 133.009 115.791, 134 115.381 C 134.825 115.041, 136.063 114.740, 136.750 114.714 C 137.438 114.688, 138 114.292, 138 113.833 C 138 113.375, 138.589 113, 139.308 113 C 140.028 113, 141.940 111.211, 143.558 109.024 C 145.176 106.837, 146.782 105.037, 147.128 105.024 C 147.473 105.011, 147.639 103.629, 147.496 101.953 C 147.353 100.277, 147.762 98.365, 148.405 97.703 C 149.656 96.414, 149.708 85.119, 148.481 81.250 C 148.063 79.933, 148.185 79, 148.774 79 C 149.774 79, 149.602 72.784, 148.556 71.091 C 148.256 70.606, 144.746 70.198, 140.756 70.185 C 136.765 70.172, 128.485 69.835, 122.356 69.436 L 111.213 68.712 103.573 72.833 L 95.933 76.953 91.534 75.460 C 89.114 74.638, 84.517 73.724, 81.317 73.428 C 77.530 73.078, 74.834 72.234, 73.593 71.010 C 71.795 69.238, 71.781 68.983, 73.343 66.600 C 75.477 63.342, 75.430 62.430, 73 60 C 70.725 57.725, 65.256 57.325, 62.765 59.250 M 97 85.059 C 97 85.641, 97.450 85.840, 98 85.500 C 98.550 85.160, 99 84.684, 99 84.441 C 99 84.198, 98.550 84, 98 84 C 97.450 84, 97 84.477, 97 85.059 M 60.207 88.666 L 56.914 92.279 59.131 94.640 C 60.351 95.938, 61.945 97, 62.674 97 C 63.403 97, 64 97.353, 64 97.784 C 64 99.247, 69.792 102, 72.869 102 C 75 102, 76.288 101.331, 77.108 99.798 C 77.985 98.159, 77.995 97.498, 77.145 97.215 C 76.342 96.947, 76.434 96.218, 77.454 94.763 C 79.577 91.731, 77.800 89, 73.705 89 C 71.564 89, 70.062 88.328, 69.232 87 C 67.342 83.973, 63.906 84.607, 60.207 88.666" stroke="none" fill="black" fill-rule="evenodd"/>
</svg>