<svg xmlns="http://www.w3.org/2000/svg" width="256" height="256" viewBox="0 0 256 256" version="1.1">
	<path d="M 35.750 26.527 C 33.500 27.785, 33 28.756, 33 31.877 C 33 37.493, 38.143 41, 46.378 41 C 49.952 41, 50.889 41.425, 52.033 43.562 C 53.043 45.449, 53.121 46.577, 52.328 47.846 C 51.737 48.793, 50.021 53.603, 48.515 58.534 C 46.419 65.402, 45.780 69.550, 45.785 76.259 C 45.791 84.278, 45.592 85.176, 43.431 86.876 C 42.132 87.897, 39.286 89.018, 37.107 89.367 C 30.155 90.479, 26.889 97.171, 30.888 102.110 C 32.653 104.289, 33.106 104.373, 37.866 103.398 C 40.666 102.825, 43.466 102.670, 44.087 103.054 C 44.709 103.438, 45.452 105.833, 45.739 108.376 C 46.026 110.919, 46.665 113, 47.159 113 C 47.654 113, 47.933 117.281, 47.779 122.513 C 47.509 131.727, 47.406 132.104, 44.500 134.477 C 42.850 135.825, 41.007 136.944, 40.405 136.964 C 38.467 137.028, 36 140.579, 36 143.306 C 36 147.034, 38.911 148.672, 51 151.752 C 52.946 152.247, 55.925 152.270, 57.708 151.804 C 60.362 151.109, 61.032 150.345, 61.589 147.376 C 61.960 145.402, 61.949 141.022, 61.566 137.643 C 60.917 131.922, 59.832 117.387, 59.671 112.250 C 59.632 111.013, 59.336 110, 59.013 110 C 57.957 110, 57.951 104.148, 59.005 103.497 C 59.570 103.147, 59.795 102.477, 59.505 102.007 C 58.793 100.856, 63.782 97.464, 67.500 96.572 C 71.160 95.693, 75 92.277, 75 89.898 C 75 86.643, 70.220 84, 64.334 84 C 58.114 84, 57.666 83.435, 57.668 75.594 C 57.670 69.301, 60.409 60.781, 63.583 57.195 C 67.624 52.630, 68 52.115, 68 51.137 C 68 50.616, 70.795 47.722, 74.212 44.705 C 79.995 39.599, 80.406 38.954, 80.172 35.360 C 80.007 32.824, 79.068 30.643, 77.434 29 C 75.037 26.590, 74.456 26.496, 61.224 26.378 C 53.676 26.312, 45.475 25.972, 43 25.623 C 39.825 25.177, 37.690 25.443, 35.750 26.527 M 136.888 25.445 C 136.643 25.690, 133.530 26.348, 129.971 26.907 C 123.918 27.858, 120.560 28.205, 104 29.593 C 94.264 30.409, 90.186 31.772, 86.917 35.306 C 84.258 38.180, 84.028 38.950, 84.614 43 C 84.973 45.475, 85.209 47.950, 85.140 48.500 C 84.738 51.671, 83.054 87.159, 83.146 90.500 C 83.318 96.704, 83.305 97.033, 82.535 104.993 C 82.137 109.113, 81.373 113.303, 80.838 114.303 C 80.303 115.302, 79.498 119.131, 79.050 122.810 C 78.601 126.490, 77.489 132.174, 76.580 135.442 C 74.727 142.098, 75.167 145.936, 78.087 148.579 C 79.627 149.972, 80.647 150.159, 82.727 149.427 C 87.691 147.681, 89.304 143.199, 92.056 123.500 C 92.593 119.650, 93.484 115.374, 94.036 113.997 C 94.587 112.621, 94.992 109.921, 94.937 107.997 C 94.729 100.807, 96.168 83.376, 97.248 80 C 97.912 77.925, 98.280 70.555, 98.151 61.901 C 97.878 43.436, 98.327 42.597, 108.661 42.309 C 112.423 42.205, 116.850 41.869, 118.500 41.563 C 120.150 41.257, 123.300 40.787, 125.500 40.518 C 127.700 40.248, 133.325 39.560, 138 38.988 C 154.664 36.948, 159.768 31.551, 149.872 26.434 C 147.328 25.118, 137.931 24.403, 136.888 25.445 M 142.525 51.744 C 138.528 52.734, 138.047 54.785, 138.600 68.500 C 139.514 91.189, 139.633 92.431, 141.228 96 C 142.088 97.925, 142.832 102.306, 142.882 105.736 C 142.953 110.680, 143.411 112.411, 145.093 114.093 C 146.976 115.976, 147.046 116.382, 145.719 117.710 C 143.742 119.687, 140.602 118.617, 139.173 115.481 C 137.412 111.615, 132.711 112.096, 128.348 116.589 C 125.337 119.689, 125.070 120.337, 126.388 121.339 C 127.227 121.978, 128.136 123.778, 128.407 125.341 C 129.249 130.191, 122.797 134.394, 117.582 132.393 C 115.706 131.673, 115.458 127.386, 117.250 126.662 C 118.215 126.273, 118.220 126.140, 117.271 126.079 C 116.325 126.018, 116.304 125.427, 117.182 123.500 C 117.808 122.125, 118.654 121, 119.061 121 C 119.467 121, 119.800 119.367, 119.800 117.371 C 119.800 115.375, 120.183 113.462, 120.650 113.121 C 121.117 112.779, 121.636 106.915, 121.802 100.088 C 121.968 93.261, 122.464 86.961, 122.905 86.088 C 123.346 85.215, 123.804 81.686, 123.924 78.246 C 124.044 74.807, 124.483 70.757, 124.900 69.246 C 126.139 64.756, 125.475 61.293, 122.572 57.103 C 119.162 52.184, 117.262 51.411, 114.207 53.704 C 112.275 55.155, 111.761 56.558, 111.532 61 C 111.376 64.025, 110.790 68.975, 110.230 72 C 109.671 75.025, 109.503 81.325, 109.858 86 C 110.278 91.517, 110.093 95.738, 109.334 98.028 C 108.690 99.968, 107.891 103.377, 107.559 105.603 C 107.227 107.828, 106.008 112.091, 104.850 115.075 C 103.692 118.059, 102.432 122.975, 102.051 126 C 101.669 129.025, 100.761 133.392, 100.034 135.705 C 98.872 139.395, 98.915 140.221, 100.378 142.455 C 102.287 145.368, 103.257 145.511, 108.624 143.672 C 111.192 142.793, 113.682 142.622, 116 143.166 C 117.925 143.618, 122.922 144.232, 127.105 144.531 C 134.459 145.056, 134.813 144.977, 137.824 142.165 C 140.296 139.855, 140.857 138.618, 140.545 136.156 C 139.916 131.182, 138.966 129, 137.433 129 C 136.645 129, 136 128.550, 136 128 C 136 127.450, 136.395 127, 136.879 127 C 137.362 127, 138.317 125.650, 139 124 C 140.017 121.546, 140.828 121, 143.461 121 C 145.939 121, 146.946 121.586, 147.839 123.547 C 148.478 124.948, 149 126.748, 149 127.547 C 149 128.346, 149.450 129, 150 129 C 150.550 129, 150.996 130.463, 150.991 132.250 C 150.987 134.037, 151.999 137.656, 153.241 140.292 C 155.490 145.063, 155.520 145.083, 160 144.792 C 164.264 144.515, 164.501 144.343, 164.515 141.500 C 164.524 139.850, 164.895 137.927, 165.339 137.226 C 166.420 135.523, 165.142 129.992, 163.526 129.371 C 162.641 129.032, 162.194 126.330, 162.091 120.714 C 161.957 113.342, 161.685 112.281, 159.284 109.775 C 157.822 108.249, 156.951 107, 157.348 107 C 157.745 107, 157.568 106.061, 156.953 104.912 C 155.714 102.597, 154.676 98.308, 154.797 96 C 154.840 95.175, 155.048 92.588, 155.259 90.250 C 155.470 87.912, 155.348 86, 154.988 86 C 154.030 86, 153.882 84.621, 153.565 72.722 C 153.407 66.794, 152.990 61.657, 152.639 61.305 C 152.287 60.954, 152 59.667, 152 58.444 C 152 54.081, 147.095 50.612, 142.525 51.744" stroke="none" fill="black" fill-rule="evenodd"/>
</svg>