<svg xmlns="http://www.w3.org/2000/svg" width="256" height="256" viewBox="0 0 256 256" version="1.1">
	<path d="M 87.661 20.362 C 84.223 23.306, 83.797 24.190, 83.589 28.813 C 83.462 31.652, 83.130 34.203, 82.852 34.481 C 81.333 36, 69.674 37.049, 56.259 36.874 C 42.758 36.697, 40.788 36.882, 39.009 38.492 C 36.641 40.635, 36.510 43.046, 38.462 48.500 C 39.453 51.266, 39.712 54.585, 39.303 59.261 C 38.808 64.913, 39.006 66.349, 40.510 68.011 C 42.941 70.697, 46.168 70.515, 48.969 67.533 C 51.001 65.371, 51.216 64.384, 50.716 59.539 C 49.862 51.267, 50.517 51, 71.657 51 C 81.124 51, 90.037 50.556, 91.463 50.014 C 94.262 48.950, 110.874 48.538, 123 49.233 C 127.125 49.469, 131.876 49.738, 133.559 49.831 C 138.699 50.115, 140.344 52.003, 139.549 56.708 C 139.172 58.942, 138.031 61.663, 137.014 62.755 C 135.185 64.718, 135.235 64.745, 141.645 65.260 C 151.148 66.022, 151.842 65.669, 152.639 59.665 C 153.012 56.854, 153.358 50.734, 153.408 46.066 C 153.493 38.244, 153.325 37.490, 151.272 36.458 C 149.780 35.707, 140.499 35.373, 123.188 35.447 C 102.805 35.534, 97.333 35.287, 97.333 34.279 C 97.333 33.575, 97.858 33, 98.500 33 C 99.142 33, 99.685 32.438, 99.707 31.750 C 99.729 31.063, 100.039 28.662, 100.397 26.415 C 100.919 23.136, 100.634 21.804, 98.951 19.665 C 96.097 16.037, 92.449 16.262, 87.661 20.362 M 76.504 59.354 C 75.655 60.649, 74.705 64.137, 74.392 67.104 C 74.080 70.072, 73.121 73.996, 72.262 75.825 C 69.621 81.450, 67.331 82.280, 54.720 82.183 C 41.828 82.083, 38 83.100, 38 86.621 C 38 89.821, 41.374 93.003, 44.750 92.987 C 46.263 92.980, 50.758 93.736, 54.740 94.668 C 63.040 96.609, 63.882 97.756, 61.455 103.821 C 60.568 106.039, 59.990 108.899, 60.171 110.177 C 60.481 112.367, 60.976 112.517, 68.797 112.791 C 75.541 113.028, 77.212 113.402, 77.724 114.791 C 78.071 115.731, 78.630 116.725, 78.967 117 C 79.304 117.275, 80.076 119.167, 80.683 121.206 C 82.060 125.834, 81.225 127.086, 74.500 130.473 C 68.986 133.251, 66.526 133.541, 62.315 131.910 C 58.546 130.450, 49.011 130.040, 46.406 131.226 C 43.797 132.413, 44.264 137, 46.994 137 C 47.963 137, 49.330 137.692, 50.032 138.539 C 50.734 139.385, 53.519 141.028, 56.219 142.190 C 59.319 143.523, 60.683 144.578, 59.919 145.050 C 58.248 146.083, 59.542 148.981, 61.719 149.083 C 62.698 149.129, 64.625 149.339, 66 149.550 C 67.375 149.761, 70.752 149.705, 73.505 149.426 C 77.716 148.998, 78.775 148.458, 80.171 146.024 C 81.314 144.033, 83.184 142.742, 86.166 141.884 C 88.550 141.198, 91.627 139.931, 93.004 139.069 C 94.382 138.206, 96.407 136.979, 97.504 136.343 C 98.602 135.707, 99.387 134.694, 99.250 134.093 C 99.112 133.492, 99.675 133, 100.500 133 C 101.325 133, 102 132.395, 102 131.655 C 102 129.728, 105.310 127, 107.648 127 C 109.725 127, 114.273 122.606, 113.252 121.586 C 112.930 121.264, 113.417 121, 114.333 121 C 116.072 121, 116.201 119.003, 114.540 117.811 C 113.449 117.029, 116.686 113, 118.405 113 C 119.007 112.999, 119.590 111.352, 119.701 109.339 C 119.811 107.326, 120.408 105.366, 121.028 104.983 C 121.647 104.600, 122.066 103.660, 121.958 102.894 C 121.396 98.880, 122.166 97.094, 125 95.840 C 126.650 95.109, 128 94.223, 128 93.870 C 128 92.265, 136.034 89.664, 141.488 89.503 C 150.988 89.223, 152.154 89.059, 151.550 88.081 C 151.237 87.575, 151.693 86.450, 152.562 85.581 C 153.432 84.711, 153.661 84, 153.071 84 C 152.482 84, 152 83.100, 152 82 C 152 80.855, 151.333 80, 150.441 80 C 149.477 80, 149.156 79.523, 149.601 78.750 C 149.997 78.063, 149.964 77.822, 149.529 78.215 C 149.093 78.608, 147.857 78.459, 146.781 77.883 C 145.705 77.307, 143.658 76.624, 142.232 76.366 C 140.807 76.107, 139.159 75.595, 138.570 75.227 C 137.982 74.859, 136.610 74.419, 135.521 74.250 C 133.062 73.868, 132.259 73.052, 131.834 70.500 C 131.139 66.337, 126.737 63.844, 121.563 64.684 C 118.711 65.146, 117.309 66.128, 115.552 68.894 C 111.680 74.985, 109.476 76.347, 102.282 77.092 C 91.322 78.226, 87.079 74.315, 91.605 67.250 C 92.397 66.013, 93.926 65, 95.002 65 C 98.492 65, 95.329 60.397, 90.597 58.590 C 84.231 56.159, 78.390 56.475, 76.504 59.354 M 94 92.220 C 92.075 92.748, 89.960 93.626, 89.300 94.171 C 88.641 94.716, 86.841 95.058, 85.300 94.932 C 83.760 94.805, 81.315 95.030, 79.867 95.430 C 77.462 96.095, 77.324 96.399, 78.282 98.937 C 79.976 103.423, 87.659 108.022, 93.896 108.281 C 97.929 108.449, 99.459 108.091, 100.440 106.750 C 101.144 105.787, 102.157 105, 102.691 105 C 103.224 105, 105.048 103.069, 106.742 100.709 L 109.824 96.418 106.662 94.329 C 102.670 91.692, 98.474 90.993, 94 92.220 M 122.367 125.215 C 122.068 125.699, 121.075 126.022, 120.161 125.933 C 116.527 125.576, 115.436 126.117, 114.212 128.883 C 113.215 131.134, 113.195 132.334, 114.120 134.364 C 115.302 136.959, 116.296 137.536, 121 138.359 C 128.875 139.737, 131.081 140.322, 131.608 141.175 C 131.931 141.697, 133.276 142.534, 134.597 143.037 C 135.919 143.539, 137 144.582, 137 145.353 C 137 146.124, 137.607 147.259, 138.348 147.874 C 139.377 148.728, 140.125 148.520, 141.503 146.996 C 142.723 145.649, 144.582 145, 147.226 145 C 149.380 145, 151.818 144.325, 152.643 143.500 C 153.468 142.675, 153.854 142, 153.500 142 C 153.146 142, 153.537 141.320, 154.369 140.488 C 157.253 137.604, 154.243 132, 149.809 132 C 148.814 132, 148 131.523, 148 130.941 C 148 130.359, 147.630 130.110, 147.178 130.390 C 146.726 130.669, 145.100 130.246, 143.564 129.449 C 142.028 128.652, 140.148 128, 139.386 128 C 138.624 128, 138 127.550, 138 127 C 138 126.435, 135.147 126, 131.441 126 C 127.834 126, 125.114 125.625, 125.397 125.167 C 125.680 124.708, 125.237 124.333, 124.412 124.333 C 123.587 124.333, 122.667 124.730, 122.367 125.215 M 96.813 128.683 C 97.534 128.972, 98.397 128.936, 98.729 128.604 C 99.061 128.272, 98.471 128.036, 97.417 128.079 C 96.252 128.127, 96.015 128.364, 96.813 128.683" stroke="none" fill="black" fill-rule="evenodd"/>
</svg>