<svg xmlns="http://www.w3.org/2000/svg" width="256" height="256" viewBox="0 0 256 256" version="1.1">
	<path d="M 90.535 21.104 C 87.587 23.692, 87 24.876, 87 28.236 C 87 34.756, 84.774 35.952, 72.097 36.243 C 66.269 36.377, 57.312 36.341, 52.194 36.164 C 44.915 35.913, 42.353 36.194, 40.428 37.455 C 38.077 38.996, 37.977 39.477, 38.196 48.284 C 38.322 53.353, 38.051 59.154, 37.594 61.177 C 36.863 64.407, 37.083 65.174, 39.410 67.501 L 42.059 70.150 45.277 68.270 C 49.131 66.019, 50.960 62.738, 51.001 58 C 51.062 50.821, 53.435 50.037, 75.053 50.054 C 84.419 50.061, 92.444 49.844, 92.887 49.570 C 93.329 49.297, 102.873 49.021, 114.096 48.957 C 129.454 48.870, 135.489 49.194, 138.500 50.266 C 142.256 51.603, 142.519 51.958, 142.820 56.092 C 143.158 60.755, 146.980 67, 149.494 67 C 152.441 67, 154 62.771, 154 54.777 C 154 50.500, 154.381 47, 154.846 47 C 155.969 47, 155.595 43.208, 154.114 39.581 C 152.057 34.548, 150.498 34.004, 138 33.968 C 131.675 33.949, 125.150 33.919, 123.500 33.900 C 121.850 33.882, 115.906 34.104, 110.290 34.393 C 100.086 34.919, 100.080 34.918, 100.887 32.710 C 102.287 28.874, 101.601 22.646, 99.515 20.250 C 96.871 17.214, 94.734 17.417, 90.535 21.104 M 72.215 61.015 C 68.032 62.888, 67 64.477, 67 69.048 C 67 72.118, 69.823 78.916, 71.185 79.125 C 71.633 79.194, 72.563 79.326, 73.250 79.420 C 73.938 79.513, 75.586 78.907, 76.914 78.073 C 78.870 76.843, 82.522 76.603, 96.175 76.807 C 105.441 76.945, 114.030 77.430, 115.261 77.885 C 120.274 79.738, 123.593 76.595, 123.871 69.733 C 124.039 65.588, 123.641 63.992, 122.003 62.234 C 120.858 61.005, 119.377 59.979, 118.711 59.953 C 118.045 59.927, 108.191 59.762, 96.813 59.585 C 78.808 59.306, 75.618 59.491, 72.215 61.015 M 57.324 87.705 C 55.771 88.368, 51.713 88.930, 48.307 88.955 C 43.069 88.993, 41.873 89.343, 40.557 91.223 C 38.577 94.048, 38.557 98.415, 40.515 100.372 C 41.808 101.666, 45.090 101.806, 62.981 101.333 L 83.933 100.779 86.716 103.639 C 89.429 106.427, 89.496 106.767, 89.336 117 C 88.888 145.741, 88.857 145.380, 92.231 150.250 C 93.822 152.547, 94.864 153, 98.549 153 C 102.550 153, 103.018 152.744, 103.564 150.250 C 103.896 148.738, 104.428 146.825, 104.747 146 C 105.655 143.651, 105.683 142.582, 104.863 141.460 C 104.220 140.579, 103.836 134.907, 102.636 108.500 C 102.520 105.930, 102.894 105.455, 105.250 105.184 C 107.193 104.960, 108 104.300, 108 102.934 C 108 100.279, 112.120 100.370, 114.572 103.079 C 116.561 105.277, 116.068 105.268, 131.847 103.420 C 135.015 103.049, 137.609 103.209, 138.212 103.812 C 138.903 104.503, 140.450 104.400, 143.025 103.491 C 145.112 102.755, 147.157 102.456, 147.570 102.826 C 147.983 103.197, 147.997 102.938, 147.601 102.250 C 147.206 101.563, 147.379 101, 147.986 101 C 149.805 101, 154 96.234, 154 94.168 C 154 90.306, 151.353 89.509, 137.897 89.321 C 128.488 89.189, 124.198 88.713, 121.696 87.526 C 118.757 86.132, 114.324 85.951, 89.221 86.206 C 69.385 86.406, 59.251 86.883, 57.324 87.705 M 207.923 109.191 C 207.232 111.986, 207.409 113, 208.588 113 C 210.202 113, 210.504 110.429, 209 109.500 C 208.450 109.160, 207.966 109.021, 207.923 109.191 M 128.316 117.250 C 124.945 120.812, 123.263 123.817, 123.559 125.750 C 123.664 126.438, 123.806 127.450, 123.875 128 C 123.944 128.550, 124.901 129, 126.003 129 C 127.104 129, 129.631 130.800, 131.619 133 C 133.607 135.200, 135.786 137, 136.461 137 C 137.137 137, 138.505 137.900, 139.500 139 C 140.495 140.100, 142.339 141, 143.596 141 C 144.853 141, 146.160 141.450, 146.500 142 C 146.840 142.550, 148.693 143, 150.618 143 C 152.697 143, 153.867 142.594, 153.500 142 C 153.160 141.450, 153.531 141, 154.324 141 C 156.315 141, 156.865 137.156, 155.545 132.454 C 154.442 128.523, 154.438 128.520, 149.236 128.510 C 146.373 128.505, 143.923 128.050, 143.791 127.500 C 143.556 126.514, 141.687 124.028, 139.255 121.465 C 138.571 120.744, 137.883 119.332, 137.727 118.327 C 136.900 113.015, 132.772 112.542, 128.316 117.250 M 56.405 120.667 C 55.253 120.904, 52.574 122.876, 50.452 125.049 C 48.330 127.222, 45.822 129, 44.879 129 C 43.421 129, 39 134.512, 39 136.329 C 39 136.655, 39.985 137.840, 41.189 138.961 C 45.813 143.270, 57.569 139.978, 64.093 132.546 C 65.806 130.596, 68.046 129, 69.072 129 C 71.665 129, 70.581 126.680, 66.550 123.606 C 63.035 120.925, 59.761 119.977, 56.405 120.667 M 226 176 C 226 176.550, 227.152 177, 228.559 177 C 230.010 177, 230.851 176.567, 230.500 176 C 230.160 175.450, 229.009 175, 227.941 175 C 226.873 175, 226 175.450, 226 176 M 208.500 192 C 208.131 192.596, 209.343 193, 211.500 193 C 213.657 193, 214.869 192.596, 214.500 192 C 214.160 191.450, 212.810 191, 211.500 191 C 210.190 191, 208.840 191.450, 208.500 192" stroke="none" fill="black" fill-rule="evenodd"/>
</svg>