<svg xmlns="http://www.w3.org/2000/svg" width="256" height="256" viewBox="0 0 256 256" version="1.1">
	<path d="M 89.180 20.578 C 85.476 23.748, 85 24.646, 85 28.455 C 85 30.820, 84.438 33.199, 83.750 33.741 C 81.845 35.244, 57.416 36.124, 50.156 34.951 C 44.609 34.055, 43.415 34.159, 40.656 35.781 C 37.364 37.716, 37.307 37.993, 38.118 48 C 38.229 49.375, 38.002 53.708, 37.612 57.630 C 37.026 63.520, 37.184 65.041, 38.523 66.380 C 40.706 68.563, 43.977 68.369, 46.972 65.877 C 48.901 64.272, 49.474 62.796, 49.580 59.160 C 49.655 56.597, 49.780 54.010, 49.858 53.411 C 50.191 50.857, 55.522 49.999, 71.297 49.960 C 80.209 49.938, 90.788 49.344, 94.806 48.639 C 102.483 47.292, 127.285 47.156, 135 48.419 C 141.263 49.444, 143.200 51.113, 143.200 55.486 C 143.200 58.112, 143.924 59.776, 145.840 61.552 C 147.292 62.899, 148.790 64, 149.168 64 C 150.016 64, 152.971 61.110, 153.077 60.179 C 153.119 59.805, 153.352 58.600, 153.594 57.500 C 153.837 56.400, 154.140 53.588, 154.268 51.250 C 154.396 48.913, 154.788 47, 155.141 47 C 155.834 47, 155.429 40.927, 154.551 38.160 C 154.254 37.226, 152.546 35.687, 150.756 34.740 C 148.069 33.320, 144.789 33.027, 132 33.061 C 123.475 33.083, 112.787 33.433, 108.250 33.837 L 100 34.573 100 31.346 C 100 29.570, 100.422 27.857, 100.939 27.538 C 103.266 26.100, 97.700 17, 94.493 17 C 93.870 17, 91.479 18.610, 89.180 20.578 M 102.500 58.132 C 99.750 58.513, 91.515 58.864, 84.200 58.912 C 69.510 59.009, 65.503 60.148, 64.401 64.538 C 63.548 67.938, 65.655 72.618, 69.165 75.118 C 71.795 76.990, 72.527 77.073, 76.994 76.001 C 80.746 75.101, 82.760 75.096, 85.434 75.978 C 87.366 76.616, 90.983 76.913, 93.473 76.640 C 96.360 76.322, 98.452 76.592, 99.249 77.386 C 99.937 78.070, 101.400 79.149, 102.500 79.784 C 104.343 80.849, 104.265 80.944, 101.500 81.002 C 99.674 81.040, 96.544 82.519, 93.500 84.782 C 89.342 87.874, 88.519 89.005, 88.613 91.500 C 88.778 95.876, 88.199 96.779, 84.436 98.021 C 80.579 99.294, 55.858 99.656, 48.849 98.542 C 46.291 98.135, 43.307 98.085, 42.218 98.431 C 39.824 99.191, 36 102.389, 36 103.631 C 36 104.513, 41.598 107.256, 47.500 109.268 C 49.150 109.830, 51.131 110.787, 51.903 111.395 C 52.793 112.095, 59.847 112.550, 71.165 112.637 C 90.068 112.782, 92 113.230, 92 117.469 C 92 120.550, 89.290 125.684, 86.708 127.492 C 85.524 128.321, 85.105 129, 85.777 129 C 87.621 129, 87.245 132.412, 85.133 134.847 C 83.916 136.250, 82.087 137.005, 79.883 137.015 C 75.784 137.034, 74.488 137.802, 73.566 140.755 C 73.041 142.436, 73.611 143.918, 75.810 146.586 C 79.736 151.349, 83.201 153, 89.269 153 C 93.849 153, 94.658 152.634, 98.115 149 C 100.208 146.800, 102.399 145, 102.986 145 C 103.660 145, 103.538 143.990, 102.655 142.250 C 100.290 137.592, 102.694 129.011, 106.371 128.985 C 107.613 128.976, 108.042 128.663, 107.400 128.235 C 105.777 127.151, 104.107 123.625, 104.050 121.159 C 104.023 119.972, 103.977 118.033, 103.949 116.851 C 103.921 115.669, 104.322 114.278, 104.839 113.761 C 105.373 113.227, 114.621 112.869, 126.231 112.933 C 142.131 113.021, 147.291 112.730, 149.422 111.625 C 152.743 109.902, 156.108 106.441, 155.273 105.606 C 154.940 105.273, 155.192 105, 155.833 105 C 157.834 105, 157.111 102.119, 154.715 100.549 C 151.706 98.577, 117.074 97.535, 109.194 99.180 C 105.176 100.018, 103.600 100, 102.702 99.102 C 101.940 98.340, 101.871 97.664, 102.508 97.208 C 103.054 96.819, 103.643 95.825, 103.818 95 C 104.446 92.039, 107.083 89, 109.023 89 C 111.386 89, 111.399 88.891, 109.551 84.468 C 108.754 82.561, 107.404 81, 106.551 81 C 105.698 81, 105 80.646, 105 80.213 C 105 79.405, 108.452 78.888, 115.500 78.640 C 123.476 78.360, 127.046 72.532, 124.578 63.821 C 123.219 59.026, 113.719 56.578, 102.500 58.132 M 111.250 128.716 C 112.763 128.945, 115.237 128.945, 116.750 128.716 C 118.263 128.487, 117.025 128.300, 114 128.300 C 110.975 128.300, 109.737 128.487, 111.250 128.716" stroke="none" fill="black" fill-rule="evenodd"/>
</svg>