<svg xmlns="http://www.w3.org/2000/svg" width="256" height="256" viewBox="0 0 256 256" version="1.1">
	<path d="M 67.500 23.149 C 65.850 23.621, 62.250 24.282, 59.500 24.619 C 53.732 25.325, 52.434 26.134, 51.575 29.558 C 49.993 35.861, 57.790 38.165, 81.500 38.398 C 90.300 38.484, 98.175 38.986, 99 39.512 C 100.663 40.573, 101.106 40.694, 104 40.875 C 106.478 41.030, 106.622 43.787, 104.250 45.667 C 103.287 46.430, 100.556 48.006, 98.179 49.170 C 92.609 51.899, 91.114 54.309, 90.488 61.576 C 89.757 70.056, 87.892 76.817, 86.071 77.590 C 85.207 77.957, 78.875 78.393, 72 78.559 C 65.125 78.725, 58.375 79.175, 57 79.558 C 55.625 79.942, 50.675 80.461, 46 80.712 C 41.325 80.963, 36.951 81.695, 36.280 82.340 C 34.175 84.362, 36.034 87.971, 40.378 90.295 C 44.299 92.392, 45.737 92.505, 69.806 92.606 C 85.041 92.670, 95.506 93.106, 96.103 93.703 C 97.059 94.659, 94.738 107.703, 93.058 110.814 C 92.668 111.537, 92.718 114.827, 93.169 118.125 C 94.503 127.881, 90.585 133.084, 83.400 131.100 C 79.534 130.033, 75.951 130.906, 73.292 133.565 C 70.378 136.479, 75.242 142.924, 82.431 145.674 C 88.634 148.047, 102.089 146.758, 104.235 143.586 C 104.639 142.989, 104.976 139.463, 104.985 135.750 L 105 129 108.750 128.882 C 112.332 128.769, 112.368 128.735, 109.544 128.130 C 107.153 127.617, 106.455 126.827, 105.891 123.998 C 105.507 122.074, 105.317 119.375, 105.469 118 C 105.621 116.625, 105.802 114.938, 105.872 114.250 C 105.961 113.378, 108.168 113, 113.167 113 C 120.414 113, 122.362 112.065, 115.642 111.813 C 113.639 111.738, 112 111.299, 112 110.838 C 112 110.377, 111.298 110, 110.441 110 C 109.584 110, 109.160 109.550, 109.500 109 C 109.840 108.450, 109.710 108, 109.211 108 C 107.818 108, 104.667 100.310, 105.341 98.554 C 105.669 97.699, 106.821 97, 107.901 97 C 108.987 97, 110.149 96.106, 110.500 95 C 111.247 92.647, 110.032 92.836, 127 92.432 C 134.425 92.255, 142.650 91.923, 145.277 91.695 C 147.905 91.467, 150.288 91.658, 150.574 92.119 C 151.082 92.942, 154.381 91.480, 156.485 89.500 C 159.256 86.892, 156.010 80, 152.010 80 C 150.904 80, 150 79.550, 150 79 C 150 78.442, 147.017 77.956, 143.250 77.901 C 139.537 77.847, 134.025 77.507, 131 77.147 C 125.156 76.450, 119.199 77.363, 114.846 79.622 C 113.386 80.380, 109.914 81, 107.131 81 C 103.063 81, 101.857 80.600, 100.980 78.962 C 99.830 76.814, 100.506 73, 102.036 73 C 102.532 73, 102.677 72.322, 102.359 71.492 C 101.539 69.355, 104.668 65, 107.023 65 C 108.110 65, 109.056 64.550, 109.125 64 C 109.373 62.017, 109.594 61.466, 111.026 59.250 C 111.828 58.010, 113.495 57, 114.741 57 C 116.759 57, 117.477 56.019, 117.118 53.750 C 117.053 53.337, 117.450 53, 118 53 C 118.550 53, 119 52.100, 119 51 C 119 49.210, 120.604 48.434, 123.324 48.906 C 123.778 48.985, 123.864 48.588, 123.515 48.025 C 123.167 47.461, 123.610 47, 124.500 47 C 125.390 47, 125.840 46.550, 125.500 46 C 125.160 45.450, 125.531 45, 126.324 45 C 127.118 45, 128.021 44.026, 128.333 42.836 C 128.795 41.066, 129.166 40.892, 130.360 41.884 C 131.353 42.708, 132.030 42.761, 132.470 42.049 C 132.826 41.472, 133.991 41, 135.059 41 C 136.798 41, 137.465 39.946, 137.118 37.750 C 137.053 37.337, 137.675 37, 138.500 37 C 139.947 37, 140.180 35.025, 138.853 34 C 138.497 33.725, 138.047 32.375, 137.853 31 C 137.453 28.170, 134.487 25.038, 132.097 24.923 C 131.219 24.881, 129.600 24.645, 128.500 24.397 C 126.680 23.988, 117.103 23.621, 82.500 22.635 C 75.900 22.446, 69.150 22.678, 67.500 23.149 M 225.500 176 C 225.149 176.567, 225.990 177, 227.441 177 C 228.848 177, 230 176.550, 230 176 C 230 175.450, 229.127 175, 228.059 175 C 226.991 175, 225.840 175.450, 225.500 176" stroke="none" fill="black" fill-rule="evenodd"/>
</svg>