<svg xmlns="http://www.w3.org/2000/svg" width="256" height="256" viewBox="0 0 256 256" version="1.1">
	<path d="M 125 24.678 C 121.975 24.847, 115 25.472, 109.500 26.067 C 100.835 27.005, 99.125 27.505, 96.691 29.818 L 93.883 32.487 96.052 34.243 C 97.245 35.209, 98.853 36, 99.624 36 C 100.396 36, 101.809 36.417, 102.764 36.927 C 103.719 37.437, 105.298 38.102, 106.273 38.404 C 108.622 39.134, 109.513 41.677, 108.041 43.450 C 107.233 44.425, 104.748 44.873, 100.179 44.868 C 94.755 44.861, 92.522 45.387, 88.294 47.666 L 83.089 50.472 80.984 48.213 C 79.826 46.970, 78.225 44.389, 77.426 42.477 C 76.627 40.564, 75.417 39.010, 74.737 39.022 C 74.056 39.035, 71.925 41.309, 70 44.077 C 63.622 53.247, 62.898 54, 60.463 54 C 57.661 54, 55.742 51.036, 56.429 47.771 C 56.692 46.522, 57.134 43.319, 57.412 40.652 C 57.690 37.986, 58.441 35.174, 59.080 34.403 C 60.666 32.492, 58.643 27.682, 55.559 26.032 C 50.780 23.474, 46.817 28.255, 45.127 38.617 C 43.059 51.295, 40.910 54, 32.904 54 C 29.722 54, 26.828 54.470, 26.473 55.044 C 25.356 56.851, 28.753 60.736, 33.539 63.127 C 36.073 64.392, 38.369 65.789, 38.642 66.230 C 39.164 67.074, 36.741 88.919, 34.897 100 C 34.302 103.575, 33.585 107.937, 33.305 109.693 C 32.905 112.197, 33.346 113.437, 35.352 115.443 C 37.963 118.054, 43.288 118.961, 44.500 117 C 44.840 116.450, 46.494 116, 48.176 116 C 50.859 116, 51.159 116.276, 50.630 118.250 C 50.299 119.487, 50.021 121.967, 50.014 123.760 C 50.005 125.932, 49.257 127.600, 47.772 128.760 C 46.547 129.717, 43.397 132.573, 40.772 135.107 C 36.644 139.093, 36 140.252, 36 143.702 C 36 146.419, 36.637 148.266, 37.998 149.498 C 39.925 151.242, 40.138 151.242, 44.011 149.495 C 46.220 148.499, 50.028 145.342, 52.473 142.480 C 57.793 136.253, 61.973 134.174, 66.068 135.720 C 68.584 136.669, 68.928 136.552, 69.246 134.642 C 69.442 133.464, 68.935 131.150, 68.118 129.500 C 67.302 127.850, 66.565 125.060, 66.480 123.300 C 66.396 121.540, 65.773 119.431, 65.094 118.614 C 63.665 116.892, 65.206 113, 67.317 113 C 68.003 113, 68.657 111.871, 68.771 110.492 C 68.886 109.112, 69.945 104.995, 71.125 101.342 C 72.305 97.689, 73.384 93.363, 73.523 91.728 C 73.662 90.094, 74.389 88.368, 75.138 87.894 C 75.887 87.419, 76.144 87.024, 75.710 87.015 C 75.275 87.007, 76.025 85.807, 77.376 84.350 C 80.818 80.639, 81.573 75.597, 79.408 70.796 C 77.691 66.989, 77.698 66.900, 79.848 65.394 C 81.050 64.552, 81.831 63.535, 81.583 63.134 C 80.608 61.556, 82.818 59.975, 87.055 59.220 C 91.050 58.507, 92.687 58.453, 97.393 58.875 C 99.091 59.027, 100.141 61.468, 99.372 63.473 C 99.061 64.283, 97.163 65.246, 95.153 65.613 C 93.144 65.981, 89.904 67.709, 87.953 69.455 C 84.784 72.290, 84.493 72.962, 85.219 75.765 C 86.211 79.593, 86.925 80.063, 93.877 81.456 C 98.731 82.428, 99.739 83.077, 102.532 87.028 C 105.416 91.108, 106.080 91.512, 110.097 91.634 C 118.958 91.903, 118.846 91.871, 118.298 93.967 C 117.412 97.356, 111.794 97.806, 109.501 94.671 C 107.898 92.479, 106.757 92.562, 105 95 C 103.805 96.658, 102.411 97, 96.851 97 C 89.576 97, 87.510 98.118, 86.366 102.676 C 86.016 104.071, 86.227 106.834, 86.835 108.816 C 87.444 110.797, 87.555 112.662, 87.082 112.959 C 86.064 113.600, 84 120.667, 84.643 121.309 C 85.336 122.002, 86.352 138.788, 86.130 145.883 C 85.895 153.414, 87.523 156, 92.500 156 C 97.704 156, 100.249 151.718, 98.657 145.644 C 97.132 139.823, 102.701 135.947, 107.441 139.532 C 109.690 141.232, 115.576 141.495, 116.538 139.938 C 118.039 137.510, 121.945 137.056, 127.079 138.714 C 132.184 140.363, 132.537 140.330, 139.121 137.566 C 142.804 136.020, 145.552 142.590, 142.500 145.643 C 141.675 146.468, 141 148.404, 141 149.946 C 141 152.297, 141.514 152.853, 144.181 153.386 C 149.671 154.484, 153.687 153.169, 155.075 149.819 C 155.756 148.175, 157.030 146.113, 157.907 145.237 C 159.215 143.928, 159.519 140.906, 159.609 128.322 L 159.717 113 154.109 113.022 C 150.087 113.038, 147.793 113.598, 146 115 C 142.805 117.499, 140.797 117.482, 133.465 114.895 C 125.397 112.048, 112.703 112.515, 108.510 115.813 C 106.981 117.016, 104.473 118, 102.937 118 C 100.262 118, 97 115.803, 97 114.002 C 97 113.532, 96.313 113.001, 95.473 112.823 C 94.120 112.537, 94.114 112.261, 95.423 110.402 C 96.852 108.373, 97.717 108.300, 121.576 108.191 C 141.151 108.102, 146.974 108.380, 149.748 109.539 C 154.954 111.715, 155.920 111.397, 157.962 106.836 C 159.326 103.789, 159.579 102.024, 158.906 100.252 C 158.400 98.921, 158.207 97.475, 158.477 97.038 C 159.031 96.141, 154.214 95, 149.875 95 C 145.392 95, 143 91.878, 143 86.029 C 143 81.267, 143.137 81.020, 146.250 80.175 C 148.037 79.690, 150.175 79.595, 151 79.963 C 151.825 80.331, 153.063 80.546, 153.750 80.441 C 154.438 80.336, 155.430 80.194, 155.955 80.125 C 156.480 80.056, 158.032 78.877, 159.404 77.505 C 161.553 75.356, 161.760 74.610, 160.895 72.127 C 159.245 67.395, 156.072 65.163, 150.500 64.813 C 147.536 64.628, 145.500 64.025, 145.500 63.333 C 145.500 62.692, 145.178 61.845, 144.785 61.452 C 143.439 60.106, 145.981 57.163, 148.992 56.581 C 150.646 56.262, 153.288 55.753, 154.862 55.451 C 157.991 54.851, 160.436 50.951, 159.512 48.037 C 158.506 44.868, 153.892 43.777, 139.632 43.335 C 130.135 43.042, 125.357 42.499, 124.472 41.615 C 122.406 39.549, 127.678 37.118, 136.681 35.984 C 144.659 34.979, 147 33.595, 147 29.881 C 147 28.926, 145.814 27.212, 144.365 26.073 C 141.665 23.948, 140.079 23.834, 125 24.678 M 120.262 57.982 C 117.306 59.784, 117.124 60.177, 118.172 62.478 C 119.187 64.706, 119.931 65, 124.554 65 C 129.963 65, 131 64.188, 131 59.953 C 131 57.919, 128.235 55.998, 125.316 56.004 C 124.317 56.006, 122.043 56.896, 120.262 57.982 M 56.465 65.961 C 53.016 67.343, 51.680 69.859, 51.776 74.793 C 51.826 77.382, 51.234 81.750, 50.459 84.500 C 49.685 87.250, 48.946 91.219, 48.817 93.320 C 48.687 95.421, 48.226 97.360, 47.791 97.629 C 46.502 98.426, 46.889 103.466, 48.397 105.528 C 49.742 107.367, 49.917 107.318, 53.087 104.219 C 54.898 102.449, 56.676 101, 57.038 101 C 58.234 101, 61.184 93.322, 60.924 90.888 C 60.783 89.575, 61.157 86.700, 61.754 84.500 C 63.293 78.837, 64.193 68.707, 63.274 67.385 C 62.127 65.733, 58.781 65.033, 56.465 65.961 M 117.856 75.700 C 114.938 76.027, 114.119 76.595, 113.745 78.554 L 113.277 81 122.705 81 L 132.133 81 131.816 78.250 C 131.520 75.675, 131.181 75.493, 126.500 75.396 C 123.750 75.339, 119.860 75.476, 117.856 75.700 M 126.762 92.707 C 128.006 92.946, 129.806 92.937, 130.762 92.687 C 131.718 92.437, 130.700 92.241, 128.500 92.252 C 126.300 92.263, 125.518 92.468, 126.762 92.707 M 99.070 124.387 C 95.416 130.298, 99.373 134.572, 105.206 131.016 C 109.779 128.227, 117.617 128.218, 118.500 131 C 118.899 132.257, 120.013 133, 121.500 133 C 122.987 133, 124.101 132.257, 124.500 131 C 125.040 129.298, 126.013 129, 131.032 129 C 135.906 129, 137.115 129.347, 138 131 C 139.670 134.120, 143.520 133.573, 144.998 130.006 C 146.043 127.482, 145.980 126.618, 144.596 124.506 C 142.793 121.755, 140.510 121.228, 139.687 123.374 C 139.397 124.129, 137.436 125.102, 135.330 125.534 C 133.223 125.967, 130.825 126.469, 130 126.649 C 129.175 126.829, 125.494 127.022, 121.820 127.078 C 114.644 127.188, 108.619 125.563, 105.771 122.750 C 103.160 120.170, 101.412 120.597, 99.070 124.387 M 109.441 207.468 C 107.638 208.832, 107.811 208.939, 111.872 208.968 C 115.647 208.996, 116.075 208.795, 115 207.500 C 113.432 205.611, 111.908 205.602, 109.441 207.468" stroke="none" fill="black" fill-rule="evenodd"/>
</svg>