<svg xmlns="http://www.w3.org/2000/svg" width="256" height="256" viewBox="0 0 256 256" version="1.1">
	<path d="M 89.750 21.695 C 86.221 24.119, 86 24.579, 86 29.514 C 86 34.300, 85.760 34.854, 83.250 35.860 C 81.497 36.564, 73.010 36.896, 59.848 36.778 C 43.942 36.634, 38.830 36.896, 37.598 37.918 C 35.935 39.299, 35.459 44.600, 36.808 46.723 C 37.235 47.396, 37.169 51.821, 36.662 56.557 C 35.912 63.549, 36.004 65.432, 37.148 66.577 C 39.375 68.804, 43.270 68.599, 46.683 66.077 C 49.829 63.751, 50.086 62.366, 48.410 56.801 C 48.125 55.857, 48.809 54.191, 49.949 53.051 C 51.867 51.133, 53.182 51, 70.257 51 C 80.298 51, 90.048 50.560, 91.925 50.022 C 93.801 49.483, 104.617 48.988, 115.960 48.921 C 132.835 48.821, 137.281 49.091, 140.427 50.405 C 144.243 51.999, 144.266 52.043, 143.654 56.505 C 143.286 59.195, 143.432 61, 144.019 61 C 144.559 61, 145 61.653, 145 62.450 C 145 64.306, 147.774 65.872, 150.020 65.284 C 152.561 64.620, 153.587 61.332, 153.541 54 C 153.518 50.371, 154.014 46.954, 154.665 46.264 C 156.315 44.513, 155.195 38.904, 152.778 36.807 C 151.659 35.837, 149.335 34.778, 147.613 34.455 C 143.803 33.741, 104.069 34.653, 101.845 35.506 C 99.608 36.365, 98.907 33.823, 99.906 28.474 C 100.614 24.686, 100.435 23.551, 98.803 21.476 C 96.371 18.385, 94.505 18.430, 89.750 21.695 M 99 58.194 C 96.525 58.575, 88.102 58.849, 80.281 58.801 C 66.361 58.717, 65.990 58.771, 62.571 61.378 C 58.838 64.226, 58.786 65.275, 62.137 70.118 C 64.773 73.928, 69.077 75.384, 75.478 74.632 C 82.151 73.847, 86 75.321, 86 78.661 C 86 80.375, 86.564 81, 88.113 81 C 89.963 81, 90.147 81.406, 89.587 84.250 C 89.234 86.037, 88.967 88.885, 88.993 90.577 C 89.064 95.302, 86.070 97.456, 80.772 96.491 C 75.470 95.524, 69.989 95.530, 58.771 96.514 C 52.358 97.076, 49.647 96.952, 48.557 96.047 C 47.371 95.063, 46.072 95.147, 42.100 96.467 C 39.365 97.375, 36.954 98.637, 36.743 99.272 C 36.061 101.316, 37.195 105, 38.505 105 C 39.204 105, 43.764 106.170, 48.638 107.600 C 57.342 110.154, 57.705 110.178, 69 108.928 C 84.290 107.236, 84.678 107.280, 88.569 111.151 C 92.331 114.893, 92.504 116.026, 90.811 125.897 C 89.680 132.490, 89.430 132.933, 85.716 134.915 C 83.568 136.062, 80.990 137, 79.987 137 C 74.499 137, 73.328 141.476, 77.250 147.462 C 79.753 151.282, 81.427 151.982, 88 151.953 C 91.408 151.938, 93.471 151.212, 96.500 148.960 C 98.700 147.325, 101.287 145.712, 102.250 145.377 C 103.213 145.041, 104.017 144.482, 104.038 144.133 C 104.060 143.785, 104.287 140.350, 104.545 136.500 C 105.315 124.978, 105.306 121.688, 104.493 117.689 C 103.800 114.277, 104.005 113.648, 106.449 111.689 C 109.007 109.638, 110.228 109.498, 125.839 109.463 C 143.417 109.424, 143.558 109.407, 148.904 106.715 C 150.776 105.772, 152.876 105, 153.570 105 C 156.276 105, 155.572 99.749, 152.600 97.765 C 151.995 97.361, 145.523 97.024, 138.218 97.015 C 128.697 97.004, 123.918 96.575, 121.342 95.499 C 118.242 94.203, 117.115 94.184, 113.124 95.360 C 110.433 96.153, 107.664 96.392, 106.500 95.932 C 105.400 95.497, 104.950 95.102, 105.500 95.055 C 106.050 95.008, 105.927 94.606, 105.227 94.161 C 103.760 93.230, 102.705 89, 103.940 89 C 104.393 89, 104.192 87.336, 103.493 85.303 C 101.678 80.024, 103.139 77.347, 108.381 76.343 C 110.646 75.909, 113.608 75.687, 114.963 75.849 C 116.318 76.010, 118.841 75.877, 120.570 75.553 C 123.690 74.968, 125.590 72.136, 127.532 65.178 C 128.373 62.165, 125.736 59.204, 121.613 58.532 C 116.244 57.658, 103.693 57.470, 99 58.194 M 96.426 78.696 C 96.792 81.188, 99 81.521, 99 79.083 C 99 77.938, 98.365 77, 97.588 77 C 96.812 77, 96.289 77.763, 96.426 78.696" stroke="none" fill="black" fill-rule="evenodd"/>
</svg>