<?xml version="1.0" standalone="no"?>
<!DOCTYPE svg PUBLIC "-//W3C//DTD SVG 1.1//EN" "http://www.w3.org/Graphics/SVG/1.1/DTD/svg11.dtd" >
<svg xmlns="http://www.w3.org/2000/svg" xmlns:svg="http://www.w3.org/2000/svg" xmlns:xlink="http://www.w3.org/1999/xlink" viewBox="0 0 1024 1024"><path d="M98.18 894.01Q119.91 844.63 129.78 764.28Q153.92 700.42 131.76 613.81Q139.2 324.52 143.42 262.42Q164.79 178.84 175.73 206.21Q151.35 211.27 175.15 205.23Q170.3 195.13 199.45 189.5Q238.4 169.33 347.97 165.68L519.92 171.5L504.14 164.31Q500.06 142.99 524.62 134.11Q493.37 124.06 511.55 114.3Q519.57 68.5 537.95 76.33Q544.71 86.34 530.77 73.54Q550.52 94.4 588.06 101.89Q607.77 110.39 570.22 128.21Q585.78 129.04 596.05 137.02L588.99 189.73H719.76Q857.01 179.64 867.26 172.68Q882.03 184.19 886.24 180.74Q921.41 221.72 931.17 201.54Q901.36 233.71 910.65 230.04Q904.02 241.93 898.48 230.7L867.37 251.28H545.98Q417.14 249.69 330.74 265.66Q209.83 244.73 230.15 278.49Q235.86 249.11 229.49 314.75Q218.4 368.79 196.7 462.29Q218.69 694.44 205.28 817.8Q168.61 934.05 146.28 940.67Q133.4 936.9 134.7 947.36Q122.49 952.9 141.83 932.76Q105.87 945.16 102.32 945.32Q121.56 904.28 96.77 923.24Q90.88 923.81 105.79 906.99Q115.45 888.32 89.16 880.79ZM251.68 874.72Q264.25 894.52 277.14 864.09Q273.47 850.34 288.72 812.63Q310.67 801.32 318.52 754.7Q336.7 770.93 327.75 761.02Q300.16 751.32 275.26 748.54Q278.2 725.66 290.72 667.78Q276.05 664.65 288.19 645.68Q298.16 644.94 319.2 646.92Q296.95 658.26 307.77 648.55Q323.82 650.02 353.01 672.2L344.38 706.13L394.08 633.64Q410.72 599.04 404.25 609.58Q395.86 556.82 419.97 549.6Q399.3 550.44 422.9 577.63Q397.36 541.49 389.54 561.97Q333.82 539 321.77 539.95Q291.35 531.94 287.98 519.39Q313.82 483.89 318.69 510.51Q295.89 478.55 300.74 473.99Q320.03 477.92 304.35 444.79Q350.52 440.67 348.62 391.7Q346.69 395.72 325.03 418.34Q350.88 389.63 338.01 395.23Q304.58 412.91 291.33 405.92Q269.26 401.92 281.15 378.23Q258.45 391.41 258.21 370.05Q258.54 367.33 276.81 367.66Q268.6 357.47 286.09 355.86Q294.7 336.08 307.02 352.93Q343.9 324.7 371.89 352.13Q370.82 348.04 407.06 323.84Q432.16 348.21 432.1 350.89Q454.31 345.27 456.06 348.31Q467.25 362.34 456.39 374.18Q463.48 376.89 454.8 370.63Q447.16 389.87 434.34 410.97Q397.37 466.66 381.88 462.1Q395.77 478.02 364.26 473.74Q390.23 491.23 366.08 494.74Q398.22 495.78 417.81 481.16Q409.02 484.01 449.02 504.72Q494.98 503.55 510.18 514.92Q488.85 532.11 503.55 527.93Q503.53 547.89 487.53 599.9Q471.88 592.5 457.86 637.3Q448.01 677.35 442.67 695.5Q442.94 723.84 431.71 736.75Q429.25 764.95 430.89 760.39Q422.71 767.06 418.69 772.09Q425.21 783.58 430.41 805.12Q424.08 800.38 404.73 777.97Q461.73 806.22 611.53 822.88Q756.96 827.61 833.38 866.25Q880.83 870.89 874.39 866.59Q905.28 876.31 931.29 846.64Q923.22 872.44 915.22 854.08Q941 860.99 936.63 900.83Q915.12 885.18 927.94 896.07Q922.3 911.04 929.8 885.46Q934.46 889.4 920.79 933.31Q887.72 928.39 886.52 924.42Q849.2 922.6 844.09 927.89Q789.64 942.92 722.2 921.88Q578.11 912.55 527.04 886.2Q443.47 852.73 400.84 857.92Q392.71 834.29 392.21 832.36Q383.58 869.11 370.23 859.14Q358.81 839.22 371.26 854.65Q326.88 903.97 340 904.67Q316.26 925.87 288.2 910.71Q297.51 921.3 276.43 897.1Q273.42 887.95 243.67 870.41ZM535.82 678.08Q539.08 691.95 554.04 699.84Q538.85 661.52 590.1 660.09L654.92 686.88V580.06H629.89Q589.99 573.2 553.25 583.12Q544.31 561.1 565.39 547.31Q564.34 530.09 538.93 540.65Q564.22 520.31 575.15 497.1Q578.85 491.48 624.12 507.75H658.18V462.65Q684.15 433.49 661.75 426.11Q668.14 389.15 655.24 412.71Q656.43 409.04 645.47 396.14Q659.31 407.73 633.2 415.36Q611.54 409.3 604.53 417.42Q607.59 406.82 575.93 386.97Q573.3 410.84 568.26 380.68Q565.35 358.95 583.81 362.21Q574.51 374.72 597.51 352.99Q594.57 336.21 679.18 323.92Q744.12 313.7 793.67 304.02Q806.17 335.39 810.24 313.24Q823.04 333.52 829.88 335.08Q811.07 362.03 825.95 341.76Q839.55 356.46 818.22 389.05Q792.66 379.93 779.99 383.44Q752.22 388.97 756.39 396.01L726.84 378.03L735.75 412.97V454.94Q724.98 484.91 727.64 494.09Q722.35 503.08 765.68 496.8Q764.03 500.26 787.25 476.06Q805.92 500.95 815.49 490.87Q819.13 499.25 850.18 526.03Q816.3 536.82 811.17 535.11Q814.41 567.72 758.37 563.85H738.91L749.74 632.06Q728.72 632.26 736.04 643.38Q717.29 635.51 731.48 684.9Q725.57 665.4 747.11 686.72Q734.93 693.69 752.43 667.66Q759.29 699.32 813.91 673.17Q821.57 661.98 858.06 690.56Q871.69 668.35 876.52 709.92Q863.06 713.35 887.24 729.46Q883.09 724.03 865 748.42Q892.1 738.33 836.66 736.16Q826.78 759.38 688.19 757.46Q571.01 756.64 526.12 755.17Q539.43 737.69 526.96 717.8Q525.6 718.61 506.06 713.72Q501.57 708.08 526.36 675.44Z" fill="black"></path></svg>