<?xml version="1.0" standalone="no"?>
<!DOCTYPE svg PUBLIC "-//W3C//DTD SVG 1.1//EN" "http://www.w3.org/Graphics/SVG/1.1/DTD/svg11.dtd" >
<svg xmlns="http://www.w3.org/2000/svg" xmlns:svg="http://www.w3.org/2000/svg" xmlns:xlink="http://www.w3.org/1999/xlink" viewBox="0 0 1024 1024"><path d="M100.0 898.5Q112.0 862.5 123.0 780.0Q134.0 697.5 138.0 610.5Q147.0 317.5 150.5 256.5Q154.0 195.5 160.0 195.5Q160.0 195.5 161.0 196.5Q165.0 191.5 204.5 188.0Q244.0 184.5 343.0 182.5L512.0 177.5L510.0 151.5Q509.0 143.5 509.0 135.5Q509.0 120.5 514.0 104.5Q519.0 88.5 534.0 83.5Q542.0 80.5 550.0 80.5Q564.0 80.5 576.0 95.0Q588.0 109.5 588.0 143.5Q588.0 146.5 588.0 148.5L586.0 178.5H737.0Q840.0 178.5 867.5 180.5Q895.0 182.5 901.0 191.5Q913.0 203.5 913.0 215.5Q913.0 215.5 912.5 221.5Q912.0 227.5 899.0 241.5L885.0 256.5H555.0Q408.0 256.5 318.0 258.0Q228.0 259.5 222.0 263.5Q222.0 267.5 219.5 326.5Q217.0 385.5 215.0 472.5Q211.0 697.5 195.0 809.0Q179.0 920.5 147.0 936.5Q135.0 943.5 129.0 943.5Q129.0 943.5 126.0 943.0Q123.0 942.5 112.0 927.5Q103.0 920.5 101.0 914.5Q99.0 908.5 99.0 904.5Q99.0 901.5 100.0 898.5ZM258.0 886.5Q258.0 879.5 268.0 864.0Q278.0 848.5 291.0 830.5Q324.0 787.5 324.0 774.5Q324.0 769.5 318.0 769.5Q307.0 765.5 295.0 737.5Q283.0 709.5 283.0 684.5Q283.0 664.5 291.5 652.0Q300.0 639.5 312.0 639.5Q314.0 639.5 321.0 652.0Q328.0 664.5 337.0 682.5L359.0 724.5L386.0 648.5Q399.0 616.5 407.0 592.0Q415.0 567.5 417.0 564.5Q417.0 562.5 404.0 559.5Q391.0 556.5 373.0 555.5Q332.0 549.5 315.0 539.0Q298.0 528.5 298.0 510.5Q298.0 501.5 299.5 495.0Q301.0 488.5 303.0 486.5Q309.0 483.5 322.5 460.0Q336.0 436.5 348.0 411.5Q348.0 409.5 340.0 407.5Q332.0 405.5 319.0 403.5Q307.0 403.5 296.0 400.0Q285.0 396.5 282.0 393.5Q273.0 384.5 272.5 375.0Q272.0 365.5 272.0 363.5Q272.0 348.5 280.0 342.5Q283.0 339.5 305.5 336.5Q328.0 333.5 359.0 333.5Q388.0 332.5 408.0 332.5Q428.0 332.5 443.0 334.0Q458.0 335.5 465.0 346.5Q470.0 352.5 470.0 359.5Q470.0 366.5 464.0 379.0Q458.0 391.5 427.0 421.5Q397.0 454.5 387.5 468.0Q378.0 481.5 378.0 487.5Q378.0 490.5 381.0 492.5Q384.0 493.5 399.5 496.5Q415.0 499.5 435.0 501.5Q487.0 502.5 492.5 514.5Q498.0 526.5 498.0 533.5Q498.0 554.5 480.0 592.5Q471.0 610.5 462.5 637.5Q454.0 664.5 451.0 688.5Q445.0 709.5 439.0 731.5Q433.0 753.5 429.0 763.5Q424.0 774.5 422.5 780.0Q421.0 785.5 421.0 787.5Q421.0 789.5 422.0 790.5Q444.0 799.5 593.0 822.0Q742.0 844.5 836.0 852.5Q868.0 853.5 890.5 856.5Q913.0 859.5 917.0 861.5Q917.0 862.5 919.5 869.0Q922.0 875.5 924.0 884.5Q925.0 889.5 925.0 893.5Q925.0 898.5 923.0 903.0Q921.0 907.5 910.0 915.5Q894.0 924.5 867.5 925.5Q841.0 926.5 835.0 926.5Q793.0 926.5 739.0 918.5Q595.0 898.5 516.5 884.5Q438.0 870.5 415.0 855.5Q402.0 850.5 391.0 850.5Q387.0 850.5 378.5 852.0Q370.0 853.5 357.0 868.5Q343.0 886.5 322.0 901.5Q301.0 916.5 291.0 918.5Q278.0 916.5 269.0 907.0Q260.0 897.5 258.0 886.5ZM521.0 693.5Q525.0 688.5 541.0 685.0Q557.0 681.5 595.0 679.5L660.0 675.5V567.5H613.0Q582.0 567.5 570.5 565.0Q559.0 562.5 553.0 555.5Q547.0 544.5 547.0 535.5Q547.0 522.5 563.0 510.0Q579.0 497.5 627.0 497.5H667.0V448.5Q667.0 441.5 667.0 434.5Q667.0 408.5 662.0 404.0Q657.0 399.5 652.0 399.5Q642.0 399.5 624.0 407.5Q612.0 411.5 603.0 411.5Q591.0 411.5 582.0 404.5Q573.0 397.5 573.0 382.5Q573.0 375.5 575.0 367.5Q575.0 355.5 593.0 349.0Q611.0 342.5 676.0 331.5Q748.0 317.5 781.0 317.5Q790.0 317.5 806.0 320.0Q822.0 322.5 822.0 346.5Q822.0 348.5 822.0 351.5Q822.0 367.5 804.5 376.5Q787.0 385.5 767.0 385.5Q763.0 385.5 759.0 385.5L735.0 384.5L737.0 432.5V467.5Q737.0 483.5 739.0 486.5Q739.0 490.5 750.5 492.0Q762.0 493.5 780.0 493.5Q813.0 493.5 824.5 500.0Q836.0 506.5 836.0 526.5Q836.0 542.5 820.5 550.5Q805.0 558.5 775.0 560.5H735.0L733.0 619.5Q732.0 635.5 732.0 648.5Q732.0 654.5 732.5 666.0Q733.0 677.5 737.0 677.5Q739.0 677.5 758.0 678.5Q777.0 679.5 802.0 679.5Q841.0 681.5 854.5 684.0Q868.0 686.5 874.0 695.5Q882.0 706.5 882.0 717.5Q882.0 721.5 879.0 731.0Q876.0 740.5 854.0 747.5Q816.0 756.5 693.0 756.5Q570.0 756.5 537.0 747.5Q523.0 738.5 519.0 727.5Q515.0 716.5 515.0 710.5Q515.0 701.5 521.0 693.5Z" fill="black"></path></svg>